<svg xmlns="http://www.w3.org/2000/svg" width="25.353" height="25.312" viewBox="0 0 25.353 25.312">
  <g id="Group_11914" data-name="Group 11914" transform="translate(-2707.727 -5759.156)">
    <path id="Path_19803" data-name="Path 19803" d="M12283.8,5272.19a1.607,1.607,0,0,1,.646.552c.536.669,1.081,1.331,1.618,2a.437.437,0,0,0,.3.181c.93.138,1.856.29,2.785.438a.852.852,0,0,1,.789.787c.147.927.3,1.852.439,2.779a.433.433,0,0,0,.181.3q1.053.844,2.1,1.7a.875.875,0,0,1,.329,1.227c-.316.82-.629,1.643-.951,2.461a.6.6,0,0,0,0,.472c.326.826.643,1.656.961,2.484a.861.861,0,0,1-.312,1.19q-1.066.865-2.136,1.726a.41.41,0,0,0-.166.283c-.14.927-.292,1.853-.439,2.779a.859.859,0,0,1-.809.8c-.92.144-1.839.3-2.761.435a.441.441,0,0,0-.3.177q-.844,1.051-1.7,2.095a.874.874,0,0,1-1.247.326c-.823-.315-1.647-.626-2.468-.947a.572.572,0,0,0-.449,0c-.835.327-1.674.646-2.512.967a.861.861,0,0,1-1.173-.308q-.867-1.064-1.729-2.132a.443.443,0,0,0-.3-.176c-.92-.138-1.84-.291-2.761-.435a.86.86,0,0,1-.807-.8c-.146-.926-.3-1.851-.438-2.779a.411.411,0,0,0-.165-.282c-.7-.562-1.4-1.128-2.1-1.692a.879.879,0,0,1-.341-1.244c.317-.821.628-1.643.95-2.461a.592.592,0,0,0,0-.472c-.325-.826-.642-1.655-.96-2.484a.866.866,0,0,1,.32-1.188c.7-.565,1.4-1.132,2.1-1.693a.5.5,0,0,0,.2-.341c.137-.912.288-1.82.432-2.73a.868.868,0,0,1,.817-.816c.912-.143,1.822-.294,2.735-.43a.5.5,0,0,0,.342-.2c.531-.662,1.071-1.317,1.6-1.979a1.609,1.609,0,0,1,.643-.554h.3c.953.362,1.908.721,2.858,1.089a.546.546,0,0,0,.426,0c.951-.368,1.906-.727,2.859-1.089Zm1.389,7.111a.77.77,0,0,0-.481-.715.741.741,0,0,0-.848.15,2.2,2.2,0,0,0-.275.347q-3.086,4.307-6.17,8.616c-.521.729-1.049,1.457-1.563,2.191a.784.784,0,0,0,.353,1.237.809.809,0,0,0,.979-.375q1.453-2.027,2.9-4.057l4.848-6.769A1,1,0,0,0,12285.19,5279.3Zm0,9.509a2.377,2.377,0,1,0-2.388,2.367A2.395,2.395,0,0,0,12285.188,5288.81Zm-7.139-5.544a2.372,2.372,0,1,0-2.371-2.385A2.4,2.4,0,0,0,12278.049,5283.266Z" transform="translate(-9560.03 486.966)" fill="#cacaca"/>
    <path id="Path_19804" data-name="Path 19804" d="M12428.935,5272.19c-.953.362-1.907.721-2.859,1.089a.544.544,0,0,1-.425,0c-.95-.368-1.905-.727-2.859-1.089Z" transform="translate(-9705.461 486.966)" fill="#cacaca"/>
    <path id="Path_19805" data-name="Path 19805" d="M12405.17,5375.055a.989.989,0,0,1-.256.628l-4.846,6.768q-1.452,2.029-2.905,4.058a.808.808,0,0,1-.978.374.783.783,0,0,1-.354-1.237c.516-.735,1.042-1.462,1.564-2.191q3.083-4.308,6.169-8.616a2.22,2.22,0,0,1,.276-.347.741.741,0,0,1,.848-.149A.765.765,0,0,1,12405.17,5375.055Z" transform="translate(-9680.01 391.211)" fill="#fff"/>
    <path id="Path_19806" data-name="Path 19806" d="M12477.143,5504.45a2.378,2.378,0,1,1-2.379-2.378A2.4,2.4,0,0,1,12477.143,5504.45Zm-2.389.784a.79.79,0,1,0-.781-.793A.8.8,0,0,0,12474.754,5505.233Z" transform="translate(-9751.984 271.326)" fill="#fff"/>
    <path id="Path_19807" data-name="Path 19807" d="M12397.986,5379.125a2.373,2.373,0,1,1,2.384-2.372A2.4,2.4,0,0,1,12397.986,5379.125Zm.8-2.376a.791.791,0,1,0-.779.793A.8.8,0,0,0,12398.784,5376.749Z" transform="translate(-9679.969 391.107)" fill="#fff"/>
  </g>
</svg>
