<svg xmlns="http://www.w3.org/2000/svg" width="18.742" height="24.557" viewBox="0 0 18.742 24.557">
  <g id="Group_12140" data-name="Group 12140" transform="translate(-665 -512.235)">
    <path id="Path_17443" data-name="Path 17443" d="M-786.544,403.887q-1.922-1.282-3.843-2.565-2.387-1.6-4.771-3.2c-.053-.036-.107-.07-.158-.108a.744.744,0,0,1-.006-1.269c.648-.453,1.314-.878,1.967-1.323.151-.1.25-.025.364.051q2.689,1.794,5.379,3.587a2.194,2.194,0,0,0,2.112.275,2.986,2.986,0,0,0,.582-.329q2.64-1.759,5.278-3.523a.367.367,0,0,1,.487,0c.577.4,1.167.782,1.75,1.173a.776.776,0,0,1,.012,1.422q-4.162,2.8-8.326,5.6c-.112.076-.231.141-.347.211Z" transform="translate(1460.675 132.905)" fill="#cacaca"/>
    <path id="Path_17444" data-name="Path 17444" d="M-776.775,134.052a.817.817,0,0,1-.439.716q-2.044,1.359-4.085,2.721l-4.224,2.815a.862.862,0,0,1-1.222,0q-4.134-2.755-8.269-5.51a.864.864,0,0,1-.478-.7.821.821,0,0,1,.442-.741q2.218-1.486,4.433-2.976,1.937-1.3,3.874-2.607a.858.858,0,0,1,1.221,0q4.144,2.784,8.287,5.569A.821.821,0,0,1-776.775,134.052Z" transform="translate(1460.503 384.717)" fill="#cacaca"/>
    <path id="Path_17445" data-name="Path 17445" d="M-776.947,301.372a.677.677,0,0,1-.252.545,2.336,2.336,0,0,1-.25.184l-8.225,5.485a.877.877,0,0,1-1.262,0l-8.226-5.484c-.06-.04-.121-.078-.178-.122a.739.739,0,0,1,0-1.24c.652-.46,1.326-.888,1.985-1.337.152-.1.251-.019.364.056l4,2.669c.465.31.928.622,1.395.929a2.16,2.16,0,0,0,2.573,0q2.68-1.784,5.355-3.576a.4.4,0,0,1,.528,0c.588.411,1.191.8,1.789,1.2A.782.782,0,0,1-776.947,301.372Z" transform="translate(1460.676 223.172)" fill="#cacaca"/>
  </g>
</svg>
