<svg xmlns="http://www.w3.org/2000/svg" width="25.827" height="28.028" viewBox="0 0 25.827 28.028">
  <g id="Icon_feather-package" data-name="Icon feather-package" transform="translate(-2.786 -1.461)">
    <path id="Path_19523" data-name="Path 19523" d="M22.45,12.774,11.25,6.315" transform="translate(-1.15 -0.564)" fill="none" stroke="#cacaca" stroke-linecap="round" stroke-linejoin="round" stroke-width="3"/>
    <path id="Path_19524" data-name="Path 19524" d="M26.9,20.423V10.467a2.489,2.489,0,0,0-1.244-2.153L16.944,3.337a2.489,2.489,0,0,0-2.489,0L5.744,8.314A2.489,2.489,0,0,0,4.5,10.467v9.956a2.489,2.489,0,0,0,1.244,2.153l8.711,4.978a2.489,2.489,0,0,0,2.489,0l8.711-4.978A2.489,2.489,0,0,0,26.9,20.423Z" transform="translate(0 0)" fill="none" stroke="#cacaca" stroke-linecap="round" stroke-linejoin="round" stroke-width="3"/>
    <path id="Path_19525" data-name="Path 19525" d="M4.905,10.44l10.864,6.284L26.633,10.44" transform="translate(-0.069 -1.267)" fill="none" stroke="#cacaca" stroke-linecap="round" stroke-linejoin="round" stroke-width="3"/>
    <path id="Path_19526" data-name="Path 19526" d="M18,30.544V18" transform="translate(-2.3 -2.555)" fill="none" stroke="#cacaca" stroke-linecap="round" stroke-linejoin="round" stroke-width="3"/>
  </g>
</svg>
