<svg xmlns="http://www.w3.org/2000/svg" width="23.278" height="33.083" viewBox="0 0 23.278 33.083">
  <g id="Group_11940" data-name="Group 11940" transform="translate(-1503.345 -380.69)">
    <path id="Path_19829" data-name="Path 19829" d="M1504.065,413.773a1.164,1.164,0,0,1-.72-1.227c.022-2.206.007-4.412.009-6.618a3.632,3.632,0,0,1,2.7-3.471c.942-.241,1.885-.478,2.854-.723v1.418q0,2.115,0,4.229c0,.145.01.236-.195.274a.963.963,0,0,0-.839,1.049q0,2.533,0,5.069Z" fill="#cacaca"/>
    <path id="Path_19830" data-name="Path 19830" d="M1522.091,413.773v-4.94a1.017,1.017,0,0,0-.842-1.183c-.1-.036-.129-.074-.129-.172,0-1.9,0-3.807,0-5.746,1.1.308,2.207.479,3.249.871a3.625,3.625,0,0,1,2.243,3.324c0,2.206-.013,4.413.01,6.619a1.17,1.17,0,0,1-.72,1.227Z" fill="#cacaca"/>
    <path id="Path_19831" data-name="Path 19831" d="M1509.815,413.773c0-1.314.005-2.628,0-3.941,0-.211.053-.265.264-.264q4.91.011,9.819,0c.211,0,.266.053.265.264-.011,1.313-.006,2.627-.006,3.941Z" fill="#cacaca"/>
    <path id="Path_19832" data-name="Path 19832" d="M1512.076,382c0,.627,0,1.219,0,1.811a2.9,2.9,0,0,0,5.757.632,7.025,7.025,0,0,0,.057-1.094v-1.359a6.6,6.6,0,0,1,2.251,1.721,6.7,6.7,0,0,1,1.607,3.856c.018.212.093.233.27.233a.953.953,0,0,1,1.041.974.964.964,0,0,1-1.06.96q-7.007,0-14.012,0a.967.967,0,0,1-1.08-.971.95.95,0,0,1,1.051-.961c.2,0,.238-.052.259-.245a6.752,6.752,0,0,1,3.7-5.5C1511.956,382.044,1512,382.033,1512.076,382Z" fill="#cacaca"/>
    <path id="Path_19833" data-name="Path 19833" d="M1514.985,391.675c1.84,0,3.681.005,5.521-.006.24,0,.3.052.3.3a10.265,10.265,0,0,1-.263,2.941,5.827,5.827,0,0,1-11.3-.72,16.5,16.5,0,0,1-.08-2.352c-.008-.234.156-.156.264-.157,1.141,0,2.281,0,3.422,0Z" fill="#cacaca"/>
    <path id="Path_19834" data-name="Path 19834" d="M1510.849,403.288c1.2.737,2.355,1.433,3.494,2.158a1.13,1.13,0,0,0,1.344,0c1.141-.722,2.3-1.42,3.448-2.128.085.065.046.146.046.212,0,1.281,0,2.562.008,3.843,0,.213-.057.264-.266.263-2.6-.007-5.21,0-7.815-.005-.132,0-.267.045-.265-.194C1510.855,406.074,1510.849,404.708,1510.849,403.288Z" fill="#cacaca"/>
    <path id="Path_19835" data-name="Path 19835" d="M1510.848,399.729a7.837,7.837,0,0,0,8.334-.04c0,.435,0,.856,0,1.277,0,.1-.1.127-.173.17q-1.9,1.176-3.805,2.353a.311.311,0,0,1-.376,0q-1.9-1.182-3.808-2.352a.279.279,0,0,1-.175-.27C1510.856,400.5,1510.848,400.133,1510.848,399.729Z" fill="#cacaca"/>
    <path id="Path_19836" data-name="Path 19836" d="M1515.953,382.811c0,.377.006.754,0,1.13a.968.968,0,0,1-1.935-.009q-.01-1.146,0-2.293a.968.968,0,0,1,1.936.009C1515.958,382.036,1515.953,382.423,1515.953,382.811Z" fill="#cacaca"/>
  </g>
</svg>
