<svg xmlns="http://www.w3.org/2000/svg" width="23.903" height="20.473" viewBox="0 0 23.903 20.473">
  <g id="Group_11997" data-name="Group 11997" transform="translate(459.913 -4.981)">
    <path id="Path_19821" data-name="Path 19821" d="M-366.594,64.485c-.33-.253-.667-.5-.99-.76a.378.378,0,0,1-.11-.258c-.009-.432.019-.866-.008-1.3a.333.333,0,0,1,.155-.344c.324-.234.64-.479.957-.721a.445.445,0,0,0,.141-.688q-.591-1.041-1.19-2.078a.444.444,0,0,0-.649-.221c-.368.154-.736.306-1.1.473a.359.359,0,0,1-.406-.038,6.942,6.942,0,0,0-1.01-.587.429.429,0,0,1-.282-.41c-.039-.388-.091-.776-.145-1.163a.425.425,0,0,0-.461-.424q-1.237-.012-2.473,0a.428.428,0,0,0-.465.421q-.082.606-.15,1.213a.391.391,0,0,1-.249.354,9.992,9.992,0,0,0-1.055.609.326.326,0,0,1-.359.039c-.364-.164-.733-.314-1.1-.469-.083-.035-.17-.061-.321-.115a1.591,1.591,0,0,0-.347.318c-.414.691-.81,1.394-1.207,2.1a.436.436,0,0,0,.144.668c.337.258.68.509,1.01.774a.345.345,0,0,1,.1.238c.007.441-.019.882.006,1.321a.315.315,0,0,1-.146.324c-.336.244-.667.5-1,.752a.423.423,0,0,0-.131.631q.6,1.064,1.214,2.122a.441.441,0,0,0,.652.206c.384-.16.762-.331,1.151-.478a.415.415,0,0,1,.306.037c.357.194.694.426,1.059.6a.426.426,0,0,1,.272.392c.039.388.091.776.143,1.163a.434.434,0,0,0,.473.441q1.223.01,2.448,0a.432.432,0,0,0,.481-.431c.054-.4.105-.791.146-1.188a.407.407,0,0,1,.261-.372,10.652,10.652,0,0,0,1.055-.611.3.3,0,0,1,.337-.04c.37.169.748.322,1.123.479a.447.447,0,0,0,.669-.215q.6-1.035,1.191-2.077A.444.444,0,0,0-366.594,64.485Zm-6.365.013a1.709,1.709,0,0,1-1.671-1.725,1.707,1.707,0,0,1,1.719-1.677,1.707,1.707,0,0,1,1.683,1.712A1.709,1.709,0,0,1-372.96,64.5Z" transform="translate(-75.031 -47.579)" fill="#28304e"/>
    <path id="Path_19822" data-name="Path 19822" d="M-390.87,15.375a8.621,8.621,0,0,0-.346-2.678,9.033,9.033,0,0,0-7.124-6.632,9.056,9.056,0,0,0-9.5,3.657c-.051.066-.094.137-.145.2a.418.418,0,0,1-.61.117.4.4,0,0,1-.091-.611A9.789,9.789,0,0,1-407,7.529a10.053,10.053,0,0,1,5.636-2.487,10.22,10.22,0,0,1,11.1,7.935A20.938,20.938,0,0,1-390,15.25a.307.307,0,0,0,.066.178c.291-.3.577-.612.874-.909a.419.419,0,0,1,.655,0,.393.393,0,0,1-.007.564q-.856.875-1.731,1.73a.407.407,0,0,1-.6-.023q-.845-.833-1.678-1.678a.4.4,0,0,1-.011-.618.414.414,0,0,1,.62.02c.3.3.586.61.879.916Z" transform="translate(-47.717 0)" fill="#f60"/>
    <path id="Path_19823" data-name="Path 19823" d="M-458.238,134.194c-.316.323-.606.628-.907.923a.419.419,0,0,1-.669-.025.385.385,0,0,1,.029-.543q.849-.864,1.713-1.713a.413.413,0,0,1,.623.015q.846.832,1.678,1.678a.4.4,0,0,1,0,.619.416.416,0,0,1-.62-.029c-.3-.3-.593-.6-.911-.924,0,.4-.031.756.005,1.1a9.208,9.208,0,0,0,2.662,5.69,8.918,8.918,0,0,0,5.553,2.72,9.205,9.205,0,0,0,8.8-3.921c.207-.277.375-.346.6-.229a.419.419,0,0,1,.138.671,9.817,9.817,0,0,1-1.654,1.862,10,10,0,0,1-5.657,2.5,9.981,9.981,0,0,1-7.737-2.385,10.021,10.021,0,0,1-3.5-6.26C-458.172,135.387-458.185,134.818-458.238,134.194Z" transform="translate(0 -119.196)" fill="#f60"/>
  </g>
</svg>
