<svg xmlns="http://www.w3.org/2000/svg" width="199.071" height="363.818" viewBox="0 0 199.071 363.818">
  <g id="Group_8308" data-name="Group 8308" transform="translate(-1629.079 -915.25)">
    <path id="Path_16783" data-name="Path 16783" d="M1761.5,915.75c9.314,1.433,18.35,3.8,26.693,8.31,23.77,12.858,38.049,32.658,41.666,59.4,5.65,41.778-24.035,80.784-65.537,86.95a78.062,78.062,0,0,1-88.678-64.966c-6.891-43.233,23.34-83.58,66.953-89.361a6.992,6.992,0,0,0,1.09-.334Zm45.25,77.591c.314-27.669-21.787-54.293-54.213-54.213-32.787.079-54.1,26.942-54.178,54.044-.08,27.252,21.291,54.25,54.152,54.357C1784.839,1047.636,1807.048,1021.1,1806.755,993.341Z" transform="translate(-10.542)" fill="#28304e" stroke="rgba(0,0,0,0)" stroke-miterlimit="10" stroke-width="1"/>
    <path id="Path_16784" data-name="Path 16784" d="M1629.578,1250.69c1.576-51.427,38.309-92.1,85.514-101.077,10.264-1.95,20.576-1.4,30.891-1.689,13.707-.382,27.129.99,40.1,5.635a11.82,11.82,0,0,1,.189,22.414,10.689,10.689,0,0,1-7.059.146c-15.74-5.423-31.965-5.089-48.266-4.42a77.824,77.824,0,0,0-45.18,16.23c-18.447,14.137-29.2,32.8-31.887,56.006-.311,2.675-.416,5.335-.471,8.012-.158,7.629-5.078,12.586-12.367,12.485-6.721-.093-11.461-5.383-11.469-12.8Z" transform="translate(0.001 -54.263)" fill="#28304e" stroke="rgba(0,0,0,0)" stroke-miterlimit="10" stroke-width="1"/>
    <path id="Path_16785" data-name="Path 16785" d="M1846.676,1195.42c5.172,0,10.346-.1,15.512.042,2.361.066,3.172-.694,3.15-3.095q-.155-15.371-.016-30.741c.037-4.861,2.049-8.77,6.539-10.976a11.441,11.441,0,0,1,12.006.73c3.734,2.493,5.246,6.226,5.262,10.6.031,9.96.094,19.921-.043,29.878-.035,2.7.664,3.669,3.516,3.625,10.145-.16,20.3-.081,30.451-.055,6.822.018,12,5.061,12.033,11.642a11.661,11.661,0,0,1-11.957,11.72c-10.248.032-20.5.082-30.742-.04-2.5-.028-3.326.7-3.3,3.248q.188,15.369.008,30.741c-.053,4.72-2.043,8.576-6.406,10.776a11.454,11.454,0,0,1-12.018-.609c-3.766-2.453-5.34-6.162-5.361-10.538-.049-10.055-.09-20.112.031-30.166.031-2.581-.66-3.5-3.381-3.46-10.146.151-20.3.073-30.453.051-6.98-.015-12.248-5.153-12.16-11.8.084-6.583,5.248-11.535,12.1-11.565C1836.525,1195.4,1841.6,1195.422,1846.676,1195.42Z" transform="translate(-107.435 13.616)" fill="#28304e" stroke="rgba(0,0,0,0)" stroke-miterlimit="10" stroke-width="1"/>
  </g>
</svg>
