<svg xmlns="http://www.w3.org/2000/svg" width="19.911" height="19.906" viewBox="0 0 19.911 19.906">
  <g id="Group_6028" data-name="Group 6028" transform="translate(0)">
    <path id="Path_17416" data-name="Path 17416" d="M-962.4,315.945a3.221,3.221,0,0,1,1-1.843,3.006,3.006,0,0,1,2.044-.812c.285,0,.57,0,.855,0,.126,0,.174-.044.17-.17-.006-.207,0-.414,0-.621a.77.77,0,0,1,.788-.763.769.769,0,0,1,.791.761c0,.207.006.415,0,.622,0,.123.039.173.167.173q1.573-.005,3.147,0c.117,0,.162-.045.159-.161,0-.214,0-.427,0-.641a.769.769,0,0,1,.8-.753.769.769,0,0,1,.78.752q.007.32,0,.641c0,.115.039.162.158.162q1.6,0,3.2,0c.109,0,.15-.045.148-.151q-.005-.32,0-.641a.769.769,0,0,1,.789-.762.769.769,0,0,1,.789.762c0,.207.006.415,0,.621,0,.125.041.174.169.172.3-.006.609,0,.913,0a3.115,3.115,0,0,1,3,2.581,2.306,2.306,0,0,1,.038.346q0,2.311,0,4.623a.781.781,0,0,1-.588.773.8.8,0,0,1-.907-.4.836.836,0,0,1-.086-.413q0-2.1,0-4.2a1.864,1.864,0,0,0-.164-.849,1.57,1.57,0,0,0-1.464-.883c-.246-.009-.492,0-.738,0-.124,0-.176.041-.172.168.006.207,0,.414,0,.621a.77.77,0,0,1-.786.765.769.769,0,0,1-.792-.759c0-.207-.005-.414,0-.621,0-.121-.035-.175-.165-.175q-1.593.005-3.185,0c-.116,0-.164.041-.161.159.005.214,0,.427,0,.641a.769.769,0,0,1-.8.755.769.769,0,0,1-.782-.75c0-.207-.007-.415,0-.622,0-.131-.037-.185-.176-.184q-1.564.006-3.127,0c-.126,0-.174.044-.17.17.006.207,0,.414,0,.621a.77.77,0,0,1-.788.764.769.769,0,0,1-.791-.76c0-.207-.006-.414,0-.621,0-.123-.038-.176-.167-.173a10.191,10.191,0,0,0-1.046.038,1.554,1.554,0,0,0-1.254,1.288,7.631,7.631,0,0,0-.033.813q0,5.662,0,11.324a1.669,1.669,0,0,0,.591,1.394,1.721,1.721,0,0,0,1.126.348c1.923,0,3.846,0,5.769,0a.782.782,0,0,1,.772.589.8.8,0,0,1-.385.9c-.05.029-.1.054-.154.081h-6.644a3.331,3.331,0,0,1-1.634-.788A3.268,3.268,0,0,1-962.4,329Z" transform="translate(962.4 -311.736)" fill="#fff"/>
    <path id="Path_17417" data-name="Path 17417" d="M-742.532,536.937a5.143,5.143,0,0,1-1.568-.481,4.594,4.594,0,0,1-2.56-3.6,4.69,4.69,0,0,1,2.83-4.974,4.734,4.734,0,0,1,5.784,1.756,4.725,4.725,0,0,1-2.11,6.95,5.684,5.684,0,0,1-1.288.347Zm.545-1.576a3.116,3.116,0,0,0,3.118-3.117,3.094,3.094,0,0,0-3.12-3.128,3.093,3.093,0,0,0-3.118,3.11A3.116,3.116,0,0,0-741.987,535.361Z" transform="translate(757.18 -517.03)" fill="#fff"/>
    <path id="Path_17418" data-name="Path 17418" d="M-877.084,464.533a.771.771,0,0,1-.808.781.771.771,0,0,1-.772-.8.771.771,0,0,1,.808-.781A.771.771,0,0,1-877.084,464.533Z" transform="translate(882.731 -456.353)" fill="#fff"/>
    <path id="Path_17419" data-name="Path 17419" d="M-807.484,464.518a.772.772,0,0,1-.792.8.771.771,0,0,1-.788-.782.772.772,0,0,1,.792-.8A.771.771,0,0,1-807.484,464.518Z" transform="translate(816.511 -456.354)" fill="#fff"/>
    <path id="Path_17420" data-name="Path 17420" d="M-739.464,464.5a.772.772,0,0,1,.808-.762.772.772,0,0,1,.771.818.772.772,0,0,1-.828.761A.774.774,0,0,1-739.464,464.5Z" transform="translate(750.292 -456.353)" fill="#fff"/>
    <path id="Path_17421" data-name="Path 17421" d="M-669.072,463.736a.771.771,0,0,1,.788.8.771.771,0,0,1-.792.778.771.771,0,0,1-.788-.8A.771.771,0,0,1-669.072,463.736Z" transform="translate(684.072 -456.354)" fill="#fff"/>
    <path id="Path_17422" data-name="Path 17422" d="M-877.883,533.336a.772.772,0,0,1,.8.791.771.771,0,0,1-.781.789.772.772,0,0,1-.8-.791A.771.771,0,0,1-877.883,533.336Z" transform="translate(882.731 -522.573)" fill="#fff"/>
    <path id="Path_17423" data-name="Path 17423" d="M-807.484,534.131a.771.771,0,0,1-.806.784.771.771,0,0,1-.774-.8.771.771,0,0,1,.806-.784A.771.771,0,0,1-807.484,534.131Z" transform="translate(816.511 -522.573)" fill="#fff"/>
    <path id="Path_17424" data-name="Path 17424" d="M-877.873,604.516a.772.772,0,0,1-.792-.8.771.771,0,0,1,.788-.782.772.772,0,0,1,.792.8A.771.771,0,0,1-877.873,604.516Z" transform="translate(882.731 -588.793)" fill="#fff"/>
    <path id="Path_17425" data-name="Path 17425" d="M-807.485,603.73a.772.772,0,0,1-.8.786.771.771,0,0,1-.776-.794.772.772,0,0,1,.8-.786A.771.771,0,0,1-807.485,603.73Z" transform="translate(816.512 -588.792)" fill="#fff"/>
    <path id="Path_17426" data-name="Path 17426" d="M-664.559,578.909c-.2,0-.4,0-.6,0a.765.765,0,0,1-.751-.759q-.008-.825,0-1.649a.767.767,0,0,1,.786-.764.769.769,0,0,1,.792.758c0,.213.01.427,0,.64-.008.158.054.208.2.2a1.2,1.2,0,0,1,.309.011.794.794,0,0,1,.614.884.781.781,0,0,1-.749.682C-664.158,578.912-664.359,578.909-664.559,578.909Z" transform="translate(680.315 -562.914)" fill="#fff"/>
  </g>
</svg>
