<svg xmlns="http://www.w3.org/2000/svg" width="22.943" height="19.525" viewBox="0 0 22.943 19.525">
  <g id="Group_5982" data-name="Group 5982" transform="translate(0)">
    <path id="Path_17374" data-name="Path 17374" d="M-863.2,330.516a3.48,3.48,0,0,1,1.091-1.983,3.244,3.244,0,0,1,2.071-.846c.574-.024,1.15,0,1.725-.009.175,0,.229.05.17.224a4.577,4.577,0,0,0-.213,1.5c0,2.158,0,4.316,0,6.474a1.623,1.623,0,0,0,.049.577c.072.193,0,.253-.192.252-.859,0-1.717,0-2.576-.006a2.393,2.393,0,0,1-.685-.09,1.973,1.973,0,0,1-1.368-1.332c-.021-.064-.049-.125-.074-.187Z" transform="translate(863.2 -317.177)" fill="#cacaca"/>
    <path id="Path_17375" data-name="Path 17375" d="M-539.3,334.952a2.364,2.364,0,0,1-.695,1.126,2.209,2.209,0,0,1-1.455.486c-.844.008-1.687,0-2.531,0-.257,0-.275-.022-.206-.27a1.633,1.633,0,0,0,.039-.444q0-3.416,0-6.832a4.2,4.2,0,0,0-.206-1.253c-.031-.1-.083-.221.1-.218a16.463,16.463,0,0,1,2.08.038,3.3,3.3,0,0,1,2.847,2.711.779.779,0,0,0,.027.085Z" transform="translate(562.244 -317.043)" fill="#cacaca"/>
    <path id="Path_17376" data-name="Path 17376" d="M-749.079,307.431q-2.173,0-4.346,0a2.977,2.977,0,0,1-.423-.03.633.633,0,0,1-.562-.553,2.481,2.481,0,0,1-.031-.378q0-3.114,0-6.228A3.361,3.361,0,0,1-752.5,297a3.483,3.483,0,0,1,1.565-.323c1.247-.006,2.494-.012,3.741,0a3.342,3.342,0,0,1,3.178,1.939,3.5,3.5,0,0,1,.324,1.587q.009,3.159,0,6.317a1.025,1.025,0,0,1-.135.6.857.857,0,0,1-.8.309Q-746.85,307.433-749.079,307.431Z" transform="translate(760.536 -287.907)" fill="#cacaca"/>
    <path id="Path_17377" data-name="Path 17377" d="M-721.844,144.267a4.021,4.021,0,0,1-4.02,4.014,4.021,4.021,0,0,1-3.984-4.071,3.988,3.988,0,0,1,4.008-3.947A3.989,3.989,0,0,1-721.844,144.267Z" transform="translate(737.318 -140.263)" fill="#cacaca"/>
    <path id="Path_17378" data-name="Path 17378" d="M-833.957,212.446a3.018,3.018,0,0,1-3-3.016,3,3,0,0,1,3.021-3,3.007,3.007,0,0,1,3,2.981A3.022,3.022,0,0,1-833.957,212.446Z" transform="translate(838.43 -202.725)" fill="#cacaca"/>
    <path id="Path_17379" data-name="Path 17379" d="M-584.168,212.526a3,3,0,0,1-2.988-3.031,2.957,2.957,0,0,1,3.009-2.979,2.983,2.983,0,0,1,3,3.014A3.021,3.021,0,0,1-584.168,212.526Z" transform="translate(602.618 -202.805)" fill="#cacaca"/>
  </g>
</svg>
