<svg xmlns="http://www.w3.org/2000/svg" width="18.936" height="21.501" viewBox="0 0 18.936 21.501">
  <g id="Group_5991" data-name="Group 5991" transform="translate(831.282 -270.75)">
    <g id="Group_5990" data-name="Group 5990" transform="translate(-831.282 270.75)">
      <path id="Path_17386" data-name="Path 17386" d="M-814.889,292.251h-16.377c-.005-.069-.015-.139-.015-.209q0-7.976,0-15.952c0-.273,0-.275.284-.275h4.471c.278,0,.284-.005.284-.281q0-2.246,0-4.492c0-.1.01-.2.015-.292h11.338c.005.091.015.181.015.272q0,1.617,0,3.233c0,.346,0,.346-.341.368a3.7,3.7,0,0,0-3.4,3.428,1.272,1.272,0,0,1-.369.866c-.371.371-.744.741-1.111,1.116-.1.1-.164.113-.28.017a2.47,2.47,0,0,0-3.451.147c-.524.515-1.036,1.042-1.562,1.555-.126.123-.125.2,0,.318q3.382,3.373,6.754,6.755c.147.148.238.13.374-.01.5-.517,1.018-1.02,1.523-1.534a2.467,2.467,0,0,0,.146-3.449c-.086-.1-.086-.171.008-.263.4-.4.8-.8,1.2-1.2a.437.437,0,0,1,.08-.067c.113-.068.241-.172.365-.115s.059.215.059.326q0,4.723,0,9.447C-814.873,292.056-814.883,292.153-814.889,292.251ZM-825.6,290.3a2.482,2.482,0,0,0,2.491-2.488,2.44,2.44,0,0,0-2.486-2.5,2.441,2.441,0,0,0-2.491,2.476A2.484,2.484,0,0,0-825.6,290.3Z" transform="translate(831.282 -270.75)" fill="#cacaca"/>
      <path id="Path_17387" data-name="Path 17387" d="M-613.36,361.171a2.532,2.532,0,0,1,2.521,2.239,2.528,2.528,0,0,1-2.1,2.8c-.261.046-.528.049-.786.119a2.179,2.179,0,0,0-1.01.57c-.379.383-.766.758-1.14,1.145-.126.131-.211.133-.34,0q-.74-.759-1.5-1.5c-.125-.122-.123-.2,0-.322.353-.339.694-.691,1.042-1.036a2.632,2.632,0,0,0,.782-1.732A2.474,2.474,0,0,1-613.36,361.171Zm.8,2.544a.449.449,0,0,0-.053-.091q-.338-.342-.68-.68c-.076-.076-.138-.03-.2.029-.207.207-.412.416-.621.62a.138.138,0,0,0,0,.23c.2.2.408.4.605.607.1.1.168.093.26,0,.193-.2.393-.395.589-.593A1.415,1.415,0,0,0-612.557,363.715Z" transform="translate(629.763 -356.106)" fill="#cacaca"/>
      <path id="Path_17388" data-name="Path 17388" d="M-695.489,447.431a1.181,1.181,0,0,1,.92.374c1.185,1.18,2.373,2.358,3.546,3.549a1.265,1.265,0,0,1-.014,1.843c-.244.251-.5.491-.74.745-.109.114-.185.1-.292,0q-2.542-2.549-5.092-5.091c-.111-.111-.107-.186,0-.292.262-.252.513-.516.773-.77A1.164,1.164,0,0,1-695.489,447.431Z" transform="translate(704.747 -437.537)" fill="#cacaca"/>
      <path id="Path_17389" data-name="Path 17389" d="M-826.3,273.618c0,.559-.007,1.119,0,1.678,0,.2-.08.232-.251.231-1.077-.005-2.153,0-3.23,0-.277,0-.3-.019-.236-.285a4.453,4.453,0,0,1,2.476-3.148,4.05,4.05,0,0,1,.972-.325c.247-.051.265-.034.266.216Q-826.3,272.8-826.3,273.618Z" transform="translate(830.113 -271.687)" fill="#cacaca"/>
      <path id="Path_17390" data-name="Path 17390" d="M-749.979,553.748a1.246,1.246,0,0,1-1.273,1.273,1.247,1.247,0,0,1-1.278-1.289,1.247,1.247,0,0,1,1.284-1.262A1.246,1.246,0,0,1-749.979,553.748Z" transform="translate(756.94 -536.696)" fill="#cacaca"/>
    </g>
  </g>
</svg>
