<svg xmlns="http://www.w3.org/2000/svg" width="19.31" height="19.31" viewBox="0 0 19.31 19.31">
  <path id="Path_10" data-name="Path 10" d="M12.146,6.246a.685.685,0,0,1-.72.46c-1.52-.007-3.04,0-4.56,0-.162,0-.162,0-.162.163,0,1.52,0,3.04,0,4.56a.685.685,0,0,1-.46.72H5.914a.685.685,0,0,1-.46-.72c.007-1.52,0-3.04,0-4.56,0-.163,0-.164-.161-.164H.665a.632.632,0,0,1-.624-.4.622.622,0,0,1,.576-.842c.347-.005.695,0,1.042,0H5.295c.162,0,.163,0,.163-.162q0-2.321,0-4.643a.629.629,0,0,1,.4-.612A.622.622,0,0,1,6.7.618c.005.355,0,.711,0,1.066q0,1.806,0,3.612c0,.161,0,.161.164.161,1.52,0,3.04,0,4.56,0a.684.684,0,0,1,.72.46Z" transform="translate(1.072 9.655) rotate(-45)" fill="#f1f1f1" stroke="#f1f1f1" stroke-width="1.5"/>
</svg>
