<svg xmlns="http://www.w3.org/2000/svg" width="27" height="23.995" viewBox="0 0 27 23.995">
  <path id="Icon_awesome-edit" data-name="Icon awesome-edit" d="M18.872,3.9,23.1,8.13a.458.458,0,0,1,0,.647L12.863,19.015l-4.35.483A.912.912,0,0,1,7.5,18.49l.483-4.35L18.225,3.9A.458.458,0,0,1,18.872,3.9Zm7.594-1.073L24.178.541a1.833,1.833,0,0,0-2.587,0L19.931,2.2a.458.458,0,0,0,0,.647l4.228,4.228a.458.458,0,0,0,.647,0l1.659-1.659a1.833,1.833,0,0,0,0-2.588ZM18,16.23V21H3V6H13.772a.576.576,0,0,0,.4-.164l1.875-1.875a.563.563,0,0,0-.4-.961H2.25A2.251,2.251,0,0,0,0,5.252v16.5A2.251,2.251,0,0,0,2.25,24h16.5A2.251,2.251,0,0,0,21,21.752v-7.4a.564.564,0,0,0-.961-.4l-1.875,1.875A.576.576,0,0,0,18,16.23Z" transform="translate(0 -0.007)" fill="#4eae4b"/>
</svg>
