<svg xmlns="http://www.w3.org/2000/svg" width="23.131" height="20.048" viewBox="0 0 23.131 20.048">
  <g id="Group_5988" data-name="Group 5988" transform="translate(1160.513 -255.482)">
    <g id="Group_5987" data-name="Group 5987" transform="translate(-1160.513 255.482)">
      <path id="Path_17383" data-name="Path 17383" d="M-1154.157,311.519q-2.021,0-4.041,0a2.3,2.3,0,0,1-2.313-2.3q0-5.039,0-10.079c0-.315.012-.322.277-.167q4.185,2.443,8.367,4.891a2.511,2.511,0,0,0,2.746.008q4.177-2.456,8.367-4.89c.282-.165.291-.16.291.166q0,2.393,0,4.787c0,.3,0,.3-.293.213a6.9,6.9,0,0,0-8.807,5.308,6.123,6.123,0,0,0-.094,1.767c.026.233-.057.3-.29.3C-1151.351,311.515-1152.754,311.519-1154.157,311.519Z" transform="translate(1160.513 -296.089)" fill="#cacaca"/>
      <path id="Path_17384" data-name="Path 17384" d="M-1145.255,255.483q3.86,0,7.72,0a2.239,2.239,0,0,1,1.86.982c.108.144.09.224-.069.317q-4.489,2.611-8.971,5.233a1.031,1.031,0,0,1-1.147-.009q-4.457-2.618-8.929-5.211c-.176-.1-.2-.187-.078-.35a2.247,2.247,0,0,1,1.847-.962Q-1149.14,255.478-1145.255,255.483Z" transform="translate(1155.305 -255.482)" fill="#cacaca"/>
      <path id="Path_17385" data-name="Path 17385" d="M-958,404.975a4.273,4.273,0,0,1-.084,1.146,2.239,2.239,0,0,1-1.806,1.639,2.216,2.216,0,0,1-2.233-.81.28.28,0,0,0-.393-.1,2.223,2.223,0,0,1-2.462-.421,2.212,2.212,0,0,1-.657-2.412,2.214,2.214,0,0,1,1.876-1.622,2.316,2.316,0,0,1,2.678,2.278,4.242,4.242,0,0,0,.036.959.756.756,0,0,0,.7.585.719.719,0,0,0,.722-.588,3.92,3.92,0,0,0-3.453-4.718,3.794,3.794,0,0,0-4.105,3.182,3.8,3.8,0,0,0,3.456,4.406c.12.008.239.025.359.037a.767.767,0,0,1,.739.836.754.754,0,0,1-.813.736,5.192,5.192,0,0,1-4.646-2.683,5.385,5.385,0,0,1,3.072-7.89,5.406,5.406,0,0,1,6.968,4.436C-958,404.3-958.016,404.639-958,404.975Zm-5.421-1.01a.754.754,0,0,0-.728.744.764.764,0,0,0,.742.734.765.765,0,0,0,.74-.736A.755.755,0,0,0-963.42,403.965Z" transform="translate(981.129 -390.058)" fill="#cacaca"/>
    </g>
  </g>
</svg>
