<svg xmlns="http://www.w3.org/2000/svg" width="24.553" height="16.753" viewBox="0 0 24.553 16.753">
  <g id="Group_4375" data-name="Group 4375" transform="translate(-1415.81 -1609.509)">
    <path id="Path_16786" data-name="Path 16786" d="M1439.864,1612.692c-.1,0-.2,0-.3,0h-22.819c-.507,0-.43,0-.432-.437,0-.666,0-1.333,0-2,0-.191.065-.254.253-.25.459.009.919,0,1.379,0H1439.5c.122,0,.244.009.367.013Z" transform="translate(0 0)" fill="#28304e" stroke="#28304e" stroke-width="1"/>
    <path id="Path_16787" data-name="Path 16787" d="M1485.177,1711.959h7.514c.36,0,.36,0,.361.349,0,.682-.006,1.364,0,2.045,0,.213-.055.3-.282.3q-7.594-.008-15.188,0c-.226,0-.287-.081-.284-.3.01-.7,0-1.394,0-2.091,0-.3,0-.3.313-.3Z" transform="translate(-57.082 -95.416)" fill="#28304e" stroke="#28304e" stroke-width="1"/>
    <path id="Path_16788" data-name="Path 16788" d="M1561.718,1813.846c.773,0,1.546.007,2.318,0,.234,0,.3.076.3.306-.013.711-.01,1.423,0,2.134,0,.191-.065.251-.253.251q-2.387-.008-4.774,0c-.19,0-.252-.067-.25-.254q.011-1.09,0-2.18c0-.19.066-.256.253-.255C1560.111,1813.85,1560.915,1813.846,1561.718,1813.846Z" transform="translate(-133.598 -190.77)" fill="#28304e" stroke="#28304e" stroke-width="1"/>
  </g>
</svg>
