<svg xmlns="http://www.w3.org/2000/svg" width="19.026" height="24.035" viewBox="0 0 19.026 24.035">
  <g id="Group_5984" data-name="Group 5984" transform="translate(569.151 -516.8)">
    <g id="Group_5983" data-name="Group 5983" transform="translate(-569.151 516.8)">
      <path id="Path_17380" data-name="Path 17380" d="M-567.065,733.24a2.693,2.693,0,0,1-1.515-.917,2.372,2.372,0,0,1-.568-1.481,9.228,9.228,0,0,1,1.774-5.67,9.336,9.336,0,0,1,3.967-3.2,9.264,9.264,0,0,1,3.479-.77,9.37,9.37,0,0,1,5.425,1.511,9.351,9.351,0,0,1,3.349,3.719,9.278,9.278,0,0,1,.985,3.425,4.159,4.159,0,0,1-.041,1.47,2.526,2.526,0,0,1-1.8,1.842l-.223.07Z" transform="translate(569.151 -709.205)" fill="#cacaca"/>
      <path id="Path_17381" data-name="Path 17381" d="M-493.219,516.8a5.741,5.741,0,0,1,1.823.578,5.311,5.311,0,0,1,2.888,4.261,5.417,5.417,0,0,1-3.158,5.474,5.5,5.5,0,0,1-5.808-.908,5.347,5.347,0,0,1-1.8-3.748,5.214,5.214,0,0,1,1.306-3.806,5.278,5.278,0,0,1,3.365-1.826.318.318,0,0,0,.066-.025Z" transform="translate(503.38 -516.8)" fill="#cacaca"/>
    </g>
  </g>
</svg>
