<svg xmlns="http://www.w3.org/2000/svg" width="28.216" height="26.542" viewBox="0 0 28.216 26.542">
  <g id="Group_7995" data-name="Group 7995" transform="translate(739.099 550.162)">
    <path id="Path_19080" data-name="Path 19080" d="M-470.756-550.162a2.8,2.8,0,0,1,.89.445,1.928,1.928,0,0,1,.484,2.481c-.332.719-.677,1.432-1.018,2.146-1.583,3.325-2.373,4.006-3.949,7.334-.115.243-.214.3-.468.169-.863-.45-1.735-.881-2.611-1.307-.2-.1-.256-.189-.162-.413,1.72-4.047,2.635-5.455,4.349-9.506a2.278,2.278,0,0,1,1.567-1.35Z" transform="translate(-241.748 0)" fill="#aaa6c9"/>
    <path id="Path_19081" data-name="Path 19081" d="M-728.04-465.767a.48.48,0,0,1-.1-.4q0-3.522,0-7.043c0-.687-.148-.834-.842-.834q-2.749,0-5.5,0c-.648,0-.813.165-.813.81q0,3.994,0,7.988c0,.662.129.793.779.794q2.777,0,5.555,0a.667.667,0,0,0,.614-.222c.077-.1.152-.094.209.032a3.769,3.769,0,0,0,2.257,1.909,6.772,6.772,0,0,0,6-.493,5.275,5.275,0,0,0,2.3-3.462,3.966,3.966,0,0,0,.043-1.982.7.7,0,0,1,.089-.467q.6-1.329,1.213-2.655a.977.977,0,0,1,.251-.344.537.537,0,0,1,.846.078,1.166,1.166,0,0,1,.228.753c0,2.605.02,5.211-.006,7.816a2.973,2.973,0,0,1-3.024,2.955q-9.062.006-18.124,0a2.982,2.982,0,0,1-3.037-3.054q-.006-9.019,0-18.037a3.02,3.02,0,0,1,3.07-3.1c1.088-.014,2.176,0,3.264,0,4.915,0,9.83.012,14.745-.013.737,0,1.059.417.732,1.115-.352.751-.67,1.519-.995,2.283-.072.171-.146.271-.353.2a.889.889,0,0,0-.285-.008h-15.69c-.1,0-.191,0-.286,0a.5.5,0,0,0-.506.513c-.007,1.641,0,3.283,0,4.924a.478.478,0,0,0,.419.5,2.085,2.085,0,0,0,.426.031h13.342c.407,0,.407,0,.252.389-.354.887-.354.887-1.3.887q-1.3,0-2.605,0c-.628,0-.786.16-.787.8,0,1.3,0,2.6,0,3.894a5.568,5.568,0,0,1-.283,1.411,1.907,1.907,0,0,1-.8.987.215.215,0,0,1-.068.052A1.868,1.868,0,0,0-728.04-465.767Z" transform="translate(0 -63.09)" fill="#aaa6c9"/>
    <path id="Path_19082" data-name="Path 19082" d="M-570.737-296.488a4.634,4.634,0,0,1-1.338,3.161,4.264,4.264,0,0,1-2.3,1.077,5.609,5.609,0,0,1-3.474-.292,3.9,3.9,0,0,1-.976-.642.9.9,0,0,1-.278-.8.559.559,0,0,1,.363-.474,4.24,4.24,0,0,0,1.139-.9,2.53,2.53,0,0,0,.576-1.288,3.509,3.509,0,0,1,2.794-2.768A2.969,2.969,0,0,1-570.737-296.488Z" transform="translate(-147.931 -234.236)" fill="#aaa6c9"/>
    <path id="Path_19083" data-name="Path 19083" d="M-495.79-351.343a1.573,1.573,0,0,1-.709-.317,3.469,3.469,0,0,0-1.153-.731,1.433,1.433,0,0,1-.3-.156c-.476-.363-.5-.482-.271-1.032.259-.615.523-1.228.773-1.847.086-.213.179-.274.4-.159q1.323.681,2.661,1.332c.2.1.239.2.141.4-.316.642-.636,1.282-.916,1.94-.11.259-.194.493-.5.545C-495.716-351.362-495.761-351.35-495.79-351.343Z" transform="translate(-222.577 -182.294)" fill="#aaa6c9"/>
  </g>
</svg>
