<svg xmlns="http://www.w3.org/2000/svg" width="22.482" height="27.231" viewBox="0 0 22.482 27.231">
  <g id="Group_7993" data-name="Group 7993" transform="translate(-176.804 -239.736)">
    <path id="Path_19068" data-name="Path 19068" d="M324.558,427.471c0-.765,0-1.531,0-2.3,0-.173.013-.373-.237-.381-.272-.009-.265.2-.265.386q0,2.264,0,4.528c0,.463,0,.464-.471.464-1.434,0-2.868-.007-4.3.006-.294,0-.407-.087-.457-.386-.319-1.912-.659-3.82-.994-5.728a.541.541,0,0,1,.114-.483c.085-.1.157-.205.235-.308.314-.413.314-.413.753-.155.356.21.426.195.7-.147,1.148-1.456,2.3-2.907,3.439-4.371a.461.461,0,0,1,.648-.171,6.094,6.094,0,0,1,3.714,4.462,25.44,25.44,0,0,1,.586,4.348q.068,1.258.114,2.517c.014.4-.011.416-.417.416-.927,0-1.854-.008-2.781.005-.285,0-.378-.1-.374-.377C324.566,429.023,324.559,428.247,324.558,427.471Z" transform="translate(-128.843 -163.211)" fill="#fff"/>
    <path id="Path_19069" data-name="Path 19069" d="M181.266,427.655c0-.755,0-1.51,0-2.265a.907.907,0,0,0-.03-.287.252.252,0,0,0-.273-.185.248.248,0,0,0-.218.211,1.745,1.745,0,0,0-.017.322c0,1.489-.006,2.977,0,4.465,0,.283-.069.409-.378.4-1.068-.014-2.136-.01-3.2,0-.245,0-.351-.081-.345-.338a34.018,34.018,0,0,1,.707-7,6.054,6.054,0,0,1,3.481-4.319c.438-.2.437-.2.739.183q1.682,2.135,3.367,4.267c.277.35.343.359.723.123.59-.366.568-.349.993.206a1.236,1.236,0,0,1,.226,1.074c-.331,1.8-.638,3.607-.939,5.413-.048.289-.155.4-.456.4q-1.99-.02-3.98,0c-.311,0-.414-.1-.406-.408C181.278,429.165,181.266,428.41,181.266,427.655Z" transform="translate(0 -163.364)" fill="#fff"/>
    <path id="Path_19070" data-name="Path 19070" d="M245.8,280.433c.334,0,.668,0,1,0a1.892,1.892,0,0,0,1.47-.628c.177-.2.306-.175.483-.022a7.613,7.613,0,0,1,1.685,2.231c.18.333.339.6.789.649.374.039.542.4.6.759a2,2,0,0,1-1.12,2.147c-.207.1-.227.274-.271.446a5.73,5.73,0,0,1-.991,2.158,4.167,4.167,0,0,1-7.135-.64,4.82,4.82,0,0,1-.519-1.556.474.474,0,0,0-.317-.4,1.792,1.792,0,0,1-.564-2.982.815.815,0,0,0,.207-.463,1.71,1.71,0,0,1,1.8-1.563C243.879,280.48,244.836,280.426,245.8,280.433Z" transform="translate(-58.044 -36.481)" fill="#fff"/>
    <path id="Path_19071" data-name="Path 19071" d="M244.074,244.818a.451.451,0,0,1-.135-.355c-.012-.118,0-.239-.015-.355a2.886,2.886,0,0,1,1.434-2.837,8.4,8.4,0,0,1,3.893-1.464,7.731,7.731,0,0,1,2.476.062,1.386,1.386,0,0,1,1.2.935,1.875,1.875,0,0,0,.754.9,3.741,3.741,0,0,1,.864.818,1.8,1.8,0,0,1,.067,2.247c-.41.626-.382.629-.778,0a6.835,6.835,0,0,0-1.675-1.992c-.461-.337-.605-.322-.96.108a1.68,1.68,0,0,1-1.389.56c-1.142,0-2.284-.015-3.424.082a5.064,5.064,0,0,0-1.05.17A1.924,1.924,0,0,0,244.074,244.818Z" transform="translate(-61.3)" fill="#fff"/>
    <path id="Path_19072" data-name="Path 19072" d="M282.813,401.033c0,.1-.07.158-.134.215-.731.652-1.467,1.3-2.193,1.957-.158.143-.268.117-.409-.017q-1.03-.98-2.072-1.947a.307.307,0,0,1-.078-.4,3.97,3.97,0,0,0,.366-1.658c0-.208.079-.235.259-.157a4.5,4.5,0,0,0,3.548.087c.131-.052.271-.094.273.117a4.323,4.323,0,0,0,.415,1.714A.544.544,0,0,1,282.813,401.033Z" transform="translate(-92.359 -145.506)" fill="#fff"/>
    <path id="Path_19073" data-name="Path 19073" d="M291.692,489.627c-.388,0-.777,0-1.165,0-.229,0-.3-.083-.26-.316q.487-2.769.952-5.541c.051-.308.222-.341.475-.333.235.008.426-.013.48.318.3,1.828.628,3.652.941,5.478.066.384.051.392-.356.394-.356,0-.712,0-1.068,0Z" transform="translate(-103.661 -222.671)" fill="#fff"/>
    <path id="Path_19074" data-name="Path 19074" d="M239.038,413.465a.785.785,0,0,1,.792.288c1.035.991,2.082,1.97,3.131,2.947.159.148.133.239-.035.345q-.78.491-1.553.992a.21.21,0,0,1-.328-.057q-1.62-2.058-3.249-4.108c-.141-.178-.067-.239.114-.274A5.014,5.014,0,0,1,239.038,413.465Z" transform="translate(-55.661 -158.712)" fill="#fff"/>
    <path id="Path_19075" data-name="Path 19075" d="M317.247,413.721c-.041.061-.084.136-.137.2q-1.582,2-3.163,4.009c-.12.152-.216.206-.4.085-.5-.334-1.014-.655-1.527-.972-.18-.112-.182-.2-.027-.34q1.767-1.564,3.526-3.135a.425.425,0,0,1,.289-.129,6.493,6.493,0,0,1,1.282.13C317.161,413.586,317.245,413.6,317.247,413.721Z" transform="translate(-123.422 -158.715)" fill="#fff"/>
    <path id="Path_19076" data-name="Path 19076" d="M295.04,459.727c-.171-.018-.381.08-.518-.077a4.006,4.006,0,0,1-.579-.85c-.048-.1.053-.153.124-.2.243-.158.491-.309.733-.47a.267.267,0,0,1,.327.013c.3.193.595.387.9.573.154.094.185.194.062.335a1.746,1.746,0,0,0-.194.257A.713.713,0,0,1,295.04,459.727Z" transform="translate(-107.019 -199.503)" fill="#fff"/>
  </g>
</svg>
