<svg xmlns="http://www.w3.org/2000/svg" width="27" height="27" viewBox="0 0 27 27">
  <g id="Group_8040" data-name="Group 8040" transform="translate(-0.228 -0.228)">
    <circle id="Ellipse_111" data-name="Ellipse 111" cx="13.5" cy="13.5" r="13.5" transform="translate(0.228 0.228)" fill="#f60"/>
    <path id="Path_18986" data-name="Path 18986" d="M101.6,208.78c.187,0,.375-.007.562-.008.478,0,.956,0,1.435,0a.3.3,0,0,1,.225.091,19.082,19.082,0,0,1,2.1,2.367c.095.124.1.124.172-.014a35.864,35.864,0,0,1,2.019-3.4,29.757,29.757,0,0,1,2.28-2.95c.106-.121.212-.241.315-.363a.194.194,0,0,1,.162-.076c.64,0,1.28,0,1.92,0,.032,0,.075-.014.092.018s-.018.069-.038.1c-.648.939-1.279,1.889-1.877,2.862a36.629,36.629,0,0,0-2.913,5.8c-.256.654-.5,1.312-.745,1.971a.158.158,0,0,1-.177.123c-.39,0-.78-.006-1.17,0a.2.2,0,0,1-.2-.12c-.524-.917-1.037-1.841-1.582-2.746A28.455,28.455,0,0,0,101.6,208.8Z" transform="translate(-93.052 -195.878)" fill="#fff"/>
  </g>
</svg>
