<svg id="Group_7992" data-name="Group 7992" xmlns="http://www.w3.org/2000/svg" width="18.741" height="25.106" viewBox="0 0 18.741 25.106">
  <g id="Group_7248" data-name="Group 7248" transform="translate(0)">
    <path id="Path_18050" data-name="Path 18050" d="M99.68,403.93c0,.693-.019,1.388.006,2.08a1.668,1.668,0,0,1-.708,1.454,7.822,7.822,0,0,1-2.693,1.255,19.519,19.519,0,0,1-4.246.7,25.839,25.839,0,0,1-3.661-.012A15.777,15.777,0,0,1,82.5,408a4.065,4.065,0,0,1-1.139-.809,1.4,1.4,0,0,1-.409-1.009q0-2.288,0-4.577c0-.083-.031-.195.065-.233.077-.03.135.061.2.108a8.971,8.971,0,0,0,3.289,1.5,21.749,21.749,0,0,0,4.8.645,25.532,25.532,0,0,0,5.664-.383,10.937,10.937,0,0,0,4.095-1.506c.13-.086.251-.185.378-.275.054-.038.1-.117.176-.084s.057.119.058.186c0,.269,0,.537,0,.806Q99.68,403.15,99.68,403.93Z" transform="translate(-80.946 -390.328)" fill="#aaa6c9"/>
    <path id="Path_18051" data-name="Path 18051" d="M80.938,314.132q0-1.053,0-2.106c0-.076-.014-.168.067-.21.048-.025.1.023.138.055a9.093,9.093,0,0,0,3.575,1.606,20.323,20.323,0,0,0,3.8.551,28.682,28.682,0,0,0,4.439-.064,15.669,15.669,0,0,0,5.1-1.233,6.484,6.484,0,0,0,1.353-.819c.057-.045.11-.133.2-.085.067.037.054.123.054.191q0,2.106,0,4.213a1.537,1.537,0,0,1-.693,1.221,7.768,7.768,0,0,1-2.741,1.274,19.518,19.518,0,0,1-4.273.69,23.727,23.727,0,0,1-6.969-.528,9.77,9.77,0,0,1-2.942-1.146,4.806,4.806,0,0,1-.541-.4,1.535,1.535,0,0,1-.569-1.281C80.95,315.415,80.938,314.773,80.938,314.132Z" transform="translate(-80.931 -306.98)" fill="#aaa6c9"/>
    <path id="Path_18052" data-name="Path 18052" d="M90.574,248.49a22.29,22.29,0,0,1-6.461-.884,6.541,6.541,0,0,1-2.2-1.089,2.226,2.226,0,0,1-.395-.412,1.181,1.181,0,0,1-.016-1.493,3.506,3.506,0,0,1,1.444-1.075,13.478,13.478,0,0,1,3.51-1.007,25.236,25.236,0,0,1,5.412-.294,18.49,18.49,0,0,1,5.826,1.067,5.305,5.305,0,0,1,1.564.862,1.449,1.449,0,0,1,.659,1.358,1.58,1.58,0,0,1-.635.981,6.889,6.889,0,0,1-2.493,1.19,19.188,19.188,0,0,1-4.009.7C92.045,248.446,91.311,248.491,90.574,248.49Z" transform="translate(-81.221 -242.204)" fill="#aaa6c9"/>
    <path id="Path_18053" data-name="Path 18053" d="M99.632,499.489c0,.563-.015,1.127,0,1.69a1.646,1.646,0,0,1-.716,1.424,7.894,7.894,0,0,1-2.745,1.266,19.869,19.869,0,0,1-4.3.688,24.08,24.08,0,0,1-6.46-.426A10.631,10.631,0,0,1,82.04,502.9a3.975,3.975,0,0,1-.584-.433A1.588,1.588,0,0,1,80.9,501.2c.012-1.178,0-2.357.005-3.536,0-.092-.04-.216.054-.264s.164.069.235.123A9.09,9.09,0,0,0,84.467,499a21.72,21.72,0,0,0,4.751.641,25.512,25.512,0,0,0,5.715-.383,10.908,10.908,0,0,0,4.093-1.509c.13-.086.251-.186.378-.275.053-.037.1-.119.176-.075s.052.123.052.19Q99.633,498.54,99.632,499.489Z" transform="translate(-80.899 -479.5)" fill="#aaa6c9"/>
  </g>
</svg>
