<svg xmlns="http://www.w3.org/2000/svg" width="26.858" height="26.865" viewBox="0 0 26.858 26.865">
  <g id="Group_7997" data-name="Group 7997" transform="translate(994.745 224.383)">
    <path id="Union_2" data-name="Union 2" d="M-11507.471,17712.982a5.735,5.735,0,0,1-5.686-4.676,4.646,4.646,0,0,1-.089-.895c0-4.908,0-9.82,0-14.727a5.739,5.739,0,0,1,4.89-5.5,6.856,6.856,0,0,1,.894-.053c4.761,0,9.521.021,14.283-.01a5.8,5.8,0,0,1,5.694,4.672,4.622,4.622,0,0,1,.093.889c0,4.912,0,9.824,0,14.732a5.742,5.742,0,0,1-4.9,5.521,8.09,8.09,0,0,1-.925.049h-7.1l-4.769,0Q-11506.279,17712.984-11507.471,17712.982Z" transform="translate(10519 -17911.002)" fill="#aaa6c9" stroke="rgba(0,0,0,0)" stroke-width="1"/>
    <path id="Path_19095" data-name="Path 19095" d="M5.4-11v4.029H1.476v2.534H5.4V-.406H8.143V-4.435h3.925V-6.969H8.143V-11Z" transform="translate(-987.817 -204.979)" fill="#fff"/>
  </g>
</svg>
