<svg xmlns="http://www.w3.org/2000/svg" width="21.737" height="20.879" viewBox="0 0 21.737 20.879">
  <path id="Path_17353" data-name="Path 17353" d="M-974.987,556.07c0-1.28-.014-2.561.007-3.841.007-.416-.111-.612-.551-.562a5.155,5.155,0,0,1-.649,0,1.281,1.281,0,0,1-1.322-.829,1.353,1.353,0,0,1,.36-1.534q1.975-1.808,3.957-3.609,2.683-2.437,5.37-4.868a1.408,1.408,0,0,1,2.153-.022q4.507,4.089,9.015,8.177a1.721,1.721,0,0,1,.78,1.458,1.3,1.3,0,0,1-1.159,1.221c-.072.007-.144.005-.216.007-1.224.026-1.224.026-1.224,1.231q0,3.381,0,6.763c0,1.056-.464,1.525-1.5,1.528-.938,0-1.876.007-2.813,0a1.27,1.27,0,0,1-1.379-1.38c-.008-1.425,0-2.849,0-4.274,0-1.235-.467-1.695-1.7-1.7-.6,0-1.19-.006-1.785,0-1.139.012-1.62.484-1.627,1.615-.009,1.425,0,2.849,0,4.274a1.294,1.294,0,0,1-1.457,1.467c-.956,0-1.912.008-2.868,0a1.269,1.269,0,0,1-1.372-1.388C-974.992,558.559-974.987,557.315-974.987,556.07Z" transform="translate(977.597 -540.317)" fill="#cacaca"/>
</svg>
