<svg xmlns="http://www.w3.org/2000/svg" width="23.463" height="20.134" viewBox="0 0 23.463 20.134">
  <g id="Group_6030" data-name="Group 6030" transform="translate(-0.774)">
    <path id="Path_17427" data-name="Path 17427" d="M-1141.87,418.1c3.1,0,6.2.013,9.3-.009a1.147,1.147,0,0,1,1.2,1.2c-.013,3.621-.006,7.242-.006,10.862,0,.318,0,.317-.327.257a3.213,3.213,0,0,0-.84-.071c-.271.021-.345-.087-.343-.35.01-2.167.006-4.334.007-6.5,0-1.2,0-2.4.006-3.594,0-.247-.062-.334-.324-.334q-8.682.01-17.364,0c-.276,0-.34.091-.339.35.008,1.6.021,3.207,0,4.81-.033,2.123-.015,4.246-.025,6.369,0,.448,0,.448.436.448q7.255,0,14.51,0c.125,0,.3-.07.365.06s-.112.2-.183.293a4.048,4.048,0,0,0-.861,2.474c0,.35-.006.356-.354.356q-7.056,0-14.113,0a1.161,1.161,0,0,1-1.271-1.269q.028-7.07,0-14.139a1.163,1.163,0,0,1,1.224-1.224C-1148.072,418.112-1144.971,418.1-1141.87,418.1Zm-.154,15.38a.5.5,0,0,0,.523-.45.5.5,0,0,0-.455-.516.469.469,0,0,0-.512.448A.478.478,0,0,0-1142.024,433.477Z" transform="translate(1153.171 -418.085)" fill="#fff"/>
    <path id="Path_17428" data-name="Path 17428" d="M-1124.85,604.963a3.706,3.706,0,0,1-.878-5.8,3.68,3.68,0,0,1,5.332.117,3.707,3.707,0,0,1-.991,5.681h.819c.206,0,.429-.018.447.277.013.205-.115.286-.436.287h-21.088c-.106,0-.212,0-.317,0a.262.262,0,0,1-.265-.274.268.268,0,0,1,.263-.279,2.1,2.1,0,0,1,.264-.006c1.392,0,2.784,0,4.175,0a.342.342,0,0,0,.394-.276,1.5,1.5,0,0,1,1.137-1.037c.2-.047.263-.133.252-.324s.009-.406-.005-.607.083-.28.28-.276c.308.007.616,0,.925,0h4.809c.415,0,.415,0,.416.407a.213.213,0,0,1,0,.026c-.051.436-.02.766.538.9a1.306,1.306,0,0,1,.858.971c.031.1.042.21.192.21C-1126.781,604.962-1125.833,604.963-1124.85,604.963Zm1.743-5.638a2.359,2.359,0,0,0-2.407,2.381,2.373,2.373,0,0,0,2.376,2.417,2.369,2.369,0,0,0,2.419-2.4A2.359,2.359,0,0,0-1123.107,599.325Z" transform="translate(1143.717 -585.395)" fill="#fff"/>
    <path id="Path_17429" data-name="Path 17429" d="M-1091.378,510.409h-6.052a1.784,1.784,0,0,1-.316-.015c-.162-.029-.285-.121-.272-.3a.292.292,0,0,1,.3-.277c.149-.011.3-.006.449-.007.36,0,.361,0,.361-.372q0-1.348,0-2.7c0-.372,0-.372.363-.373.238,0,.477.013.713,0s.322.068.319.313c-.012.925,0,1.85,0,2.775,0,.356,0,.356.368.357.66,0,.66,0,.66-.649,0-.52.005-1.04,0-1.559,0-.2.064-.291.275-.282.281.012.564.013.845,0,.225-.011.288.087.285.3-.009.634,0,1.269-.007,1.9,0,.211.055.294.281.295.749,0,.749.01.749-.748,0-1.233.007-2.467-.006-3.7,0-.267.084-.367.345-.352.246.014.494.011.74,0s.324.08.323.323c-.009,1.321,0,2.643,0,3.964a2.3,2.3,0,0,1,0,.238c-.021.209.072.271.276.273.756.007.756.013.756-.739,0-.731.008-1.462,0-2.193,0-.23.067-.318.3-.3a7.164,7.164,0,0,0,.792,0c.21-.01.274.076.272.278-.007.881.005,1.762-.008,2.643,0,.244.071.319.314.316.722-.008.722,0,.722-.726q0-2.352,0-4.7c0-.486,0-.486.5-.486.194,0,.388.01.581,0,.236-.015.323.071.321.318-.009,1.691-.006,3.383,0,5.074,0,.587-.073.515.52.522.1,0,.194,0,.29.006.177.018.306.1.306.3s-.135.274-.309.293a2.661,2.661,0,0,1-.29.007Z" transform="translate(1102.625 -497.846)" fill="#fff"/>
    <path id="Path_17430" data-name="Path 17430" d="M-1075.416,455.561c-.138-.009-.215-.01-.292-.02a.277.277,0,0,1-.28-.263.265.265,0,0,1,.238-.3,5.561,5.561,0,0,1,1.078-.053c.178,0,.257.148.268.308.024.324.042.65.044.975a.261.261,0,0,1-.259.28.276.276,0,0,1-.3-.238,2.055,2.055,0,0,1-.028-.285c-.133.048-.188.162-.266.246-.286.311-.566.628-.853.938a.451.451,0,0,0-.125.45.9.9,0,0,1-.772,1.113.9.9,0,0,1-1.034-.9.349.349,0,0,0-.178-.324,3.184,3.184,0,0,1-.323-.229c-.24-.189-.471-.357-.8-.156a.525.525,0,0,1-.439,0,.277.277,0,0,0-.346.092c-.308.338-.624.67-.943,1a.264.264,0,0,0-.064.284.918.918,0,0,1-.714,1.176.92.92,0,0,1-1.075-.831.334.334,0,0,0-.249-.32,1.426,1.426,0,0,1-.287-.133.392.392,0,0,0-.478.016.908.908,0,0,1-1.1-.11.933.933,0,0,1-.212-1.042.943.943,0,0,1,.914-.551.935.935,0,0,1,.831.735c.029.123,0,.28.142.351.22.108.445.208.671.3.022.01.068-.017.093-.038a.957.957,0,0,1,.873-.17.242.242,0,0,0,.253-.094c.326-.345.65-.693.982-1.034a.263.263,0,0,0,.058-.288.856.856,0,0,1,.328-.96.858.858,0,0,1,.992-.081.867.867,0,0,1,.478.9.259.259,0,0,0,.12.268c.131.09.266.174.387.276.214.18.418.283.695.1a.668.668,0,0,1,.541-.029.247.247,0,0,0,.284-.07C-1076.2,456.431-1075.828,456.02-1075.416,455.561Z" transform="translate(1090.787 -452.33)" fill="#fff"/>
    <path id="Path_17433" data-name="Path 17433" d="M-883.877,623.929c0-.214.065-.341.247-.361a.272.272,0,0,1,.316.248.632.632,0,0,0,.076.194.284.284,0,0,0,.318.136.3.3,0,0,0,.251-.271.3.3,0,0,0-.167-.305.754.754,0,0,0-.279-.072.86.86,0,0,1-.733-.637.856.856,0,0,1,.308-.944.571.571,0,0,0,.289-.379.247.247,0,0,1,.276-.2.249.249,0,0,1,.263.216.49.49,0,0,0,.253.341.8.8,0,0,1,.362.7.274.274,0,0,1-.236.3.273.273,0,0,1-.314-.221.613.613,0,0,0-.092-.244.3.3,0,0,0-.3-.129.341.341,0,0,0-.263.269.3.3,0,0,0,.137.295.461.461,0,0,0,.248.076.91.91,0,0,1,.8.665.89.89,0,0,1-.392.986.344.344,0,0,0-.19.26.282.282,0,0,1-.279.269.27.27,0,0,1-.289-.254.416.416,0,0,0-.225-.3A.829.829,0,0,1-883.877,623.929Z" transform="translate(903.585 -607.015)" fill="#fff"/>
  </g>
</svg>
