<svg xmlns="http://www.w3.org/2000/svg" width="19.082" height="9.537" viewBox="0 0 19.082 9.537">
  <g id="Group_4647" data-name="Group 4647" transform="translate(13 0)">
    <g id="Group_4646" data-name="Group 4646" transform="translate(-13 0)">
      <path id="Path_16973" data-name="Path 16973" d="M-368.4-5.958a.63.63,0,0,0-.7-.477h-15.147a.209.209,0,0,1,.081-.111q1.117-1.124,2.236-2.247a.646.646,0,0,0,.185-.721.49.49,0,0,0-.086-.156,3.825,3.825,0,0,0-.488-.489.619.619,0,0,0-.793,0,1.369,1.369,0,0,0-.116.1l-4,4a.655.655,0,0,0-.16.837.919.919,0,0,0,.154.19q2.009,2.009,4.018,4.017a.651.651,0,0,0,1.011,0c.119-.118.24-.234.349-.361a.607.607,0,0,0,.009-.807,1.58,1.58,0,0,0-.12-.131L-384.2-4.516a.26.26,0,0,1-.081-.1c.042-.033.092-.017.137-.017,2.471,0,12.58,0,15.05,0a.671.671,0,0,0,.574-.261,1.134,1.134,0,0,0,.116-.24Z" transform="translate(387.486 10.301)" fill="#f60"/>
    </g>
  </g>
</svg>
