<svg xmlns="http://www.w3.org/2000/svg" width="21.165" height="21.153" viewBox="0 0 21.165 21.153">
  <g id="Group_5986" data-name="Group 5986" transform="translate(646.955 -234.485)">
    <g id="Group_5985" data-name="Group 5985" transform="translate(-646.955 234.485)">
      <path id="Path_17382" data-name="Path 17382" d="M-636.363,234.485A10.6,10.6,0,0,1-625.791,245.1a10.639,10.639,0,0,1-10.636,10.539,10.64,10.64,0,0,1-10.528-10.713A10.6,10.6,0,0,1-636.363,234.485Zm-.01,9.848a3.117,3.117,0,0,0,3.136-3.137,3.075,3.075,0,0,0-3.136-3.147,3.076,3.076,0,0,0-3.137,3.147A3.119,3.119,0,0,0-636.373,244.334Zm-4.973,6.309c.33,0,.469-.1.693-.41a4.993,4.993,0,0,1,6.944-1.587,4.792,4.792,0,0,1,1.668,1.654.667.667,0,0,0,.947.256.685.685,0,0,0,.188-.982A6.455,6.455,0,0,0-636.4,246.5a5.594,5.594,0,0,0-3.3.967,7.138,7.138,0,0,0-2.152,2.135.65.65,0,0,0-.026.708A.581.581,0,0,0-641.346,250.643Z" transform="translate(646.955 -234.485)" fill="#cacaca"/>
    </g>
  </g>
</svg>
