<svg xmlns="http://www.w3.org/2000/svg" width="41.271" height="46.464" viewBox="0 0 41.271 46.464">
  <path id="Path_19090" data-name="Path 19090" d="M130.3-975.75h.182c.192.12.38.247.576.36q8.775,5.1,17.555,10.185a.846.846,0,0,1,.505.817q-.016,10.308-.009,20.617c0,.575-.062.609-.552.335-2.088-1.166-4.169-2.344-6.264-3.5a.848.848,0,0,1-.5-.859c.017-2.589.011-5.177.006-7.765,0-.632-.193-.738-.738-.424-2.741,1.579-5.477,3.166-8.223,4.736a1.1,1.1,0,0,0-.612,1.064c.012,3.164,0,6.328.007,9.491,0,.745.179.844.829.468,2.2-1.273,4.4-2.542,6.6-3.825a.755.755,0,0,1,.871-.019c2.114,1.242,4.24,2.463,6.36,3.695.456.265.458.318.013.575q-8.984,5.19-17.966,10.381a.729.729,0,0,1-.833-.005q-8.931-5.19-17.871-10.365c-.513-.3-.512-.325-.013-.615,2.081-1.208,4.167-2.409,6.24-3.631a.819.819,0,0,1,.952-.009c2.206,1.295,4.424,2.569,6.64,3.845.555.319.677.243.677-.408,0-3.194-.013-6.388.012-9.582a1.213,1.213,0,0,0-.7-1.193c-2.668-1.524-5.324-3.069-7.985-4.6-.672-.388-.9-.259-.9.511,0,2.528-.01,5.056.008,7.584a.87.87,0,0,1-.5.862c-2.061,1.182-4.111,2.384-6.165,3.579-.1.061-.211.119-.317.177-.181.1-.291.048-.313-.159a3.479,3.479,0,0,1-.013-.363q0-10.241-.01-20.481a.974.974,0,0,1,.565-.966q6.8-3.883,13.586-7.8c1.56-.9,3.113-1.81,4.669-2.715h.182c.011.166.031.331.031.5,0,2.436-.009,4.872.011,7.307a.86.86,0,0,1-.5.858c-2.206,1.261-4.4,2.542-6.6,3.818-.626.364-.626.56,0,.924,2.71,1.569,5.425,3.128,8.128,4.71a1.187,1.187,0,0,0,1.346-.014c2.269-1.334,4.554-2.641,6.832-3.958.485-.28.973-.555,1.449-.848.359-.221.359-.456.014-.695-.161-.112-.336-.2-.506-.3-2.08-1.207-4.155-2.424-6.247-3.611a.954.954,0,0,1-.548-.972c.027-1.467.006-2.935.011-4.4C130.272-973.543,130.287-974.646,130.3-975.75Z" transform="translate(-107.844 975.75)" fill="#07aea9"/>
</svg>
