<svg xmlns="http://www.w3.org/2000/svg" width="21.688" height="21.7" viewBox="0 0 21.688 21.7">
  <g id="Group_5975" data-name="Group 5975" transform="translate(1316.327 -529.384)">
    <g id="Group_5974" data-name="Group 5974" transform="translate(-1316.327 529.384)">
      <path id="Path_17359" data-name="Path 17359" d="M-1316.327,569.493a3.109,3.109,0,0,1,1.1-1.9c.437-.4.841-.836,1.263-1.252a1.551,1.551,0,0,1,2.407-.055c.923.883,1.838,1.776,2.7,2.721a1.451,1.451,0,0,1,.034,2c-.5.6-1.1,1.117-1.644,1.678-.265.271-.274.339-.114.688a12.071,12.071,0,0,0,2.2,3.093,14.781,14.781,0,0,0,3.325,2.765c.261.154.536.284.807.42s.348.118.562-.095q.736-.732,1.466-1.468a2.052,2.052,0,0,1,.665-.479,1.4,1.4,0,0,1,1.559.263c.975.88,1.9,1.815,2.793,2.774a1.462,1.462,0,0,1,.01,2.241,21.429,21.429,0,0,1-1.933,1.925,2.563,2.563,0,0,1-1.647.574,8.515,8.515,0,0,1-3.588-.786,19.96,19.96,0,0,1-4.592-2.726,21.176,21.176,0,0,1-6.783-8.953,10.356,10.356,0,0,1-.585-2.2Z" transform="translate(1316.327 -563.691)" fill="#cacaca"/>
      <path id="Path_17360" data-name="Path 17360" d="M-1121.852,529.384a14.444,14.444,0,0,1,2.466.66,12.3,12.3,0,0,1,3.928,2.405,12.434,12.434,0,0,1,2.685,3.459,12.416,12.416,0,0,1,1.209,3.506c.021.111-.006.172-.127.192-.465.077-.93.16-1.395.244-.185.033-.191-.108-.212-.219a10.462,10.462,0,0,0-.533-1.846,10.612,10.612,0,0,0-2.712-3.964,10.562,10.562,0,0,0-4.864-2.568c-.247-.057-.5-.1-.746-.145-.085-.017-.165-.032-.147-.158.075-.522.123-1.049.235-1.565Z" transform="translate(1133.245 -529.384)" fill="#cacaca"/>
      <path id="Path_17361" data-name="Path 17361" d="M-1126.151,607.569c.057-.413.122-.88.185-1.347.016-.121.07-.165.2-.143a7.374,7.374,0,0,1,4.27,2.274,7.359,7.359,0,0,1,1.886,3.654c.033.164.016.241-.175.266-.426.056-.849.131-1.27.216-.17.034-.236,0-.273-.176a5.626,5.626,0,0,0-1.776-3.1,5.635,5.635,0,0,0-2.848-1.393C-1126.061,607.8-1126.192,607.8-1126.151,607.569Z" transform="translate(1136.885 -601.747)" fill="#cacaca"/>
    </g>
  </g>
</svg>
