<svg id="Group_6022" data-name="Group 6022" xmlns="http://www.w3.org/2000/svg" width="20.715" height="20.715" viewBox="0 0 20.715 20.715">
  <path id="Path_17414" data-name="Path 17414" d="M-1104.285,192.207a13.483,13.483,0,0,1-.287,1.669,10.508,10.508,0,0,1-1.407,3.184.841.841,0,0,1-1.176.3.839.839,0,0,1-.226-1.207,8.546,8.546,0,0,0,1.311-3.28,8.489,8.489,0,0,0-1.7-6.851,8.409,8.409,0,0,0-5.714-3.3,8.688,8.688,0,0,0-9.11,5.068,8.667,8.667,0,0,0-.754,3.245,8.7,8.7,0,0,0,7.035,8.87,8.547,8.547,0,0,0,6.008-.994,1.193,1.193,0,0,1,.479-.2.82.82,0,0,1,.9.555.829.829,0,0,1-.4,1,10.428,10.428,0,0,1-2.869,1.177,14.714,14.714,0,0,1-1.61.27h-1.74a.391.391,0,0,0-.077-.023,9.845,9.845,0,0,1-4.005-1.221,10.3,10.3,0,0,1-5.115-6.635,13.06,13.06,0,0,1-.271-1.588v-1.78c.049-.332.091-.665.148-1a10.4,10.4,0,0,1,7.731-8.2,15.261,15.261,0,0,1,1.588-.27h1.78c.332.049.665.091,1,.148a10.4,10.4,0,0,1,8.2,7.731,15.878,15.878,0,0,1,.27,1.589Z" transform="translate(1125 -181)" fill="#fff"/>
  <path id="Path_17415" data-name="Path 17415" d="M-974.18,328.714c0,.425.009.85,0,1.274-.006.191.047.256.247.254.863-.01,1.725-.006,2.588,0a.814.814,0,0,1,.8.622.837.837,0,0,1-.447.949.852.852,0,0,1-.392.076c-.849,0-1.7,0-2.548,0-.181,0-.246.045-.244.237.01.869.006,1.739,0,2.609a.816.816,0,0,1-.674.794.836.836,0,0,1-.939-.561.946.946,0,0,1-.032-.3c0-.849,0-1.7,0-2.548,0-.177-.05-.232-.229-.231-.869.008-1.739.005-2.609,0a.818.818,0,0,1-.8-.665.83.83,0,0,1,.57-.952.925.925,0,0,1,.28-.028c.856,0,1.712,0,2.568,0,.166,0,.222-.049.22-.218-.007-.876-.005-1.753,0-2.629a.81.81,0,0,1,.693-.795.827.827,0,0,1,.93.6,2.172,2.172,0,0,1,.02.524C-974.178,328.053-974.18,328.384-974.18,328.714Z" transform="translate(985.361 -320.703)" fill="#fff"/>
</svg>
