<svg xmlns="http://www.w3.org/2000/svg" width="20.234" height="18.605" viewBox="0 0 20.234 18.605">
  <g id="Group_5994" data-name="Group 5994" transform="translate(913 -245.61)">
    <g id="Group_5993" data-name="Group 5993" transform="translate(-913 245.61)">
      <path id="Path_17391" data-name="Path 17391" d="M-913,258.469V247.127c.035-.106.065-.214.1-.318a1.849,1.849,0,0,1,1.682-1.2q8.332,0,16.663,0a1.522,1.522,0,0,1,.466.073,1.907,1.907,0,0,1,1.32,1.444v11.342c-.092,0-.183.014-.275.014h-19.683C-912.817,258.483-912.908,258.474-913,258.469Zm10.106-2.106a4.217,4.217,0,0,0,4.256-4.233,4.248,4.248,0,0,0-4.243-4.252,4.265,4.265,0,0,0-4.251,4.229A4.239,4.239,0,0,0-902.895,256.363Z" transform="translate(913 -245.61)" fill="#cacaca"/>
      <path id="Path_17392" data-name="Path 17392" d="M-892.766,600v.711a1.893,1.893,0,0,1-2.083,1.517h-7.071c-.059,0-.119,0-.178,0-.125-.006-.18.051-.178.177,0,.23,0,.461,0,.691,0,.287,0,.287.284.287,1.159,0,2.318,0,3.476,0a.613.613,0,0,1,.523.224.58.58,0,0,1,.076.648.575.575,0,0,1-.553.345h-3.575q-2.617,0-5.234,0a.6.6,0,0,1-.569-.876.588.588,0,0,1,.577-.339c1.179,0,2.357,0,3.535,0,.193,0,.259-.062.247-.252s0-.408,0-.612c0-.295,0-.3-.3-.3h-7.308a1.767,1.767,0,0,1-.393-.023A1.909,1.909,0,0,1-913,600.711V600Z" transform="translate(913 -585.995)" fill="#cacaca"/>
      <path id="Path_17393" data-name="Path 17393" d="M-733.031,342.456h-.533c-.122,0-.164-.051-.133-.173a3.07,3.07,0,0,1,1.545-2c.038-.021.084-.059.125-.021s.014.087,0,.131a9.572,9.572,0,0,0-.293,1.887c-.011.14-.073.183-.2.18-.171,0-.342,0-.514,0Z" transform="translate(740.793 -336.503)" fill="#cacaca"/>
      <path id="Path_17394" data-name="Path 17394" d="M-622.336,342.575h-.512c-.108,0-.167-.039-.176-.159a9.727,9.727,0,0,0-.3-1.921c-.012-.043-.033-.1.015-.124.026-.013.077.005.109.023a3.07,3.07,0,0,1,1.553,2.011c.032.127-.021.17-.137.169Z" transform="translate(634.786 -336.622)" fill="#cacaca"/>
      <path id="Path_17395" data-name="Path 17395" d="M-621.353,424.87a3.058,3.058,0,0,1-.96,1.615,2.849,2.849,0,0,1-.58.406c-.039.021-.084.053-.126.014s-.012-.074,0-.111a10.118,10.118,0,0,0,.286-1.9c.008-.116.057-.166.17-.165.361,0,.723,0,1.084,0C-621.386,424.726-621.322,424.756-621.353,424.87Z" transform="translate(634.495 -417.646)" fill="#cacaca"/>
      <path id="Path_17396" data-name="Path 17396" d="M-732.993,424.684c.171,0,.342,0,.512,0,.124,0,.17.054.179.178a9.917,9.917,0,0,0,.278,1.866c.013.048.051.107,0,.146s-.088,0-.128-.027a3.08,3.08,0,0,1-1.522-1.97c-.036-.138.007-.2.15-.193.177,0,.355,0,.532,0Z" transform="translate(740.774 -417.606)" fill="#cacaca"/>
      <path id="Path_17397" data-name="Path 17397" d="M-669.3,424.755c.518,0,.528,0,.48.491a6.1,6.1,0,0,1-.368,1.71c-.024.059-.036.146-.108.153s-.093-.083-.115-.139a6.658,6.658,0,0,1-.4-2.083c-.006-.093.047-.131.133-.132Z" transform="translate(679.424 -417.675)" fill="#cacaca"/>
      <path id="Path_17398" data-name="Path 17398" d="M-669.4,339.477h-.039c-.6,0-.471.036-.439-.472a5.313,5.313,0,0,1,.374-1.724c.023-.056.03-.147.112-.141.063,0,.074.085.1.138a6.47,6.47,0,0,1,.4,2.059c.005.092-.037.136-.126.137-.125,0-.25,0-.374,0Z" transform="translate(679.521 -333.523)" fill="#cacaca"/>
    </g>
  </g>
</svg>
