<svg xmlns="http://www.w3.org/2000/svg" width="15.4" height="18.266" viewBox="0 0 15.4 18.266">
  <g id="Group_12024" data-name="Group 12024" transform="translate(442.953 -207.403)">
    <path id="Path_19824" data-name="Path 19824" d="M-427.569,230.14c-.073-.5-.143-1-.231-1.5a18.843,18.843,0,0,0-.883-3.344,3.094,3.094,0,0,0-2.134-2.018l-1.325-.388a13.492,13.492,0,0,1-3.126,5.5,17.738,17.738,0,0,1-1.887-2.569,11.372,11.372,0,0,1-1.245-2.946c-.591.195-1.163.369-1.724.571a2.538,2.538,0,0,0-1.548,1.5c-.106.264-.225.522-.317.791a22.357,22.357,0,0,0-.891,3.839,3.236,3.236,0,0,0-.051.992,1.451,1.451,0,0,0,1.489,1.217q6.215,0,12.43,0h.056A1.41,1.41,0,0,0-427.569,230.14Z" transform="translate(0 -6.117)" fill="#28304e"/>
    <path id="Path_19825" data-name="Path 19825" d="M-436.115,212.572c.092.26.2.514.314.795l-.566.713,1.07,1.071a3.312,3.312,0,0,0,.382-.308c.232-.25.443-.228.766-.124a.683.683,0,0,1,.543.762c.007.412.033.411.452.411h1.119c.032-.287.065-.55.088-.814a.225.225,0,0,1,.187-.23,4.409,4.409,0,0,0,.586-.23.178.178,0,0,1,.228.016c.211.181.433.348.632.507l1.069-1.081a2.366,2.366,0,0,0-.253-.311.558.558,0,0,1-.117-.852.167.167,0,0,0,.027-.069c.059-.283.207-.445.522-.4a2.138,2.138,0,0,0,.221-.021c.127,0,.171-.044.169-.175-.008-.4,0-.8,0-1.207,0-.054-.008-.107-.013-.166-.281-.022-.545-.048-.81-.063-.105-.006-.145-.056-.177-.149a5.573,5.573,0,0,0-.242-.62.172.172,0,0,1,.035-.225c.175-.2.341-.4.5-.6l-1.071-1.07c-.2.165-.4.345-.615.511a.227.227,0,0,1-.187.019c-.212-.083-.414-.193-.629-.27a.223.223,0,0,1-.171-.224c-.024-.256-.059-.512-.089-.767h-1.53c-.019.256-.041.5-.053.747a.234.234,0,0,1-.186.25,3.241,3.241,0,0,0-.574.257.188.188,0,0,1-.257-.033c-.192-.172-.394-.334-.583-.493l-1.07,1.071.576.69c-.1.245-.2.476-.273.717a.217.217,0,0,1-.224.189c-.258.016-.514.04-.772.061v1.527c.27.02.528.04.786.057A.183.183,0,0,1-436.115,212.572Zm3.2-3.111a2.147,2.147,0,0,1,2.164,2.168,2.154,2.154,0,0,1-2.162,2.155,2.156,2.156,0,0,1-2.161-2.138A2.126,2.126,0,0,1-432.918,209.46Z" transform="translate(-2.316 0)" fill="#f60"/>
    <path id="Path_19826" data-name="Path 19826" d="M-429.851,224.335h-1.6c.1.234.2.446.268.666a.669.669,0,0,1,.022.336c-.078.362-.163.723-.27,1.077a.536.536,0,0,0,.1.53c.213.276.416.56.636.858.253-.348.49-.658.707-.98a.462.462,0,0,0,.066-.3c-.054-.335-.122-.669-.2-1a.929.929,0,0,1,.064-.68C-429.977,224.686-429.923,224.516-429.851,224.335Z" transform="translate(-4.546 -6.695)" fill="#28304e"/>
    <path id="Path_19827" data-name="Path 19827" d="M-430.81,214.71a.972.972,0,0,0,.962-.954.97.97,0,0,0-.955-.96.97.97,0,0,0-.962.953A.972.972,0,0,0-430.81,214.71Z" transform="translate(-4.424 -2.132)" fill="#28304e"/>
  </g>
</svg>
