<svg xmlns="http://www.w3.org/2000/svg" width="17.214" height="17.186" viewBox="0 0 17.214 17.186">
  <g id="Group_11909" data-name="Group 11909" transform="translate(-2785.304 -5727.434)">
    <g id="Group_11906" data-name="Group 11906" transform="translate(2785.304 5727.434)">
      <path id="Path_19817" data-name="Path 19817" d="M13345.445,4883.279q0-1.192,0-2.384a1.36,1.36,0,0,1,1.4-1.392q2.388,0,4.774,0a1.359,1.359,0,0,1,1.394,1.4q0,2.383,0,4.767a1.36,1.36,0,0,1-1.4,1.392q-2.386,0-4.773,0a1.361,1.361,0,0,1-1.395-1.4Q13345.443,4884.47,13345.445,4883.279Z" transform="translate(-13345.444 -4879.502)" fill="#28304e"/>
      <path id="Path_19818" data-name="Path 19818" d="M13513.4,4883.279c0-.795,0-1.59,0-2.384a1.36,1.36,0,0,1,1.4-1.392q2.388,0,4.775,0a1.359,1.359,0,0,1,1.394,1.4q0,2.383,0,4.767a1.359,1.359,0,0,1-1.4,1.392q-2.386,0-4.774,0a1.362,1.362,0,0,1-1.395-1.4C13513.4,4884.868,13513.4,4884.073,13513.4,4883.279Z" transform="translate(-13503.758 -4879.502)" fill="#28304e"/>
      <path id="Path_19819" data-name="Path 19819" d="M13349.236,5047.178c.8,0,1.592,0,2.389,0a1.358,1.358,0,0,1,1.387,1.385q0,2.394,0,4.788a1.358,1.358,0,0,1-1.387,1.386q-2.4,0-4.8,0a1.359,1.359,0,0,1-1.387-1.385q0-2.4,0-4.789a1.359,1.359,0,0,1,1.387-1.385C13347.631,5047.176,13348.434,5047.178,13349.236,5047.178Z" transform="translate(-13345.439 -5037.553)" fill="#28304e"/>
      <path id="Path_19820" data-name="Path 19820" d="M13517.193,5054.748a3.78,3.78,0,1,1,3.788-3.771A3.774,3.774,0,0,1,13517.193,5054.748Z" transform="translate(-13503.77 -5037.564)" fill="#f60"/>
    </g>
  </g>
</svg>
