<svg xmlns="http://www.w3.org/2000/svg" width="19.613" height="19.598" viewBox="0 0 19.613 19.598">
  <g id="Group_10" data-name="Group 10" transform="translate(0.511 0.5)">
    <path id="Path_4" data-name="Path 4" d="M6.155,18.4H7.642a9.811,9.811,0,0,1,1.752.365,8.212,8.212,0,0,1,5.668,8.58,8.134,8.134,0,0,1-1.68,4.257c-.157.2-.159.2.019.381q1.783,1.783,3.567,3.565a1.451,1.451,0,0,1,.327.452v.435a.791.791,0,0,1-.584.543.847.847,0,0,1-.814-.29c-1.2-1.2-2.4-2.4-3.6-3.608-.134-.135-.218-.144-.373-.026a8,8,0,0,1-7.017,1.482,8.142,8.142,0,0,1-6.087-9.323,8.011,8.011,0,0,1,5.445-6.4A8.47,8.47,0,0,1,6.155,18.4Zm.75,1.537A6.643,6.643,0,1,0,13.539,26.6,6.642,6.642,0,0,0,6.9,19.937Z" transform="translate(1.307 -18.4)" fill="#fff" stroke="#fff" stroke-width="1"/>
  </g>
</svg>
