<svg xmlns="http://www.w3.org/2000/svg" width="25.247" height="20.834" viewBox="0 0 25.247 20.834">
  <g id="Group_5977" data-name="Group 5977" transform="translate(654.959 -573.624)">
    <g id="Group_5976" data-name="Group 5976" transform="translate(-654.959 573.624)">
      <path id="Path_17362" data-name="Path 17362" d="M-654.959,581.285c.069-.511.11-1.024.221-1.53A6.6,6.6,0,0,1-650.895,575a13.979,13.979,0,0,1,4.188-1.125,36.522,36.522,0,0,1,5.725-.228,22.561,22.561,0,0,1,5.189.637,9.026,9.026,0,0,1,3.8,1.884,6.581,6.581,0,0,1,2.075,3.715,10.659,10.659,0,0,1,.2,1.832c.007.2-.068.274-.27.274q-2.365-.007-4.73,0c-.172,0-.248-.058-.267-.236a9.036,9.036,0,0,0-.3-1.593,3.376,3.376,0,0,0-3.029-2.5,18.842,18.842,0,0,0-2.577-.153c-.706-.007-1.412-.012-2.117-.026a17.245,17.245,0,0,0-3.581.2,3.561,3.561,0,0,0-2.986,3.038,7.337,7.337,0,0,0-.157,1.019.241.241,0,0,1-.281.259c-1.651-.007-3.3-.008-4.952-.011Z" transform="translate(654.959 -573.624)" fill="#cacaca"/>
      <path id="Path_17363" data-name="Path 17363" d="M-654.959,588.112q1.354-.006,2.708-.012,1.121,0,2.241,0c.265,0,.3.043.265.305-.015.113-.023.229-.047.341a1.263,1.263,0,0,1-1.306,1.119,14.471,14.471,0,0,1-2.483.01,1.368,1.368,0,0,1-1.379-1.173Z" transform="translate(654.959 -579.22)" fill="#cacaca"/>
      <path id="Path_17364" data-name="Path 17364" d="M-641.455,598.591h-9.535c-.09,0-.18,0-.27,0a.74.74,0,0,1-.753-.773c0-1.421,0-2.841,0-4.262a1.184,1.184,0,0,1,.246-.632c.591-.959,1.237-1.879,1.913-2.779,1.011-1.345,1.991-2.716,3.121-3.967a.43.43,0,0,0,.1-.317c0-.353,0-.707,0-1.059,0-.308.115-.455.421-.466q.836-.032,1.674,0c.318.011.429.159.435.48,0,.238.007.477,0,.715,0,.166.055.237.228.237q2.427,0,4.854,0c.166,0,.239-.064.236-.233,0-.255-.007-.51.009-.764.018-.294.134-.427.428-.436.549-.018,1.1-.02,1.649,0,.332.012.436.155.437.5s.007.657,0,.985a.553.553,0,0,0,.148.4,72.558,72.558,0,0,1,4.487,5.9l.055.082a2.9,2.9,0,0,1,.723,2.392v2.932c0,.074,0,.148,0,.221a.8.8,0,0,1-.893.853Zm-2.957-7.068a.651.651,0,0,0,.677-.656.688.688,0,0,0-.676-.7.687.687,0,0,0-.675.673A.646.646,0,0,0-644.411,591.522Zm2.942,2.459a.682.682,0,0,0,.689-.656.688.688,0,0,0-.678-.7.67.67,0,0,0-.676.662A.643.643,0,0,0-641.469,593.981Zm2.947,0a.676.676,0,0,0,.685-.686.688.688,0,0,0-.684-.667.689.689,0,0,0-.686.691A.679.679,0,0,0-638.523,593.981Zm-5.9-6.246a.646.646,0,0,0-.665.666.683.683,0,0,0,.685.688.684.684,0,0,0,.667-.707A.649.649,0,0,0-644.421,587.734Zm2.952,3.789a.678.678,0,0,0,.688-.654.708.708,0,0,0-.68-.7.682.682,0,0,0-.674.694A.637.637,0,0,0-641.469,591.523Zm-2.938,2.457a.668.668,0,0,0,.672-.665.678.678,0,0,0-.68-.686.677.677,0,0,0-.671.671A.659.659,0,0,0-644.406,593.98Zm2.945-6.256a.66.66,0,0,0-.673.663.683.683,0,0,0,.666.7.717.717,0,0,0,.687-.672A.691.691,0,0,0-641.461,587.724Zm3.62.678a.679.679,0,0,0-.668-.678.692.692,0,0,0-.7.678.717.717,0,0,0,.673.688A.7.7,0,0,0-637.842,588.4Zm-.682,3.12a.662.662,0,0,0,.682-.656.7.7,0,0,0-.68-.7.713.713,0,0,0-.686.672A.675.675,0,0,0-638.524,591.523Z" transform="translate(653.822 -577.757)" fill="#cacaca"/>
      <path id="Path_17365" data-name="Path 17365" d="M-620.32,589.8a2.9,2.9,0,0,1-1.33-.183,1.4,1.4,0,0,1-.724-1.372c.028-.155.134-.145.239-.145.4,0,.8,0,1.206,0q1.748,0,3.5,0c.307,0,.321.017.311.319-.028.861-.575,1.359-1.554,1.379C-619.233,589.81-619.791,589.841-620.32,589.8Z" transform="translate(642.367 -579.22)" fill="#cacaca"/>
    </g>
  </g>
</svg>
