<svg xmlns="http://www.w3.org/2000/svg" width="24.954" height="24.92" viewBox="0 0 24.954 24.92">
  <g id="Group_5971" data-name="Group 5971" transform="translate(697.958 -648.105)">
    <g id="Group_5970" data-name="Group 5970" transform="translate(-697.958 648.105)">
      <path id="Path_17354" data-name="Path 17354" d="M-697.958,654.037a1.388,1.388,0,0,1,.819-.842q5.472-2.453,10.934-4.924a1.573,1.573,0,0,1,1.4-.005q4.961,2.251,9.935,4.476c.363.163.725.325,1.086.491a1.17,1.17,0,0,1,.762,1.317,1.2,1.2,0,0,1-1.192.953c-.064,0-.129,0-.194,0h-22.2a1.238,1.238,0,0,1-1.352-.884Z" transform="translate(697.958 -648.105)" fill="#cacaca"/>
      <path id="Path_17355" data-name="Path 17355" d="M-697.958,683.06a1.291,1.291,0,0,1,1.335-.847q11.148.011,22.3.005a1.2,1.2,0,0,1,1.261.825,1.183,1.183,0,0,1-.839,1.477H-697.13a1.337,1.337,0,0,1-.828-.828Z" transform="translate(697.958 -659.601)" fill="#cacaca"/>
      <path id="Path_17356" data-name="Path 17356" d="M-684.812,674.359q-4.856,0-9.712,0a1.2,1.2,0,0,1-1.288-.858,1.146,1.146,0,0,1,.945-1.456c.425-.059.425-.059.425-.5q0-4.661,0-9.322c0-.223-.035-.329-.292-.349a.563.563,0,0,1-.553-.617.6.6,0,0,1,.645-.559c.057,0,.113,0,.17,0h19.351a1.154,1.154,0,0,1,.433.044.566.566,0,0,1,.38.587.548.548,0,0,1-.431.521c-.4.109-.4.109-.4.526v9.274c0,.343,0,.343.336.385a1.153,1.153,0,0,1,1.075,1.167,1.186,1.186,0,0,1-1.159,1.15c-.1.007-.194,0-.292,0Zm-3.98-7.385c0-1.6,0-3.2,0-4.793,0-.227-.071-.291-.292-.288q-1.386.016-2.773,0c-.217,0-.275.07-.274.28q.008,4.78,0,9.561c0,.213.066.282.278.28.916-.009,1.832-.012,2.749,0,.251,0,.315-.081.314-.322C-688.8,670.12-688.791,668.547-688.791,666.974Zm2.318-.025c0,1.6,0,3.2,0,4.795,0,.2.058.273.262.271q1.4-.011,2.8,0c.208,0,.285-.062.284-.278q-.008-4.782,0-9.565c0-.212-.066-.281-.28-.278-.916.009-1.833.011-2.75,0-.242,0-.32.06-.318.312C-686.468,663.785-686.474,665.367-686.474,666.949Zm5.688,0c0,1.59,0,3.18,0,4.769,0,.218.062.3.289.3.925-.011,1.85-.009,2.774,0,.21,0,.281-.062.281-.278q-.009-4.781,0-9.563c0-.238-.088-.282-.3-.28-.908.009-1.817,0-2.725,0-.315,0-.316,0-.316.33Z" transform="translate(697.25 -652.35)" fill="#cacaca"/>
    </g>
  </g>
</svg>
