<svg xmlns="http://www.w3.org/2000/svg" width="21.448" height="22.906" viewBox="0 0 21.448 22.906">
  <g id="Group_6033" data-name="Group 6033" transform="translate(0.499 0.5)">
    <path id="Path_17434" data-name="Path 17434" d="M-879.82,309.187c0,2.475-.018,4.951.007,7.426a2.834,2.834,0,0,1-2.793,2.794c-4.958-.019-9.916-.007-14.874-.007a2.756,2.756,0,0,1-2.78-2.769q0-7.448,0-14.9a2.756,2.756,0,0,1,2.775-2.775c.228,0,.456,0,.683,0,.137,0,.192-.051.188-.188-.006-.19-.005-.38,0-.569a.714.714,0,0,1,.742-.7.717.717,0,0,1,.744.7,5.223,5.223,0,0,1,0,.524c-.012.178.052.239.233.237.63-.009,1.26,0,1.891,0,.653,0,1.306-.008,1.959,0,.216,0,.284-.069.265-.275a4.081,4.081,0,0,1,0-.478.714.714,0,0,1,.734-.71.718.718,0,0,1,.752.715q.007.285,0,.569c0,.128.053.174.178.174q1.993,0,3.986,0c.143,0,.185-.064.18-.195-.006-.174,0-.349,0-.524a.715.715,0,0,1,.75-.74.716.716,0,0,1,.738.73,3.561,3.561,0,0,1,0,.455c-.025.228.074.279.286.278a5.626,5.626,0,0,1,1.135.038,2.783,2.783,0,0,1,2.226,2.691Q-879.818,305.44-879.82,309.187Zm-18.952-.006v1.457q0,2.915,0,5.83a1.319,1.319,0,0,0,.918,1.368,2.3,2.3,0,0,0,.653.075q6.923,0,13.846,0c.22,0,.44.005.661,0a1.311,1.311,0,0,0,1.307-.906,2.226,2.226,0,0,0,.079-.652q0-7.174,0-14.347c0-.061,0-.122,0-.182a1.3,1.3,0,0,0-1.207-1.354,6.328,6.328,0,0,0-.8-.019c-.124,0-.153.068-.152.175,0,.19,0,.38,0,.569a.715.715,0,0,1-.732.712.716.716,0,0,1-.755-.712q-.008-.285,0-.569c0-.126-.048-.177-.175-.176q-1.993,0-3.985,0c-.14,0-.188.057-.184.191q.009.284,0,.569a.716.716,0,0,1-.745.7.715.715,0,0,1-.74-.7c-.006-.19-.007-.38,0-.569,0-.139-.054-.186-.189-.186q-1.981,0-3.963,0c-.154,0-.2.064-.193.206.007.182.005.364,0,.546a.715.715,0,0,1-.737.707.716.716,0,0,1-.75-.718c0-.174-.008-.349,0-.524.007-.151-.038-.227-.2-.218-.2.01-.395,0-.592.005a1.361,1.361,0,0,0-1.062.486,1.491,1.491,0,0,0-.3.981Q-898.773,305.549-898.772,309.181Z" transform="translate(900.262 -297.501)" fill="#fff" stroke="#fff" stroke-width="1"/>
    <path id="Path_17435" data-name="Path 17435" d="M-838.379,421.131a.714.714,0,0,1-.567-.233c-.474-.471-.95-.939-1.415-1.418a.753.753,0,0,1-.016-1.1.757.757,0,0,1,1.083.027c.243.229.486.46.706.71.16.181.259.154.414-.007.463-.481.938-.951,1.415-1.418a.749.749,0,0,1,.88-.16.755.755,0,0,1,.422.745.773.773,0,0,1-.243.5q-1.053,1.055-2.108,2.109A.734.734,0,0,1-838.379,421.131Z" transform="translate(844.231 -410.167)" fill="#fff" stroke="#fff" stroke-width="0.5"/>
    <path id="Path_17436" data-name="Path 17436" d="M-838.378,529.165a.718.718,0,0,1-.569-.236c-.468-.466-.938-.929-1.4-1.4a.757.757,0,0,1-.042-1.1.761.761,0,0,1,1.117.031c.241.231.481.464.707.709.134.146.222.151.364,0,.475-.491.956-.976,1.448-1.449a.751.751,0,0,1,1.279.342.719.719,0,0,1-.2.714q-1.081,1.091-2.173,2.173A.684.684,0,0,1-838.378,529.165Z" transform="translate(844.229 -511.641)" fill="#fff" stroke="#fff" stroke-width="0.5"/>
    <path id="Path_17437" data-name="Path 17437" d="M-728.977,442.977q-1.24,0-2.481,0a.722.722,0,0,1-.791-.745.719.719,0,0,1,.792-.743q2.5,0,5.008,0a.722.722,0,0,1,.791.745.722.722,0,0,1-.792.743Q-727.714,442.979-728.977,442.977Z" transform="translate(742.455 -432.741)" fill="#fff" stroke="#fff" stroke-width="0.5"/>
    <path id="Path_17438" data-name="Path 17438" d="M-728.952,550.977q-1.252,0-2.5,0a.722.722,0,0,1-.793-.743.719.719,0,0,1,.79-.745q2.5,0,5.008,0a.723.723,0,0,1,.793.742.722.722,0,0,1-.79.746C-727.283,550.978-728.118,550.977-728.952,550.977Z" transform="translate(742.455 -534.181)" fill="#fff" stroke="#fff" stroke-width="0.5"/>
  </g>
</svg>
