<svg xmlns="http://www.w3.org/2000/svg" width="17.377" height="19.445" viewBox="0 0 17.377 19.445">
  <g id="Group_12025" data-name="Group 12025" transform="translate(377.482 -586.566)">
    <path id="Path_19828" data-name="Path 19828" d="M-623.142,293.5a6.971,6.971,0,0,1-1.392-1.283,7.115,7.115,0,0,1-1.331-7.087,7.243,7.243,0,0,1,4.8-4.684,6.444,6.444,0,0,1,2.1-.347q0,.407,0,.815c0,.107-.013.22.1.284s.216-.005.311-.07q1.024-.7,2.047-1.4c.281-.193.28-.311,0-.5l-2.185-1.5h-.152a.329.329,0,0,0-.125.3c.007.277,0,.554,0,.83a11.588,11.588,0,0,0-1.431.159,8.567,8.567,0,0,0-5.4,3.376,8.243,8.243,0,0,0-1.506,6.894,8.414,8.414,0,0,0,3.454,5.224.569.569,0,0,0,.485.106.6.6,0,0,0,.48-.482A.589.589,0,0,0-623.142,293.5Z" transform="translate(250.022 308.842)" fill="#28304e"/>
    <path id="Path_19829" data-name="Path 19829" d="M-453.905,350.564a8.207,8.207,0,0,0-2.015-4.5,8.364,8.364,0,0,0-1.557-1.41.579.579,0,0,0-.677-.028.584.584,0,0,0-.293.611.73.73,0,0,0,.355.489,7.179,7.179,0,0,1,3.011,5.426,7.081,7.081,0,0,1-2.376,5.932,7.337,7.337,0,0,1-4.9,1.984c0-.291-.006-.582,0-.873a.234.234,0,0,0-.118-.239.232.232,0,0,0-.248.039c-.724.5-1.45.992-2.173,1.491-.178.123-.178.271,0,.392q1.085.747,2.174,1.489a.223.223,0,0,0,.246.042.235.235,0,0,0,.121-.238c0-.291,0-.582,0-.873.265-.017.531-.022.795-.053a8.348,8.348,0,0,0,4.17-1.631A8.4,8.4,0,0,0-453.905,350.564Z" transform="translate(93.735 244.581)" fill="#28304e"/>
    <path id="Path_19830" data-name="Path 19830" d="M-506.3,468.137a1.347,1.347,0,0,0,.906-.377c.791-.661,1.589-1.314,2.382-1.972.716-.593,1.437-1.18,2.14-1.788a.956.956,0,0,0,.1-1.36.973.973,0,0,0-1.389-.12c-.226.184-.448.371-.672.557q-1.6,1.327-3.2,2.656c-.125.1-.183.087-.273-.039q-.414-.579-.852-1.14a.975.975,0,0,0-1.357-.192.966.966,0,0,0-.215,1.351c.484.665.98,1.321,1.481,1.973A1.147,1.147,0,0,0-506.3,468.137Z" transform="translate(135.943 131.309)" fill="#f60"/>
  </g>
</svg>
