<svg xmlns="http://www.w3.org/2000/svg" width="23.897" height="24" viewBox="0 0 23.897 24">
  <g id="Group_5981" data-name="Group 5981" transform="translate(1059.909 -371.028)">
    <g id="Group_5980" data-name="Group 5980" transform="translate(-1059.909 371.028)">
      <path id="Path_17369" data-name="Path 17369" d="M-1047.045,371.028c.59.1,1.186.163,1.77.305a11.928,11.928,0,0,1,5.273,2.8,11.971,11.971,0,0,1,3.271,4.942c.1.271.089.287-.206.288-.484,0-.969-.006-1.451,0a.326.326,0,0,1-.353-.235,9.964,9.964,0,0,0-.746-1.456.327.327,0,0,0-.322-.178c-.483.009-.967.007-1.45,0-.165,0-.2.05-.156.209.138.455.241.92.344,1.383.044.2.007.277-.2.273-.492-.006-.983-.007-1.474,0-.179,0-.247-.081-.282-.24-.106-.48-.24-.952-.393-1.419a.255.255,0,0,0-.285-.208q-4.365.005-8.732,0a.253.253,0,0,0-.284.208,14.113,14.113,0,0,0-.39,1.42.262.262,0,0,1-.308.239c-.483-.007-.967,0-1.45,0-.18,0-.254-.044-.207-.248.1-.463.2-.929.341-1.383.054-.175.017-.239-.175-.235-.483.01-.967.008-1.45,0a.3.3,0,0,0-.283.163,9.074,9.074,0,0,0-.759,1.475.317.317,0,0,1-.351.232c-.5-.009-1-.007-1.5,0-.186,0-.252-.035-.18-.242a11.981,11.981,0,0,1,4.606-6.032,11.924,11.924,0,0,1,5.076-1.978c.216-.031.431-.06.646-.09Zm-1.054,4.577h3.486c.108,0,.248.029.126-.165a6.114,6.114,0,0,0-1.91-2.022,2.986,2.986,0,0,0-3.353,0,5.975,5.975,0,0,0-1.884,1.984c-.032.051-.1.1-.073.163.037.077.126.039.191.039Q-1049.808,375.607-1048.1,375.6Zm6.789,0,.02-.06a7.867,7.867,0,0,0-1.569-1.146c.209.365.408.732.595,1.1a.174.174,0,0,0,.169.1Zm-13.528,0h.767a.178.178,0,0,0,.178-.088c.194-.377.392-.751.6-1.122A5.914,5.914,0,0,0-1054.838,375.6Z" transform="translate(1059.977 -371.028)" fill="#cacaca"/>
      <path id="Path_17370" data-name="Path 17370" d="M-1048.086,392.954a11.822,11.822,0,0,1-7.829-2.921,11.812,11.812,0,0,1-3.516-5.191c-.066-.19-.035-.253.17-.25.515.007,1.031.006,1.546,0a.28.28,0,0,1,.3.2,9.7,9.7,0,0,0,.768,1.5.313.313,0,0,0,.3.167c.468-.008.936,0,1.4,0,.263,0,.271-.008.194-.27-.133-.449-.23-.906-.331-1.363-.039-.173.014-.229.179-.229.507,0,1.014,0,1.522,0,.17,0,.231.084.263.234.1.473.24.935.383,1.4a.279.279,0,0,0,.312.235q4.344-.007,8.687,0a.281.281,0,0,0,.317-.229,14.383,14.383,0,0,0,.385-1.4.263.263,0,0,1,.305-.241c.476.008.952.007,1.428,0,.2,0,.28.048.226.274-.108.462-.206.928-.344,1.383-.048.16-.008.21.156.209q.749-.009,1.5,0a.292.292,0,0,0,.272-.18,9.232,9.232,0,0,0,.738-1.434.351.351,0,0,1,.386-.255c.492.012.984.008,1.476,0,.2,0,.245.052.177.249a11.988,11.988,0,0,1-4.983,6.277,11.6,11.6,0,0,1-4.918,1.748A12.823,12.823,0,0,1-1048.086,392.954Zm.008-4.6c-1.154,0-2.308,0-3.463,0-.172,0-.208.03-.107.19a7.1,7.1,0,0,0,1.478,1.709,3.1,3.1,0,0,0,3.874.225,5.992,5.992,0,0,0,1.771-1.9c.036-.057.115-.112.081-.182s-.127-.037-.192-.037Q-1046.359,388.354-1048.078,388.357Zm6.85,0h-.88a.146.146,0,0,0-.138.07c-.2.38-.394.762-.611,1.137A8.192,8.192,0,0,0-1041.228,388.359Zm-12.068,1.2c-.2-.359-.392-.712-.572-1.075-.032-.063-.071-.126-.153-.127-.276,0-.551,0-.893,0A7.962,7.962,0,0,0-1053.3,389.564Z" transform="translate(1059.977 -368.955)" fill="#cacaca"/>
      <path id="Path_17371" data-name="Path 17371" d="M-1050.579,381.944c.273-.624.552-1.224.8-1.838a.555.555,0,0,1,.6-.4c.693.013.692,0,.956.633.223.531.448,1.062.691,1.639.123-.314.232-.59.34-.867.141-.363.287-.725.42-1.091a.421.421,0,0,1,.44-.31c.226,0,.453-.007.678,0,.293.015.4.174.28.439-.483,1.108-.973,2.212-1.461,3.318a.428.428,0,0,1-.059.1,1.09,1.09,0,0,1-1.354-.181c-.272-.62-.541-1.241-.828-1.9-.2.43-.383.829-.566,1.228q-.163.351-.323.7c-.01.021-.018.044-.03.062-.249.385-.637.187-.966.224a.4.4,0,0,1-.43-.287c-.438-1.076-.885-2.148-1.326-3.222-.132-.326-.032-.477.315-.485.226-.006.453,0,.679,0a.4.4,0,0,1,.415.3c.189.561.391,1.118.59,1.676A.438.438,0,0,0-1050.579,381.944Z" transform="translate(1061 -369.701)" fill="#cacaca"/>
      <path id="Path_17372" data-name="Path 17372" d="M-1041.939,381.5c-.263.568-.535,1.07-.729,1.6a.812.812,0,0,1-.958.626c-.491-.046-.507-.017-.7-.488q-.621-1.5-1.24-3.007c-.147-.361-.048-.512.339-.516.219,0,.437,0,.656,0a.391.391,0,0,1,.4.3c.191.568.4,1.133.6,1.7.028.08.06.158.11.287l.558-1.273.308-.708a.754.754,0,0,1,.075-.145,1,1,0,0,1,1.281.115c.258.586.5,1.177.75,1.766.024.055.033.12.094.159.084-.048.087-.143.116-.218.22-.558.444-1.116.65-1.68a.407.407,0,0,1,.421-.3c.234,0,.469-.009.7,0,.272.014.379.181.272.429-.48,1.1-.959,2.2-1.45,3.3-.191.428-.595.233-.914.267a.44.44,0,0,1-.5-.292C-1041.363,382.8-1041.642,382.179-1041.939,381.5Z" transform="translate(1062.092 -369.704)" fill="#cacaca"/>
      <path id="Path_17373" data-name="Path 17373" d="M-1054.667,381.979l.7-1.805c.177-.457.184-.462.682-.462.164,0,.329-.006.491,0,.287.018.4.181.281.44-.481,1.1-.967,2.2-1.452,3.3a.62.62,0,0,1-.056.1,1.062,1.062,0,0,1-1.345-.122c-.247-.548-.481-1.1-.721-1.651-.036-.084-.075-.167-.129-.285-.235.51-.455.988-.677,1.465-.068.149-.137.3-.206.446a.592.592,0,0,1-.053.1c-.249.346-.616.161-.932.2a.386.386,0,0,1-.429-.254c-.454-1.1-.911-2.206-1.36-3.311-.1-.25,0-.416.274-.429s.515-.006.772,0a.4.4,0,0,1,.385.315c.195.568.4,1.132.6,1.7.026.073.054.144.084.223.095-.053.1-.145.134-.219.248-.564.5-1.126.736-1.695a.481.481,0,0,1,.5-.326c.849,0,.734-.038,1.039.679C-1055.125,380.9-1054.909,381.4-1054.667,381.979Z" transform="translate(1059.909 -369.701)" fill="#cacaca"/>
    </g>
  </g>
</svg>
