<svg xmlns="http://www.w3.org/2000/svg" width="20.499" height="15.407" viewBox="0 0 20.499 15.407">
  <g id="Group_5996" data-name="Group 5996" transform="translate(1220 -266.606)">
    <g id="Group_5995" data-name="Group 5995" transform="translate(-1220 266.606)">
      <path id="Path_17399" data-name="Path 17399" d="M-1220,280.074V268.544c.02-.064.042-.127.059-.191a2.342,2.342,0,0,1,2.287-1.746h15.846a2.277,2.277,0,0,1,1.471.538,2.5,2.5,0,0,1,.835,1.4v11.531c-.02.064-.042.126-.06.191a2.342,2.342,0,0,1-2.287,1.746q-7.913,0-15.825,0a2.285,2.285,0,0,1-1.231-.354A2.454,2.454,0,0,1-1220,280.074Zm6.392-1.531c1.053,0,2.107,0,3.16,0a.626.626,0,0,0,.679-.649,4.119,4.119,0,0,0-.028-.638,2.3,2.3,0,0,0-2.234-2.054c-1.04-.009-2.08,0-3.12,0a2.15,2.15,0,0,0-1.287.428,2.452,2.452,0,0,0-.986,2.219.667.667,0,0,0,.716.7C-1215.675,278.532-1214.641,278.544-1213.608,278.544Zm.015-8.469a2.1,2.1,0,0,0-2.109,2.087,2.121,2.121,0,0,0,2.106,2.122,2.121,2.121,0,0,0,2.109-2.119A2.1,2.1,0,0,0-1213.593,270.075Zm8.531.406c-.746,0-1.493,0-2.239,0a.64.64,0,0,0-.712.622.647.647,0,0,0,.709.627h.06q2.189,0,4.379,0a1.208,1.208,0,0,0,.336-.043.606.606,0,0,0,.421-.7.649.649,0,0,0-.714-.508C-1203.569,270.479-1204.316,270.481-1205.062,270.481Zm0,3.437c-.761,0-1.521,0-2.282,0a.608.608,0,0,0-.666.613.623.623,0,0,0,.662.6q2.292,0,4.584,0a.622.622,0,0,0,.679-.61.629.629,0,0,0-.675-.613C-1203.531,273.929-1204.3,273.918-1205.066,273.918Zm.016,4.626c.767,0,1.535,0,2.3,0a.623.623,0,0,0,.428-.133.611.611,0,0,0,.194-.667.615.615,0,0,0-.619-.418q-2.292,0-4.584,0a.624.624,0,0,0-.686.619.614.614,0,0,0,.682.6C-1206.571,278.545-1205.811,278.544-1205.05,278.544Z" transform="translate(1220 -266.606)" fill="#cacaca"/>
    </g>
  </g>
</svg>
