<svg xmlns="http://www.w3.org/2000/svg" width="13.866" height="13.043" viewBox="0 0 13.866 13.043">
  <path id="Path_16965" data-name="Path 16965" d="M101.6,209.646c.23,0,.461-.009.691-.009.588,0,1.175,0,1.763,0a.372.372,0,0,1,.276.109,23.072,23.072,0,0,1,2.575,2.838c.116.149.122.149.212-.017a42.773,42.773,0,0,1,2.481-4.073,35.793,35.793,0,0,1,2.8-3.536c.13-.144.261-.288.387-.436a.241.241,0,0,1,.2-.091c.786,0,1.573,0,2.359,0,.039,0,.092-.017.114.021s-.022.083-.047.118c-.8,1.125-1.571,2.265-2.306,3.432a43.5,43.5,0,0,0-3.579,6.958c-.315.784-.618,1.573-.915,2.363a.194.194,0,0,1-.217.147c-.479-.006-.958-.007-1.437,0a.246.246,0,0,1-.245-.143c-.644-1.1-1.274-2.207-1.944-3.292a34.132,34.132,0,0,0-3.168-4.361Z" transform="translate(-101.6 -204.426)" fill="#fff"/>
</svg>
