<svg xmlns="http://www.w3.org/2000/svg" width="22.904" height="20.567" viewBox="0 0 22.904 20.567">
  <g id="Group_5973" data-name="Group 5973" transform="translate(848.25 -680.69)">
    <g id="Group_5972" data-name="Group 5972" transform="translate(-848.25 680.69)">
      <path id="Path_17357" data-name="Path 17357" d="M-825.346,770.7v10.915c-.025.093-.049.187-.075.28a2.652,2.652,0,0,1-2.538,1.926q-8.838,0-17.677,0a2.441,2.441,0,0,1-.853-.15,2.673,2.673,0,0,1-1.761-2.057V770.7c.026-.1.051-.2.08-.3a2.657,2.657,0,0,1,2.511-1.9q8.861,0,17.722,0a2.452,2.452,0,0,1,1,.213A2.681,2.681,0,0,1-825.346,770.7Zm-5.717.726c-.693,0-1.386,0-2.079,0a.7.7,0,0,0-.772.756q-.011,2.068,0,4.137a.709.709,0,0,0,.776.761q2.068,0,4.136,0a.7.7,0,0,0,.772-.742q.015-2.09,0-4.181a.693.693,0,0,0-.774-.731C-829.692,771.423-830.378,771.425-831.063,771.425Zm-9.563,9.463h0c1.289,0,2.579,0,3.868,0a.9.9,0,0,0,.88-.823.923.923,0,0,0-.728-.986,2.11,2.11,0,0,0-.444-.039h-7.133c-.075,0-.149,0-.224,0a.937.937,0,0,0-.92,1.154.893.893,0,0,0,.9.693C-843.161,780.89-841.893,780.888-840.626,780.888Zm-1.9-5.655c-.611,0-1.222,0-1.833,0a.936.936,0,0,0-1,.919.934.934,0,0,0,.993.928q1.844,0,3.687,0a.933.933,0,0,0,.99-.93.93.93,0,0,0-.981-.917C-841.289,775.231-841.907,775.233-842.525,775.233Z" transform="translate(848.25 -763.255)" fill="#cacaca"/>
      <path id="Path_17358" data-name="Path 17358" d="M-822.341,684.079c-2.884,0-5.769,0-8.653,0a2.767,2.767,0,0,0-1.641.49c-.052.036-.1.11-.175.064-.053-.034-.033-.109-.035-.168a3.885,3.885,0,0,1,.352-2.087,3.006,3.006,0,0,1,2.753-1.679q7.423-.012,14.846,0a3.112,3.112,0,0,1,3.1,3.1c0,.231,0,.462,0,.693,0,.141-.034.208-.177.1a2.907,2.907,0,0,0-1.811-.516C-816.632,684.085-819.487,684.079-822.341,684.079Z" transform="translate(833.769 -680.69)" fill="#cacaca"/>
    </g>
  </g>
</svg>
