<svg id="Group_11902" data-name="Group 11902" xmlns="http://www.w3.org/2000/svg" width="21.421" height="21.377" viewBox="0 0 21.421 21.377">
  <path id="Path_19787" data-name="Path 19787" d="M12317.4,3167.152v.326c0,4.181-.014,8.362.011,12.543a1.3,1.3,0,0,1-1.355,1.367q-9.357-.03-18.718,0a1.3,1.3,0,0,1-1.348-1.345c.022-4.19.011-8.381.011-12.571v-.32Zm-17.822,5.889h14.243v-2.333h-14.243Zm0,4.757h7.112v-2.334h-7.112Z" transform="translate(-12295.993 -3160.011)" fill="#28304e"/>
  <path id="Path_19788" data-name="Path 19788" d="M12317.523,3075.838h-21.373c0-.094-.012-.182-.012-.27q0-1.613,0-3.226a1.172,1.172,0,0,1,1.254-1.248h18.887a1.174,1.174,0,0,1,1.257,1.247q0,1.613,0,3.226C12317.536,3075.649,12317.529,3075.731,12317.523,3075.838Z" transform="translate(-12296.126 -3071.094)" fill="#28304e"/>
  <path id="Path_19789" data-name="Path 19789" d="M12344.266,3217.319v-2.333h14.244v2.333Z" transform="translate(-12340.678 -3204.289)" fill="#f60"/>
  <path id="Path_19790" data-name="Path 19790" d="M12344.258,3281.3v-2.334h7.111v2.334Z" transform="translate(-12340.67 -3263.512)" fill="#f60"/>
</svg>
