<svg xmlns="http://www.w3.org/2000/svg" width="16.104" height="21.1" viewBox="0 0 16.104 21.1">
  <g id="Group_8841" data-name="Group 8841" transform="translate(-665 -512.235)">
    <path id="Path_17443" data-name="Path 17443" d="M-787.83,402.225q-1.651-1.032-3.3-2.064-2.051-1.287-4.1-2.579c-.045-.029-.092-.056-.136-.087a.579.579,0,0,1-.005-1.021c.556-.364,1.129-.706,1.69-1.064.13-.083.215-.02.313.041q2.311,1.444,4.622,2.887a1.992,1.992,0,0,0,1.815.222,2.616,2.616,0,0,0,.5-.265q2.269-1.416,4.535-2.836a.331.331,0,0,1,.418,0c.5.322,1,.629,1.5.944.534.336.54.811.01,1.144q-3.576,2.254-7.154,4.505c-.1.061-.2.113-.3.17Z" transform="translate(1460.675 131.111)" fill="#f60"/>
    <path id="Path_17444" data-name="Path 17444" d="M-779.408,132.777a.655.655,0,0,1-.378.576q-1.756,1.094-3.51,2.19l-3.629,2.266a.776.776,0,0,1-1.05,0q-3.553-2.217-7.105-4.435a.7.7,0,0,1-.411-.561.656.656,0,0,1,.38-.6q1.906-1.2,3.809-2.4l3.329-2.1a.773.773,0,0,1,1.05,0q3.561,2.241,7.121,4.482C-779.577,132.349-779.4,132.515-779.408,132.777Z" transform="translate(1460.501 384.717)" fill="#28304e"/>
    <path id="Path_17445" data-name="Path 17445" d="M-779.583,300.978a.531.531,0,0,1-.217.438,2.008,2.008,0,0,1-.215.148l-7.068,4.414a.789.789,0,0,1-1.084,0l-7.068-4.414c-.051-.032-.1-.063-.153-.1a.575.575,0,0,1,0-1c.56-.37,1.139-.715,1.706-1.076.131-.083.215-.015.312.045l3.44,2.148c.4.249.8.5,1.2.748a1.958,1.958,0,0,0,2.211,0q2.3-1.436,4.6-2.878a.358.358,0,0,1,.454,0c.506.331,1.024.646,1.537.966A.624.624,0,0,1-779.583,300.978Z" transform="translate(1460.676 222.02)" fill="#28304e"/>
  </g>
</svg>
