<svg xmlns="http://www.w3.org/2000/svg" width="29.486" height="26.525" viewBox="0 0 29.486 26.525">
  <g id="Group_12150" data-name="Group 12150" transform="translate(-1590.501 -478.329)">
    <g id="Group_11943" data-name="Group 11943" transform="translate(-183.992 291.542)">
      <path id="Path_19843" data-name="Path 19843" d="M1795.5,191.709c-.853.731-1.7,1.475-2.552,2.2a.524.524,0,0,0-.218.579c.228,1.077.423,2.162.647,3.239a.447.447,0,0,1-.2.526.4.4,0,0,1-.526.01c-.947-.583-1.91-1.142-2.853-1.732a.493.493,0,0,0-.59,0c-.974.556-1.967,1.08-2.935,1.645-.259.149-.373-.006-.548-.106s-.191-.237-.147-.422c.268-1.129.521-2.262.8-3.389a.342.342,0,0,0-.121-.387c-.848-.782-1.681-1.582-2.54-2.352-.215-.193-.127-.347-.079-.55s.169-.248.361-.263c1.149-.09,2.3-.2,3.447-.285a.375.375,0,0,0,.355-.253c.476-1.038.967-2.068,1.438-3.108.093-.2.2-.317.437-.251.272-.09.375.079.47.306.433,1.045.883,2.082,1.313,3.129a.357.357,0,0,0,.352.244c1.145.131,2.287.287,3.432.411.274.03.292.219.37.4A.311.311,0,0,1,1795.5,191.709Z" fill="#f60"/>
      <path id="Path_19844" data-name="Path 19844" d="M1782.07,191.316" fill="#28304e"/>
      <path id="Path_19845" data-name="Path 19845" d="M1784.95,197.131c.208.707.277,1.454.447,2.175.078.329-.173.373-.323.524s-.265.046-.392-.03c-.816-.492-1.629-.988-2.452-1.466a.45.45,0,0,0-.37,0c-.84.449-1.678.9-2.5,1.383-.3.175-.408-.071-.594-.163s-.122-.238-.087-.385c.221-.935.442-1.87.649-2.808a.379.379,0,0,0-.1-.3c-.719-.67-1.453-1.324-2.167-2-.068-.064-.046-.241-.039-.364.013-.3.161-.406.474-.423.881-.046,1.759-.146,2.638-.21a.479.479,0,0,0,.475-.32c.375-.862.766-1.719,1.182-2.562.054-.108.29-.137.448-.182a.267.267,0,0,1,.347.19c.361.858.744,1.706,1.089,2.571a.49.49,0,0,0,.529.371,3.279,3.279,0,0,1,.52.071l.726,2.474c-.016.04-.017.067-.031.075A1.035,1.035,0,0,0,1784.95,197.131Z" fill="#28304e"/>
      <path id="Path_19846" data-name="Path 19846" d="M1801.976,194.368q-.693.6-1.387,1.2c-.212.185-.417.379-.641.548a.392.392,0,0,0-.151.443c.187.933.354,1.87.556,2.8.07.314-.2.321-.324.465-.107.127-.214.086-.34.008-.778-.474-1.57-.929-2.339-1.419a.581.581,0,0,0-.7,0c-.77.449-1.559.867-2.336,1.3-.155.088-.281.134-.419-.024s-.356-.2-.269-.52c.252-.926.453-1.867.659-2.805a.4.4,0,0,0-.107-.306c-.218-.231-.46-.441-.7-.669l1.268-2.261c.034-.026.042-.038.049-.038.564.08.768-.277.955-.724.288-.693.627-1.364.947-2.044.085-.183.166-.335.433-.329a.478.478,0,0,1,.485.348c.352.841.715,1.676,1.064,2.518a.371.371,0,0,0,.344.27c.9.1,1.791.205,2.686.318.177.021.37,0,.435.268A.581.581,0,0,1,1801.976,194.368Z" fill="#28304e"/>
    </g>
    <path id="Path_19847" data-name="Path 19847" d="M1803.8,206.375q-6.016,3.18-12.031,6.367a4.682,4.682,0,0,1-3.754.32q-2.587-.832-5.175-1.657a2.458,2.458,0,0,0-.616-.1c-.35-.016-.7-.005-1.085-.005v-.939h0v-8.011c.2,0,.389,0,.577,0,.822.012,1.646-.005,2.465.055a3.772,3.772,0,0,1,1.18.317c1,.426,1.986.9,2.988,1.335a2.376,2.376,0,0,0,.866.189c1.044.022,2.091.056,3.131,0a1.961,1.961,0,0,1,2.212,1.449.678.678,0,0,1-.257.713l-.921.671a.67.67,0,0,1-.368.128l-5.139.223.006.161,5.392-.234,1.66-1.207,1.559-.656c1.089-.459,2.173-.927,3.265-1.378a3.056,3.056,0,0,1,4.195,1.891C1804.017,206.207,1803.969,206.284,1803.8,206.375Z" transform="translate(-183.992 291.542)" fill="#28304e"/>
    <path id="Path_19848" data-name="Path 19848" d="M1778.955,201.17q-2.062,0-4.124,0h-.337v10.882h0v.926h4.439c.841,0,1.187-.345,1.187-1.185q0-4.725,0-9.451C1780.119,201.512,1779.78,201.17,1778.955,201.17Zm-1.663,10.067a.672.672,0,0,1-.653-.651.657.657,0,0,1,1.314-.026A.679.679,0,0,1,1777.292,211.237Z" transform="translate(-183.992 291.542)" fill="#f60"/>
  </g>
</svg>
