<svg xmlns="http://www.w3.org/2000/svg" width="23.497" height="23.492" viewBox="0 0 23.497 23.492">
  <g id="Group_12149" data-name="Group 12149" transform="translate(-1593.499 -622.329)">
    <path id="Path_19837" data-name="Path 19837" d="M1756.343,297.043a1.017,1.017,0,0,1,.587-.54,6.971,6.971,0,0,1,1.182-.463,1.166,1.166,0,0,1,1.285.6c.349.607.646,1.245.96,1.872q1.282,2.566,2.561,5.136a1.4,1.4,0,0,1-.7,2.087c-.218.109-.436.218-.656.324a.7.7,0,0,1-1.06-.355q-1.251-2.493-2.5-4.989-.828-1.654-1.659-3.306Z" transform="translate(-162.844 339.648)" fill="#28304e"/>
    <path id="Path_19838" data-name="Path 19838" d="M1769.145,282.681a3.325,3.325,0,0,1,1.339.6,2.784,2.784,0,1,1-2.222-.557,1.171,1.171,0,0,0,.149-.047Z" transform="translate(-162.844 339.648)" fill="#f60"/>
    <path id="Path_19839" data-name="Path 19839" d="M1760.425,295.58a7.058,7.058,0,0,1,2.87-1.844,4.716,4.716,0,0,1,4.573,1.012,1.567,1.567,0,0,0,1.137.421c1.062-.022,2.125-.01,3.188-.006a1.373,1.373,0,0,1,.319,2.716,1.717,1.717,0,0,1-.386.033c-.864,0-1.728,0-2.592,0a.684.684,0,0,0-.714.895.663.663,0,0,0,.655.478c1.055.008,2.111.018,3.166,0a1.506,1.506,0,0,0,1.171-.584q1.774-2.193,3.557-4.378a1.382,1.382,0,0,1,1.887-.291,1.359,1.359,0,0,1,.353,1.872c-.825,1.222-1.677,2.425-2.523,3.632-.565.807-1.1,1.636-1.718,2.4a3.854,3.854,0,0,1-3.1,1.473c-1.918.019-3.838.006-5.757.006-.665,0-1.33,0-1.995,0a.228.228,0,0,1-.251-.138C1762.991,300.72,1761.712,298.16,1760.425,295.58Z" transform="translate(-162.844 339.648)" fill="#28304e"/>
    <path id="Path_19840" data-name="Path 19840" d="M1765.647,288.257a4.194,4.194,0,0,0,6.2.031,4.07,4.07,0,0,1,1.056,2.479c.021.313.01.627.006.941a.67.67,0,0,1-.69.7q-3.463,0-6.926,0a.654.654,0,0,1-.678-.59,4.717,4.717,0,0,1,.419-2.588C1765.211,288.895,1765.436,288.587,1765.647,288.257Z" transform="translate(-162.844 339.648)" fill="#f60"/>
  </g>
</svg>
