<svg xmlns="http://www.w3.org/2000/svg" width="55" height="56" viewBox="0 0 55 56">
  <g id="Group_10564" data-name="Group 10564" transform="translate(-1538 -265)">
    <rect id="Rectangle_909" data-name="Rectangle 909" width="55" height="56" rx="6" transform="translate(1538 265)" fill="#28304e"/>
    <g id="Group_4553" data-name="Group 4553" transform="translate(1554.827 280.888)">
      <g id="Group_4552" data-name="Group 4552">
        <path id="Path_16909" data-name="Path 16909" d="M-674.335-11.226q0-2.6,0-5.191a1,1,0,0,1,.537-.939q4.276-2.415,8.547-4.838c.237-.134.478-.262.711-.4a1.035,1.035,0,0,1,1.12,0q2.691,1.53,5.387,3.052,1.935,1.1,3.871,2.187a.983.983,0,0,1,.541.91q0,5.218,0,10.437a1.1,1.1,0,0,1-.624,1.035q-4.6,2.591-9.181,5.2a1.034,1.034,0,0,1-1.1,0q-4.625-2.627-9.254-5.245a1.079,1.079,0,0,1-.558-1.043q0-2.581,0-5.163ZM-664.9-6.4c0-1.314,0-2.627,0-3.941a.453.453,0,0,0-.261-.462q-3.494-1.967-6.977-3.954c-.3-.169-.31-.163-.31.188,0,2.618,0,5.236-.005,7.855a.481.481,0,0,0,.278.484q3.519,1.981,7.026,3.981c.235.134.25.061.248-.154C-664.9-3.737-664.9-5.069-664.9-6.4Zm1.85,4.25a.679.679,0,0,0,.106-.027q3.624-2.052,7.249-4.1a.359.359,0,0,0,.192-.363q0-3.983,0-7.965c0-.305-.012-.31-.293-.151q-3.489,1.976-6.98,3.949a.476.476,0,0,0-.276.483c.008,2.627.005,5.255.005,7.882Zm-.922-18.625c-.073.036-.149.07-.222.111l-2.718,1.539c-1.453.823-2.9,1.649-4.36,2.466-.208.117-.189.173.005.277.413.222.818.46,1.226.691q2.926,1.658,5.851,3.317a.343.343,0,0,0,.388.028q3.571-2.033,7.149-4.053c.182-.1.162-.154-.006-.248q-3.565-2.014-7.126-4.035C-663.842-20.715-663.9-20.741-663.973-20.776Z" transform="translate(674.335 22.761)" fill="#fff"/>
      </g>
    </g>
  </g>
</svg>
