<svg xmlns="http://www.w3.org/2000/svg" width="24.829" height="24.08" viewBox="0 0 24.829 24.08">
  <g id="Group_7874" data-name="Group 7874" transform="translate(0 0)">
    <g id="Group_7238" data-name="Group 7238" transform="translate(0 0)">
      <path id="Path_18046" data-name="Path 18046" d="M203.092,299.516c.064-.154.214-.173.336-.225q5.745-2.466,11.49-4.935a1.116,1.116,0,0,1,.976,0q5.644,2.439,11.3,4.849c.139.06.28.117.416.184s.153.154.008.233c-.085.046-.175.081-.264.119q-5.689,2.439-11.375,4.885a1.3,1.3,0,0,1-1.134,0c-3.761-1.63-7.532-3.238-11.3-4.855A.893.893,0,0,1,203.092,299.516Z" transform="translate(-202.997 -294.244)" fill="#aaa6c9"/>
      <path id="Path_18047" data-name="Path 18047" d="M340.611,382.288q0,2.341,0,4.682c0,.75-.152.983-.839,1.248q-4.712,1.82-9.428,3.631c-.4.154-.451.122-.451-.316,0-3.2,0-6.408-.006-9.612a.552.552,0,0,1,.379-.6q4.9-2.082,9.785-4.188c.544-.233.56-.219.56.388Q340.612,379.905,340.611,382.288Z" transform="translate(-315.782 -367.853)" fill="#aaa6c9"/>
      <path id="Path_18048" data-name="Path 18048" d="M202.234,382.23q0-2.422,0-4.844c0-.465.032-.484.469-.3q4.871,2.083,9.743,4.163a.655.655,0,0,1,.461.712c-.015,3.161-.008,6.321-.009,9.482,0,.536-.007.539-.5.351q-4.674-1.8-9.348-3.6c-.679-.262-.821-.475-.821-1.209Q202.233,384.611,202.234,382.23Z" transform="translate(-202.234 -367.837)" fill="#aaa6c9"/>
    </g>
  </g>
</svg>
