<svg xmlns="http://www.w3.org/2000/svg" width="23.477" height="23.929" viewBox="0 0 23.477 23.929">
  <g id="Group_7996" data-name="Group 7996" transform="translate(240.035 516.026)">
    <path id="Path_19084" data-name="Path 19084" d="M-240.013-510.94c0-.807,0-1.614,0-2.42a2.58,2.58,0,0,1,2.672-2.663q2.42,0,4.841,0a2.575,2.575,0,0,1,2.657,2.653q.007,2.433,0,4.865a2.579,2.579,0,0,1-2.659,2.652q-2.42.006-4.841,0a2.582,2.582,0,0,1-2.67-2.666C-240.016-509.327-240.013-510.134-240.013-510.94Z" transform="translate(-0.019)" fill="#aaa6c9"/>
    <path id="Path_19085" data-name="Path 19085" d="M-30.939-516.011c.807,0,1.613,0,2.42,0a2.579,2.579,0,0,1,2.668,2.668q.005,2.42,0,4.841a2.581,2.581,0,0,1-2.674,2.662q-2.408,0-4.816,0a2.583,2.583,0,0,1-2.68-2.681q0-2.408,0-4.816a2.582,2.582,0,0,1,2.686-2.674C-32.536-516.013-31.737-516.011-30.939-516.011Z" transform="translate(-190.71 -0.014)" fill="#aaa6c9"/>
    <path id="Path_19086" data-name="Path 19086" d="M-234.924-312.018c.8,0,1.6,0,2.4,0a2.579,2.579,0,0,1,2.666,2.67q.005,2.42,0,4.841a2.58,2.58,0,0,1-2.651,2.66q-2.432.006-4.865,0a2.579,2.579,0,0,1-2.653-2.658q-.006-2.433,0-4.865a2.578,2.578,0,0,1,2.639-2.647C-236.57-312.022-235.747-312.018-234.924-312.018Z" transform="translate(0 -190.705)" fill="#aaa6c9"/>
    <path id="Path_19087" data-name="Path 19087" d="M-30.924-301.826A5.09,5.09,0,0,1-36-306.918,5.088,5.088,0,0,1-30.887-312a5.088,5.088,0,0,1,5.061,5.1A5.089,5.089,0,0,1-30.924-301.826Z" transform="translate(-190.734 -190.271)" fill="#aaa6c9"/>
  </g>
</svg>
