<svg xmlns="http://www.w3.org/2000/svg" width="30.579" height="30.571" viewBox="0 0 30.579 30.571">
  <path id="Path_20046" data-name="Path 20046" d="M-787.612,644.632c1.015.563,2.032,1.123,3.045,1.69q1.989,1.112,3.97,2.24a.435.435,0,0,1,.2.3c.011,2.776.009,5.552.008,8.327,0,.037-.008.075-.015.14-.1-.052-.19-.093-.274-.14q-3.115-1.755-6.233-3.507a1.479,1.479,0,0,1-.7-.692Zm15.049-17.86-6.837,3.847c.042.049.052.068.068.077q3.418,1.978,6.84,3.944a.473.473,0,0,0,.395-.031q3.322-1.9,6.632-3.824c.072-.042.141-.091.24-.156l-6.86-3.856Zm15.369,17.93q-3.441,1.934-6.886,3.864a.338.338,0,0,0-.183.358q0,4.074,0,8.148c0,.077.006.153.011.257.073-.033.127-.052.176-.081q3.261-1.858,6.521-3.717a.975.975,0,0,0,.519-.932c-.007-2.557,0-5.113,0-7.67v-.3C-757.123,644.668-757.159,644.682-757.193,644.7Zm-16.212.995c-1.673.958-3.343,1.921-5.022,2.87-.172.1-.167.218-.167.367q0,4.062,0,8.122c0,.084.009.167.015.28.119-.064.206-.107.29-.156,1.6-.916,3.207-1.838,4.816-2.746a.431.431,0,0,0,.258-.437c-.009-2.7-.006-5.395-.006-8.092v-.294C-773.3,645.649-773.356,645.669-773.4,645.7Zm7.35,11.508q0-4.165.007-8.33a.346.346,0,0,0-.223-.336q-2.445-1.4-4.888-2.8c-.075-.043-.155-.076-.253-.124-.006.075-.013.122-.013.169,0,2.767,0,5.533-.007,8.3,0,.2.106.256.235.329l3.287,1.877,1.839,1.053C-766.062,657.263-766.055,657.234-766.055,657.2Zm-20.5-14.046q3.441,1.937,6.881,3.877a.349.349,0,0,0,.4-.027q1.6-.923,3.2-1.84l1.914-1.1c-.038-.044-.052-.073-.075-.086q-3.437-1.974-6.878-3.94a.319.319,0,0,0-.266,0c-1.767.992-3.53,1.99-5.336,3.012C-786.636,643.105-786.6,643.135-786.556,643.158Zm16.168.969c1.7.974,3.394,1.95,5.1,2.914a.415.415,0,0,0,.341-.03q3.409-1.9,6.808-3.82a2.23,2.23,0,0,0,.188-.133c-.058-.04-.089-.065-.123-.085q-2.567-1.452-5.132-2.909a.351.351,0,0,0-.4.014q-2.621,1.51-5.248,3.01c-.541.31-1.079.622-1.645.948C-770.446,644.083-770.419,644.109-770.388,644.127Zm-9.944-5.979a.435.435,0,0,0,.262.437q3.288,1.872,6.568,3.758c.082.047.169.086.264.135a.971.971,0,0,0,.017-.115c0-1.959,0-3.918.007-5.878,0-.195-.1-.256-.233-.331q-2.3-1.324-4.591-2.65l-2.287-1.323C-780.325,634.21-780.321,636.18-780.331,638.148Zm9.035,4.282q3.4-1.946,6.8-3.889a.345.345,0,0,0,.177-.365q0-2.835,0-5.668c0-.093-.009-.187-.014-.3-.066.03-.1.043-.134.062q-3.392,1.96-6.787,3.916c-.168.1-.17.213-.17.365q0,2.461,0,4.923v1.013C-771.35,642.454-771.322,642.444-771.3,642.43Z" transform="translate(787.612 -626.772)" fill="#aaa6c9"/>
</svg>
