<svg xmlns="http://www.w3.org/2000/svg" width="27.559" height="27.661" viewBox="0 0 27.559 27.661">
  <g id="Group_7994" data-name="Group 7994" transform="translate(481.834 79.768)">
    <path id="Path_19077" data-name="Path 19077" d="M-273.415,140.626a1.067,1.067,0,0,1-.611-1.068c.011-3.494.005-6.989.006-10.483,0-.765.332-1.1,1.094-1.1,1.263,0,2.527.007,3.79-.005.27,0,.359.081.356.352-.012,1.057-.01,2.115,0,3.172a1.067,1.067,0,0,0,.875,1.045,1.106,1.106,0,0,0,1.27-.711,1.7,1.7,0,0,0,.085-.582c0-.977.008-1.953-.007-2.93,0-.279.091-.349.356-.347,1.254.011,2.509.017,3.763,0a1.058,1.058,0,0,1,1.068.611q0,5.915.005,11.829c0,.184-.036.221-.22.22Q-267.5,140.621-273.415,140.626Z" transform="translate(-192.91 -192.738)" fill="#aaa6c9"/>
    <path id="Path_19078" data-name="Path 19078" d="M-481.219,140.631a.993.993,0,0,1-.615-1c.009-3.538,0-7.077.005-10.615a.909.909,0,0,1,1.041-1.033c1.272,0,2.544.007,3.816-.006.274,0,.352.085.348.354-.014,1-.011,2.007,0,3.01a1.117,1.117,0,0,0,1.17,1.218,1.058,1.058,0,0,0,1.057-1.063c.011-1.039,0-2.078.005-3.117,0-.394,0-.4.383-.4q1.908,0,3.816,0a.925.925,0,0,1,1.036,1.048c0,3.511,0,7.023.006,10.534a1.066,1.066,0,0,1-.611,1.068Z" transform="translate(0 -192.849)" fill="#aaa6c9"/>
    <path id="Path_19079" data-name="Path 19079" d="M-371.749-67.1h-5.242a.95.95,0,0,1-1.089-1.086q0-5.269,0-10.538a.92.92,0,0,1,1.036-1.045h3.817c.379,0,.38,0,.381.391,0,1.03,0,2.061,0,3.091a1.1,1.1,0,0,0,.863,1.064,1.113,1.113,0,0,0,1.229-.559,1.2,1.2,0,0,0,.134-.6q0-1.519,0-3.038c0-.352,0-.354.364-.354h3.844a.915.915,0,0,1,1.026,1.028q0,2.715,0,5.43,0,2.527,0,5.054c0,.834-.323,1.157-1.153,1.157Z" transform="translate(-96.314 0)" fill="#aaa6c9"/>
  </g>
</svg>
