<svg id="Group_11954" data-name="Group 11954" xmlns="http://www.w3.org/2000/svg" width="8.848" height="8.848" viewBox="0 0 8.848 8.848">
  <path id="Path_19809" data-name="Path 19809" d="M3487.912,2813.107a.656.656,0,0,1,.219-.494q1.792-1.789,3.583-3.582,1.958-1.959,3.919-3.918a.645.645,0,0,1,.966.856c-.024.027-.05.053-.075.078l-7.473,7.472a.642.642,0,0,1-.777.16A.628.628,0,0,1,3487.912,2813.107Z" transform="translate(-3487.911 -2804.902)" fill="#f60"/>
  <path id="Path_19812" data-name="Path 19812" d="M0,8.2A.655.655,0,0,1,.219,7.71Q2.011,5.921,3.8,4.129,5.761,2.17,7.72.211a.645.645,0,0,1,.966.856c-.024.027-.05.053-.076.079L1.138,8.617a.642.642,0,0,1-.777.159A.627.627,0,0,1,0,8.2Z" transform="translate(8.848 0) rotate(90)" fill="#f60"/>
</svg>
