<svg xmlns="http://www.w3.org/2000/svg" width="35.529" height="46.093" viewBox="0 0 35.529 46.093">
  <g id="Group_12201" data-name="Group 12201" transform="translate(-1477.001 -1145)">
    <path id="Path_19563" data-name="Path 19563" d="M241.687,256.1a6.638,6.638,0,0,1,0-9.376l7.552-7.552a4.788,4.788,0,1,1,6.771,6.771l-7.031,7.031a2.947,2.947,0,1,1-4.167-4.167l5.99-5.99a1.105,1.105,0,1,1,1.563,1.563l-5.99,5.99a.736.736,0,0,0,1.041,1.041l7.031-7.031a2.578,2.578,0,1,0-3.646-3.646l-7.552,7.552a4.419,4.419,0,1,0,6.25,6.25l6.511-6.511a1.105,1.105,0,0,1,1.563,1.563l-6.511,6.511a6.638,6.638,0,0,1-9.376,0Z" transform="translate(1245.941 926.796)" fill="#747474"/>
    <g id="Path_19564" data-name="Path 19564" transform="translate(1342.82 1145.004)" fill="#747474">
      <path d="M 164.7543029785156 45.93919372558594 L 139.1365661621094 45.93919372558594 C 136.4867706298828 45.93919372558594 134.3310089111328 43.78342437744141 134.3310089111328 41.13363647460938 L 134.3310089111328 4.951564788818359 C 134.3310089111328 2.301774978637695 136.4867706298828 0.1460049152374268 139.1365661621094 0.1460049152374268 L 154.1044006347656 0.1460049152374268 C 155.4313201904297 0.1460049152374268 156.6802673339844 0.6614549160003662 157.6211700439453 1.597404956817627 L 168.0908203125 12.01683521270752 L 168.1182098388672 12.04410457611084 C 169.034912109375 12.9713773727417 169.5598754882812 14.24732398986816 169.5598754882812 15.5512752532959 L 169.5598754882812 41.13363647460938 C 169.5598754882812 43.78342437744141 167.4040985107422 45.93919372558594 164.7543029785156 45.93919372558594 Z M 139.1363830566406 2.926574945449829 C 138.0199279785156 2.926574945449829 137.1116180419922 3.834864854812622 137.1116180419922 4.951314926147461 L 137.111328125 41.13338470458984 C 137.111328125 42.24983596801758 138.0196075439453 43.15813446044922 139.1360626220703 43.15813446044922 L 164.7538146972656 43.15813446044922 C 165.8702697753906 43.15813446044922 166.7785797119141 42.24983596801758 166.7785797119141 41.13338470458984 L 166.7788391113281 15.55049514770508 C 166.7788391113281 14.95920467376709 166.5482330322266 14.40430450439453 166.1295013427734 13.98799514770508 L 155.6598815917969 3.568594932556152 C 155.2441711425781 3.154594898223877 154.6919708251953 2.926574945449829 154.1050415039062 2.926574945449829 L 139.1363830566406 2.926574945449829 Z" stroke="none"/>
      <path d="M 139.1365661621094 0.2959976196289062 C 136.5694732666016 0.2959976196289062 134.4809875488281 2.384475708007812 134.4809875488281 4.951557159423828 L 134.4809875488281 41.13363647460938 C 134.4809875488281 43.70071792602539 136.5694732666016 45.78918838500977 139.1365661621094 45.78918838500977 L 164.7543029785156 45.78918838500977 C 167.3213806152344 45.78918838500977 169.4098663330078 43.70071792602539 169.4098663330078 41.13363647460938 L 169.4098663330078 15.55127716064453 C 169.4098663330078 14.28677368164062 168.9009246826172 13.04946517944336 168.0121002197266 12.15011978149414 L 157.515380859375 1.703746795654297 C 156.6027679443359 0.7959480285644531 155.3914031982422 0.2959976196289062 154.1044006347656 0.2959976196289062 L 139.1365661621094 0.2959976196289062 M 164.7538146972656 43.30813598632812 L 139.1360626220703 43.30813598632812 C 137.9369049072266 43.30813598632812 136.9613189697266 42.33254623413086 136.9613189697266 41.13338470458984 L 136.9616241455078 4.951316833496094 C 136.9616241455078 3.752155303955078 137.9372100830078 2.776565551757812 139.1363830566406 2.776565551757812 L 154.1050415039062 2.776565551757812 C 154.7319183349609 2.776565551757812 155.3217010498047 3.020118713378906 155.7657012939453 3.462276458740234 L 166.2352600097656 13.88161849975586 C 166.6825256347656 14.32629776000977 166.9288482666016 14.91897773742676 166.9288482666016 15.55048751831055 L 166.9285736083984 41.13338470458984 C 166.9285736083984 42.33254623413086 165.9529876708984 43.30813598632812 164.7538146972656 43.30813598632812 M 139.1365661621094 -0.004001617431640625 L 154.1044006347656 -0.004001617431640625 C 155.4712066650391 -0.004001617431640625 156.7576141357422 0.5268173217773438 157.7269592285156 1.491058349609375 L 168.1966247558594 11.91051864624023 L 168.19677734375 11.91042709350586 C 169.1581420898438 12.86759567260742 169.7098693847656 14.19416618347168 169.7098693847656 15.55127716064453 L 169.7098693847656 41.13363647460938 C 169.7098693847656 43.86586761474609 167.4868774414062 46.08918762207031 164.7543029785156 46.08918762207031 L 139.1365661621094 46.08918762207031 C 136.4043273925781 46.08918762207031 134.1809997558594 43.86619567871094 134.1809997558594 41.13363647460938 L 134.1809997558594 4.951557159423828 C 134.1809997558594 2.219326019287109 136.4039916992188 -0.004001617431640625 139.1365661621094 -0.004001617431640625 Z M 164.7538146972656 43.00813674926758 C 165.7874450683594 43.00813674926758 166.6285705566406 42.16677856445312 166.6285705566406 41.13338470458984 L 166.6288452148438 15.55048751831055 C 166.6288452148438 14.9997673034668 166.4140777587891 14.48243713378906 166.0237426757812 14.0943660736084 L 155.5540771484375 3.674915313720703 C 155.1666564941406 3.289096832275391 154.6516265869141 3.076568603515625 154.1050415039062 3.076568603515625 L 139.1363830566406 3.076568603515625 C 138.1027526855469 3.076568603515625 137.2616271972656 3.917926788330078 137.2616271972656 4.951316833496094 L 137.2613220214844 41.13338470458984 C 137.2613220214844 42.16702651977539 138.1026916503906 43.00813674926758 139.1360626220703 43.00813674926758 L 164.7538146972656 43.00813674926758 Z" stroke="none" fill="#fbfaff"/>
    </g>
    <g id="Path_19565" data-name="Path 19565" transform="translate(1126.859 1061.976)" fill="#747474">
      <path d="M 377.8555908203125 99.56568145751953 L 373.758544921875 99.56568145751953 C 371.4985961914062 99.56568145751953 369.6600036621094 97.72708892822266 369.6600036621094 95.46714782714844 L 369.6600036621094 92.01239776611328 C 369.6600036621094 91.24573516845703 370.2837524414062 90.62200164794922 371.0504150390625 90.62200164794922 C 371.8170776367188 90.62200164794922 372.4408264160156 91.24573516845703 372.4408264160156 92.01239776611328 L 372.4408264160156 95.13312530517578 L 372.4407348632812 95.46707153320312 C 372.4407348632812 95.81912231445312 372.5777282714844 96.15006256103516 372.8265075683594 96.39893341064453 C 373.0752563476562 96.64780426025391 373.4060668945312 96.78485870361328 373.7579650878906 96.78485870361328 L 377.8555908203125 96.78485870361328 C 378.6222839355469 96.78485870361328 379.2460327148438 97.40859985351562 379.2460327148438 98.17528533935547 C 379.2460327148438 98.94194793701172 378.6222839355469 99.56568145751953 377.8555908203125 99.56568145751953 Z" stroke="none"/>
      <path d="M 377.8555908203125 99.41567993164062 C 378.5395812988281 99.41567993164062 379.0960083007812 98.85924530029297 379.0960083007812 98.17528533935547 C 379.0960083007812 97.49131011962891 378.5395812988281 96.93486022949219 377.8555908203125 96.93486022949219 L 373.7579650878906 96.93486022949219 C 372.9489135742188 96.93486022949219 372.2907409667969 96.27641296386719 372.2907409667969 95.46707153320312 L 372.2908325195312 92.01239776611328 C 372.2908325195312 91.32843780517578 371.734375 90.77200317382812 371.0504150390625 90.77200317382812 C 370.366455078125 90.77200317382812 369.8100280761719 91.32843780517578 369.8100280761719 92.01239776611328 L 369.8100280761719 95.46714782714844 C 369.8100280761719 97.64437866210938 371.581298828125 99.41567993164062 373.758544921875 99.41567993164062 L 377.8555908203125 99.41567993164062 M 377.8555908203125 99.71568298339844 L 373.758544921875 99.71568298339844 C 371.4120788574219 99.71568298339844 369.510009765625 97.8135986328125 369.510009765625 95.46714782714844 L 369.510009765625 92.01239776611328 C 369.510009765625 91.16197967529297 370.2000122070312 90.47200012207031 371.0504150390625 90.47200012207031 C 371.9008178710938 90.47200012207031 372.5908203125 91.16199493408203 372.5908203125 92.01239776611328 L 372.5908203125 95.46714782714844 L 372.5907287597656 95.46707153320312 C 372.5907287597656 96.11219787597656 373.1132507324219 96.63486480712891 373.7579650878906 96.63486480712891 C 373.7581481933594 96.63486480712891 373.7583312988281 96.63486480712891 373.758544921875 96.63486480712891 L 377.8555908203125 96.63486480712891 C 378.7060546875 96.63486480712891 379.3960266113281 97.32485961914062 379.3960266113281 98.17528533935547 C 379.3960266113281 99.02568817138672 378.7060241699219 99.71568298339844 377.8555908203125 99.71568298339844 Z" stroke="none" fill="#fbfaff"/>
    </g>
  </g>
</svg>
