<svg xmlns="http://www.w3.org/2000/svg" width="22.5" height="23.43" viewBox="0 0 22.5 23.43">
  <g id="Group_12229" data-name="Group 12229" transform="translate(-0.75 -0.82)">
    <path id="Path_19753" data-name="Path 19753" d="M21,7.353v9.294a.6.6,0,0,1-.309.524l-8.4,4.667a.6.6,0,0,1-.583,0l-8.4-4.667A.6.6,0,0,1,3,16.647V7.353a.6.6,0,0,1,.309-.524l8.4-4.667a.6.6,0,0,1,.583,0l8.4,4.667A.6.6,0,0,1,21,7.353Z" fill="none" stroke="#cacaca" stroke-linecap="round" stroke-linejoin="round" stroke-width="2.5"/>
    <path id="Path_19750" data-name="Path 19750" d="M12,23a1,1,0,1,0-1-1A1,1,0,0,0,12,23Z" fill="#cacaca" stroke="#cacaca" stroke-linecap="round" stroke-linejoin="round" stroke-width="2.5"/>
    <path id="Path_19751" data-name="Path 19751" d="M3,8A1,1,0,1,0,2,7,1,1,0,0,0,3,8Z" fill="#cacaca" stroke="#cacaca" stroke-linecap="round" stroke-linejoin="round" stroke-width="2.5"/>
    <path id="Path_19752" data-name="Path 19752" d="M3,18a1,1,0,1,0-1-1A1,1,0,0,0,3,18Z" transform="translate(18 -10)" fill="#cacaca" stroke="#cacaca" stroke-linecap="round" stroke-linejoin="round" stroke-width="2.5"/>
    <path id="Path_19754" data-name="Path 19754" d="M3.528,7.294l8.18,4.545a.6.6,0,0,0,.583,0L20.5,7.278" fill="none" stroke="#cacaca" stroke-linecap="round" stroke-linejoin="round" stroke-width="2.5"/>
    <path id="Path_19755" data-name="Path 19755" d="M12,21V12" fill="none" stroke="#cacaca" stroke-linecap="round" stroke-linejoin="round" stroke-width="2.5"/>
  </g>
</svg>
