<svg xmlns="http://www.w3.org/2000/svg" width="25.92" height="25.884" viewBox="0 0 25.92 25.884">
  <g id="Group_12225" data-name="Group 12225" transform="translate(-9843.063 -3167.29)">
    <path id="Path_19826" data-name="Path 19826" d="M9851.972,3215.59a3.355,3.355,0,0,1-1.416-1.009q-3.422-3.428-6.854-6.846a1.729,1.729,0,0,1-.527-1.922,2.125,2.125,0,0,1,.484-.753q5.484-5.5,10.991-10.973a.81.81,0,0,1,.513-.218c1.256-.01,2.512.007,3.769.016a.631.631,0,0,1,.113.024,10.033,10.033,0,0,0,.2,2.477.474.474,0,0,1-.072.257,2.1,2.1,0,0,0,.312,2.479,2.106,2.106,0,0,0,3.621-1.67,2.1,2.1,0,0,0-.74-1.393.571.571,0,0,1-.173-.307c-.073-.456-.127-.916-.182-1.375a1.549,1.549,0,0,1,.025-.281c.571.084,1.12.157,1.666.246a.769.769,0,0,1,.666.723c.095.683.186,1.367.252,2.053.107,1.114.229,2.229.276,3.346.043,1.007.008,2.018-.029,3.025a.948.948,0,0,1-.285.563q-5.448,5.462-10.911,10.91a2.575,2.575,0,0,1-1.044.626Zm-.613-7.119c.136.08.235.143.338.2a2.881,2.881,0,0,0,1.835.408,2.353,2.353,0,0,0,2.019-2.338,5.933,5.933,0,0,0-.355-1.406c-.18-.541-.422-1.06-.605-1.6a.643.643,0,0,1,.21-.774.674.674,0,0,1,.828-.007,3.245,3.245,0,0,1,.762.687c.31.419.549.889.825,1.349l1.3-.756a4.981,4.981,0,0,0-1.108-1.758l.849-.776-.956-.963-.845.915a3.522,3.522,0,0,0-1.627-.6,2.182,2.182,0,0,0-2.321,2.509,11.129,11.129,0,0,0,.5,1.526,12.708,12.708,0,0,1,.45,1.251.744.744,0,0,1-1.032.876,1.322,1.322,0,0,1-.456-.261,4.878,4.878,0,0,1-.741-.82c-.279-.432-.492-.907-.741-1.379l-1.353.8a5.847,5.847,0,0,0,1.259,2.079l-.917.859.943.94Z" transform="translate(0 -22.416)" fill="#cacaca"/>
    <path id="Path_19827" data-name="Path 19827" d="M9958.909,3173c-.051.416-.092.833-.155,1.247a14.246,14.246,0,0,1-1.611,4.855.769.769,0,1,1-1.35-.736,13.092,13.092,0,0,0,1.311-3.666,9.449,9.449,0,0,0,.189-3.16,3.045,3.045,0,0,0-6.038-.122,7.9,7.9,0,0,0,.184,2.279c.071.473.177.941.261,1.413a.784.784,0,0,1-.616.905.735.735,0,0,1-.88-.57,31.218,31.218,0,0,1-.523-3.513,4.6,4.6,0,0,1,9.175-.436c.011.081.036.16.055.24Z" transform="translate(-89.925)" fill="#cacaca"/>
    <path id="Path_19828" data-name="Path 19828" d="M9884.055,3245.515l-.942.969-.943-.94.917-.859a5.847,5.847,0,0,1-1.259-2.079l1.353-.8c.249.472.462.947.741,1.379a4.878,4.878,0,0,0,.741.82,1.331,1.331,0,0,0,.456.261.744.744,0,0,0,1.032-.876,13.224,13.224,0,0,0-.449-1.251,11,11,0,0,1-.5-1.526,2.182,2.182,0,0,1,2.321-2.509,3.522,3.522,0,0,1,1.627.6l.845-.915.956.963-.849.776a5,5,0,0,1,1.108,1.758l-1.3.756c-.275-.459-.516-.93-.824-1.349a3.27,3.27,0,0,0-.763-.687.674.674,0,0,0-.828.007.643.643,0,0,0-.21.774c.184.54.426,1.059.605,1.6a5.933,5.933,0,0,1,.355,1.406,2.353,2.353,0,0,1-2.019,2.338,2.882,2.882,0,0,1-1.835-.408C9884.29,3245.657,9884.19,3245.6,9884.055,3245.515Z" transform="translate(-32.697 -59.46)" fill="#fff"/>
  </g>
</svg>
