<svg xmlns="http://www.w3.org/2000/svg" width="28.035" height="25.485" viewBox="0 0 28.035 25.485">
  <g id="Group_12230" data-name="Group 12230" transform="translate(-1610.282 -553)">
    <path id="Path_16940" data-name="Path 16940" d="M464.2-211.167q-4.342,0-8.684,0a1.351,1.351,0,0,1-1.456-1.055.13.13,0,0,1-.008-.029c.018-1.744-.276-3.523.461-5.194a6.253,6.253,0,0,1,5.346-3.931,11.484,11.484,0,0,1,1.276-.043c2.29,0,4.58-.01,6.87,0a6.4,6.4,0,0,1,6.123,4.514,6.306,6.306,0,0,1,.285,1.872c0,.783,0,1.566,0,2.349a1.36,1.36,0,0,1-1.529,1.515q-2.706,0-5.413,0Z" transform="translate(1156.27 789.649)" fill="#cacaca"/>
    <path id="Path_16941" data-name="Path 16941" d="M508.682-400.424a6.352,6.352,0,0,1-6.372-6.4,6.342,6.342,0,0,1,6.373-6.349,6.334,6.334,0,0,1,6.386,6.423A6.347,6.347,0,0,1,508.682-400.424Z" transform="translate(1111.802 966.185)" fill="#cacaca"/>
    <path id="Path_16942" data-name="Path 16942" d="M648.192-406.971a7.471,7.471,0,0,0-2.359-5.492c-.284-.274-.283-.286.077-.436a6.39,6.39,0,0,1,8.61,4.713,6.359,6.359,0,0,1-5.121,7.494,6.122,6.122,0,0,1-3.556-.365c-.236-.1-.271-.165-.071-.353a7.538,7.538,0,0,0,2.316-4.258A6.473,6.473,0,0,0,648.192-406.971Z" transform="translate(979.852 966.359)" fill="#cacaca"/>
    <path id="Path_16943" data-name="Path 16943" d="M690.315-211.3c-.843,0-1.686,0-2.529,0-.257,0-.324-.072-.2-.311a2.23,2.23,0,0,0,.226-1.008,25.112,25.112,0,0,0-.062-3.417,7.424,7.424,0,0,0-2.352-4.65,7.384,7.384,0,0,0-.8-.659c-.048-.034-.113-.068-.1-.134s.087-.075.145-.073a22.1,22.1,0,0,1,4.855.229,6.349,6.349,0,0,1,4.678,5.39,28.05,28.05,0,0,1,.042,3.417,1.286,1.286,0,0,1-1.372,1.211C692-211.3,691.157-211.3,690.315-211.3Z" transform="translate(944.072 789.787)" fill="#cacaca"/>
  </g>
</svg>
