<svg id="Group_6561" data-name="Group 6561" xmlns="http://www.w3.org/2000/svg" width="19.914" height="19.936" viewBox="0 0 19.914 19.936">
  <rect id="Rectangle_1519" data-name="Rectangle 1519" width="15" height="12" transform="translate(2.624 4)" fill="#fff"/>
  <g id="Group_6559" data-name="Group 6559" transform="translate(0 0)">
    <path id="Path_17912" data-name="Path 17912" d="M142.667,63.277V79.923a2.076,2.076,0,0,0,1.634,1.634h16.646a2.076,2.076,0,0,0,1.634-1.634V63.277l-.035-.131a2.084,2.084,0,0,0-2.009-1.525c-5.276.015-10.551.007-15.827.008a1.844,1.844,0,0,0-.407.022A2.046,2.046,0,0,0,142.667,63.277ZM155.66,75.459c-.048-.058-.025-.125-.025-.186,0-.454,0-.907,0-1.361,0-.342,0-.343-.334-.343h-4.044c-1.16,0-2.32-.006-3.48,0a1.025,1.025,0,0,1-1.1-1.082c.023-1.2.01-2.4,0-3.6,0-.187.063-.252.248-.248.473.009.946,0,1.419,0,.247,0,.26.014.26.269,0,.823,0,1.646,0,2.469,0,.16.044.232.22.232q3.3-.007,6.591,0c.176,0,.221-.067.218-.23-.007-.492,0-.985,0-1.478,0-.061-.024-.129.035-.194.044.04.088.076.128.116.871.87,1.739,1.744,2.615,2.609.123.122.12.188,0,.308-.871.861-1.734,1.73-2.6,2.6C155.766,75.387,155.733,75.449,155.66,75.459Z" transform="translate(-142.667 -61.621)"/>
  </g>
</svg>
