<svg id="Group_7886" data-name="Group 7886" xmlns="http://www.w3.org/2000/svg" width="27.858" height="26" viewBox="0 0 27.858 26">
  <path id="Path_19032" data-name="Path 19032" d="M336.915,266.4h13.436c.465,0,.466,0,.466.478,0,5-.03,9.991.017,14.986a3,3,0,0,1-3.046,3.006q-11.2,0-22.393,0A2.324,2.324,0,0,1,323,282.555c-.007-.143-.005-.287-.005-.43q0-7.637,0-15.273c0-.453,0-.453.455-.453Zm6.571,6.728c.344,0,.688,0,1.032,0,.451-.007.685-.215.694-.657q.021-1.06,0-2.121a.65.65,0,0,0-.661-.688q-1.089-.024-2.178,0a.605.605,0,0,0-.626.646q-.016,1.089,0,2.179a.6.6,0,0,0,.652.641C342.76,273.131,343.123,273.124,343.486,273.125Zm-1.743,6.017h0c0,.363-.006.726,0,1.089a.636.636,0,0,0,.678.689q1.06.018,2.121,0a.6.6,0,0,0,.664-.636q.032-1.088,0-2.178a.621.621,0,0,0-.68-.654q-1.075-.01-2.15,0a.594.594,0,0,0-.633.628C341.734,278.435,341.743,278.789,341.743,279.143Zm-5.2-6.018c.363,0,.726.006,1.089,0a.568.568,0,0,0,.642-.635q.012-1.075,0-2.15a.634.634,0,0,0-.682-.684q-1.046-.015-2.093,0a.657.657,0,0,0-.693.687q-.019,1.06,0,2.121a.626.626,0,0,0,.675.659C335.838,273.131,336.192,273.124,336.546,273.124Zm1.733,6.082c0-.373.007-.745,0-1.118a.594.594,0,0,0-.628-.634q-1.089-.014-2.178,0a.619.619,0,0,0-.659.645q-.022,1.074,0,2.15a.641.641,0,0,0,.651.668q1.1.027,2.207,0a.581.581,0,0,0,.609-.649C338.285,279.913,338.279,279.56,338.278,279.206Zm-8.537-1.756c-.344,0-.688,0-1.033,0a.655.655,0,0,0-.734.722q-.011,1,0,2.008a.68.68,0,0,0,.731.741q.989.014,1.979,0a.708.708,0,0,0,.76-.753q.013-1.032,0-2.065a.6.6,0,0,0-.671-.652C330.43,277.445,330.085,277.45,329.741,277.45Zm-.059-4.326v0h1a.7.7,0,0,0,.76-.743c.009-.678.008-1.357,0-2.036a.633.633,0,0,0-.675-.691q-1.046-.016-2.093,0a.658.658,0,0,0-.7.681c-.014.707-.013,1.415,0,2.122a.633.633,0,0,0,.672.665C328.993,273.131,329.338,273.124,329.682,273.124Z" transform="translate(-322.975 -258.868)" fill="#cacaca"/>
  <path id="Path_19033" data-name="Path 19033" d="M336.612,173.828H323.264c-.105,0-.21,0-.316,0s-.19-.049-.188-.17a30.231,30.231,0,0,1,.062-3.61,2.241,2.241,0,0,1,2.382-1.988c.067,0,.134,0,.2,0a20.119,20.119,0,0,1,2.2.048,16.425,16.425,0,0,1,.059,2.2c.006.134,0,.268,0,.4a.786.786,0,0,0,.557.754.821.821,0,0,0,1.087-.82c0-.746.007-1.493-.005-2.239,0-.26.082-.347.347-.347q6.616.01,13.233,0c.267,0,.349.091.346.348-.011.736-.007,1.473,0,2.21a.824.824,0,1,0,1.643.007c0-.727.011-1.455,0-2.181-.005-.277.067-.392.369-.385.8.019,1.607,0,2.411.011a3.014,3.014,0,0,1,2.781,2.186,2.165,2.165,0,0,1,.041.455c0,.909,0,1.818,0,2.727,0,.4,0,.4-.4.4Z" transform="translate(-322.736 -168.047)" fill="#cacaca"/>
</svg>
