<svg xmlns="http://www.w3.org/2000/svg" width="27.924" height="24.442" viewBox="0 0 27.924 24.442">
  <g id="Group_11355" data-name="Group 11355" transform="translate(41.25 -217.818)">
    <g id="Group_7920" data-name="Group 7920" transform="translate(-41.25 217.818)">
      <path id="Path_19038" data-name="Path 19038" d="M-41.25,376.718a4.22,4.22,0,0,1,.708-1.607,3.625,3.625,0,0,1,2.6-1.466,8.143,8.143,0,0,1,2.68.114,3.4,3.4,0,0,1,1.149.546c.159.111.2.2.048.361a8.077,8.077,0,0,0-2.169,5.3c-.088,1.543-.02,3.086-.029,4.629,0,.235-.056.326-.3.324-1.035-.008-2.071,0-3.106-.008a1.667,1.667,0,0,1-1.587-1.264Z" transform="translate(41.25 -362.259)" fill="#cacaca"/>
      <path id="Path_19039" data-name="Path 19039" d="M249.938,383.52a1.733,1.733,0,0,1-1.884,1.323c-.926,0-1.853,0-2.779,0-.236,0-.33-.061-.327-.325.016-1.362.035-2.725,0-4.087a8.578,8.578,0,0,0-1.256-4.642,7.942,7.942,0,0,0-.927-1.174c-.17-.176-.131-.274.051-.4a3.608,3.608,0,0,1,1.8-.646,8.3,8.3,0,0,1,2.253.031,3.643,3.643,0,0,1,2.974,2.7c.034.113.063.227.1.34Z" transform="translate(-222.013 -362.189)" fill="#cacaca"/>
      <path id="Path_19040" data-name="Path 19040" d="M63.341,382.1c.016.772.034,1.679.008,2.588a1.826,1.826,0,0,1-1.925,2.024c-1.833.133-3.666.1-5.5.066-1.8-.03-3.6-.007-5.4-.018a1.922,1.922,0,0,1-1.927-1.632,10.112,10.112,0,0,1-.054-1.251c-.01-1.027-.033-2.054-.007-3.08a7.962,7.962,0,0,1,.616-3.188,6.494,6.494,0,0,1,4.993-3.8,17.489,17.489,0,0,1,3.093-.084,6.655,6.655,0,0,1,5.958,5.2,5.468,5.468,0,0,1,.145,1.214C63.338,380.752,63.341,381.361,63.341,382.1Z" transform="translate(-41.997 -362.369)" fill="#cacaca"/>
      <path id="Path_19041" data-name="Path 19041" d="M94.767,222.6A4.764,4.764,0,1,1,90,217.818,4.761,4.761,0,0,1,94.767,222.6Z" transform="translate(-76.04 -217.818)" fill="#cacaca"/>
      <path id="Path_19042" data-name="Path 19042" d="M-16.719,268.878a3.028,3.028,0,0,1-3.013,3.025,3.03,3.03,0,0,1-3.024-3.041,3.034,3.034,0,0,1,3.014-3.029A3.033,3.033,0,0,1-16.719,268.878Z" transform="translate(24.101 -262.34)" fill="#cacaca"/>
      <path id="Path_19043" data-name="Path 19043" d="M241.244,268.864a3.018,3.018,0,1,1,3,3.038A3.034,3.034,0,0,1,241.244,268.864Z" transform="translate(-220.7 -262.34)" fill="#cacaca"/>
    </g>
  </g>
</svg>
