<svg xmlns="http://www.w3.org/2000/svg" width="23.223" height="27.893" viewBox="0 0 23.223 27.893">
  <g id="Group_11356" data-name="Group 11356" transform="translate(-175.955 -183.376)">
    <g id="Group_7922" data-name="Group 7922" transform="translate(175.955 183.376)">
      <path id="Path_19044" data-name="Path 19044" d="M211.284,211.269H195.171c-.088-.022-.176-.043-.263-.067a3.364,3.364,0,0,1-2.592-2.774,14.206,14.206,0,0,1-.055-2.036c-.011-.246.094-.315.321-.311.535.009,1.071.007,1.606,0a1.888,1.888,0,1,0,0-3.777c-.535-.007-1.071-.009-1.606,0-.23,0-.324-.069-.32-.312.011-.816.013-1.633,0-2.449,0-.261.1-.327.338-.323.535.009,1.071.008,1.606,0a1.888,1.888,0,1,0,0-3.776q-.816-.011-1.633,0c-.218,0-.307-.072-.3-.3.01-.825.011-1.651,0-2.477,0-.249.1-.311.325-.307.526.009,1.052.006,1.579,0a1.889,1.889,0,1,0-.008-3.778c-.535-.005-1.071-.007-1.606,0-.206,0-.293-.073-.289-.287.01-.526,0-1.052.005-1.579a3.415,3.415,0,0,1,3.346-3.339q7.607-.011,15.214,0a2.969,2.969,0,0,1,.7.088,3.458,3.458,0,0,1,2.658,3.394c.007,3.085,0,6.169,0,9.254q0,5.811,0,11.622a3.514,3.514,0,0,1-2.9,3.535Zm-7.433-8.182c1.6,0,3.191,0,4.786,0,.26,0,.359-.079.345-.343-.018-.353,0-.707,0-1.06a3.658,3.658,0,0,0-3.683-3.681q-1.441-.007-2.883,0a3.636,3.636,0,0,0-3.6,3.02,9.227,9.227,0,0,0-.073,1.709c0,.335.017.35.357.35Zm-.011-6.257a3.272,3.272,0,1,0,.014-6.543,3.272,3.272,0,0,0-.014,6.543Z" transform="translate(-190.966 -183.376)" fill="#cacaca"/>
      <path id="Path_19045" data-name="Path 19045" d="M178.133,348.586c-.353,0-.707.008-1.059,0a1.1,1.1,0,1,1,0-2.2q1.059-.02,2.119,0a1.1,1.1,0,1,1,0,2.2C178.84,348.595,178.487,348.586,178.133,348.586Z" transform="translate(-175.958 -333.524)" fill="#cacaca"/>
      <path id="Path_19046" data-name="Path 19046" d="M178.143,259.383c.344,0,.688-.007,1.032,0a1.1,1.1,0,1,1,0,2.205q-1.045.018-2.091,0a1.1,1.1,0,1,1,.027-2.206C177.455,259.378,177.8,259.383,178.143,259.383Z" transform="translate(-175.956 -253.391)" fill="#cacaca"/>
      <path id="Path_19047" data-name="Path 19047" d="M178.117,435.6c-.344,0-.688.007-1.032,0a1.1,1.1,0,1,1-.031-2.2c.724-.018,1.449-.019,2.173,0a1.1,1.1,0,0,1-.023,2.2C178.842,435.61,178.479,435.6,178.117,435.6Z" transform="translate(-175.955 -413.679)" fill="#cacaca"/>
    </g>
  </g>
</svg>
