<svg xmlns="http://www.w3.org/2000/svg" width="24.488" height="24.487" viewBox="0 0 24.488 24.487">
  <g id="Group_7935" data-name="Group 7935" transform="translate(-149.636 -297.39)">
    <g id="Group_7934" data-name="Group 7934" transform="translate(149.636 297.39)">
      <path id="Path_19065" data-name="Path 19065" d="M150.137,297.39h15.816a.852.852,0,0,1,.5.867c-.009,2.683,0,5.366-.006,8.049,0,.466.091.467-.44.523-.1.011-.2.031-.306.051a8.243,8.243,0,0,0-4.974,13.13c.056.074.176.148.137.234-.047.1-.185.051-.281.051q-5.028,0-10.055,0c-.626,0-.889-.259-.889-.879q0-10.581,0-21.161A.853.853,0,0,1,150.137,297.39Zm7.948,3.124q-2.22,0-4.441,0a.755.755,0,0,0-.86.868q0,1.743,0,3.486a.755.755,0,0,0,.864.864q4.417,0,8.833,0c.6,0,.872-.275.872-.88q0-1.719,0-3.438c0-.637-.264-.9-.9-.9Zm-3.835,6.879a2.426,2.426,0,0,0-.544.035.72.72,0,0,0-.535.654.686.686,0,0,0,.54.669,2.638,2.638,0,0,0,1.085,0,.686.686,0,0,0,.524-.658.719.719,0,0,0-.5-.654A2.106,2.106,0,0,0,154.25,307.394Zm3.821,1.4a2.374,2.374,0,0,0,.535-.035.719.719,0,0,0,.537-.652.683.683,0,0,0-.537-.671,2.6,2.6,0,0,0-1.108.008.687.687,0,0,0-.5.651.72.72,0,0,0,.5.656A2.075,2.075,0,0,0,158.071,308.792Zm-3.843,2.424a2.584,2.584,0,0,0-.507.032.72.72,0,0,0-.55.667.686.686,0,0,0,.548.663,2.64,2.64,0,0,0,1.085-.007.687.687,0,0,0,.516-.665.719.719,0,0,0-.512-.648A2.289,2.289,0,0,0,154.228,311.216Zm0,5.222a2.856,2.856,0,0,0,.521-.028.717.717,0,0,0,.567-.677.687.687,0,0,0-.553-.659,2.693,2.693,0,0,0-1.063,0,.689.689,0,0,0-.534.651.718.718,0,0,0,.541.674A2.378,2.378,0,0,0,154.233,316.438Z" transform="translate(-149.636 -297.39)" fill="#cacaca"/>
      <path id="Path_19066" data-name="Path 19066" d="M332.207,473.22a7.221,7.221,0,0,1-.745,2.379,6.8,6.8,0,0,1-5.325,3.706,6.88,6.88,0,1,1,5.992-8.035c.024.141.052.281.078.422Zm-5.168-3.026a.644.644,0,0,0-.243-.511,1.746,1.746,0,0,0-.568-.345.323.323,0,0,1-.227-.244.682.682,0,0,0-1.355.052.344.344,0,0,1-.2.268,1.749,1.749,0,0,0-.982,1.625,1.586,1.586,0,0,0,.947,1.5,11.008,11.008,0,0,0,1.226.529.555.555,0,0,1,.265.906.719.719,0,0,1-.568.3,1.646,1.646,0,0,1-1-.257.681.681,0,0,0-.707,1.165,2.288,2.288,0,0,0,.772.366.3.3,0,0,1,.257.264.693.693,0,0,0,.688.579.7.7,0,0,0,.664-.639.371.371,0,0,1,.228-.321,2,2,0,0,0,1.164-2.022,1.823,1.823,0,0,0-1.359-1.667,5.872,5.872,0,0,1-.985-.425c-.138-.079-.256-.172-.219-.356a.416.416,0,0,1,.312-.354.823.823,0,0,1,.786.138.64.64,0,0,0,.739.076A.656.656,0,0,0,327.039,470.194Z" transform="translate(-307.719 -454.871)" fill="#cacaca"/>
      <path id="Path_19067" data-name="Path 19067" d="M224.747,370.735c-1.186,0-2.372-.005-3.558,0-.236,0-.321-.061-.315-.308.016-.621.011-1.242,0-1.863,0-.194.06-.264.259-.263q3.63.007,7.26,0c.193,0,.268.057.265.258-.009.629-.01,1.258,0,1.887,0,.215-.063.29-.284.288C227.167,370.73,225.957,370.735,224.747,370.735Z" transform="translate(-216.335 -363.788)" fill="#cacaca"/>
    </g>
  </g>
</svg>
