<svg xmlns="http://www.w3.org/2000/svg" width="26.443" height="26.436" viewBox="0 0 26.443 26.436">
  <g id="Group_7933" data-name="Group 7933" transform="translate(-161.892 -287.64)">
    <g id="Group_7932" data-name="Group 7932" transform="translate(161.892 287.64)">
      <path id="Path_19062" data-name="Path 19062" d="M181.623,371.338H164.377c-.022-.013-.043-.034-.066-.037a2.884,2.884,0,0,1-2.42-2.952c.02-5.412.007-10.824.008-16.236a2.841,2.841,0,0,1,2.963-2.977q6.724,0,13.448,0h.261a.68.68,0,0,1-.209.26q-3.357,3.36-6.717,6.716a2.867,2.867,0,0,0-.727,1.169c-.325,1-.668,2-1,3.006a2.787,2.787,0,0,0-.165.779,2.325,2.325,0,0,0,3.076,2.292c1.03-.33,2.053-.685,3.082-1.019a3.078,3.078,0,0,0,1.254-.782q3.341-3.357,6.7-6.7c.066-.066.117-.163.241-.178V355q0,4.556,0,9.112c0,1.463.007,2.925,0,4.388a2.826,2.826,0,0,1-1.984,2.7C181.952,371.253,181.787,371.293,181.623,371.338Z" transform="translate(-161.892 -344.902)" fill="#cacaca"/>
      <path id="Path_19063" data-name="Path 19063" d="M479.8,290.635a2.121,2.121,0,0,1-.645.94c-.3.283-.587.58-.876.874-.081.082-.137.133-.247.023q-1.526-1.537-3.062-3.063c-.09-.089-.082-.145,0-.229.411-.4.817-.812,1.226-1.217a1.761,1.761,0,0,1,.607-.323h.516a2.5,2.5,0,0,1,.982.714q.381.4.782.783a2.525,2.525,0,0,1,.714.981Z" transform="translate(-453.354 -287.64)" fill="#cacaca"/>
      <path id="Path_19064" data-name="Path 19064" d="M299.319,342.73a.76.76,0,0,1-.73-.961c.357-1.13.74-2.251,1.115-3.375a.884.884,0,0,1,.237-.333q4.726-4.724,9.447-9.454c.145-.146.214-.118.342.011q1.461,1.476,2.938,2.937c.148.145.136.22,0,.36q-4.713,4.7-9.416,9.413a1.238,1.238,0,0,1-.5.31l-3.056,1.013A1.1,1.1,0,0,1,299.319,342.73Z" transform="translate(-289.148 -325.696)" fill="#cacaca"/>
    </g>
  </g>
</svg>
