<svg xmlns="http://www.w3.org/2000/svg" width="27.253" height="25.671" viewBox="0 0 27.253 25.671">
  <g id="Group_7927" data-name="Group 7927" transform="translate(-40.76 -103.34)">
    <g id="Group_7926" data-name="Group 7926" transform="translate(40.76 103.34)">
      <path id="Path_19051" data-name="Path 19051" d="M40.76,235.722a1.574,1.574,0,0,1,1.208-1.153,9.287,9.287,0,0,1,1.619-.033c.113,0,.155.076.156.175,0,.328,0,.656,0,.984,0,.151-.089.2-.224.2-.213,0-.426,0-.638,0a.681.681,0,0,0-.779.782q0,4.668,0,9.335,0,2.221,0,4.442c0,.565.244.756.808.818a1.021,1.021,0,0,0,1.18-.712c1.328-2.774,2.708-5.522,4.073-8.279a3.186,3.186,0,0,1,.31-.526,1.468,1.468,0,0,1,1.244-.635c3.528.014,7.057.007,10.585.007.39,0,.39,0,.391-.392q0-1.5,0-3.005c0-.319.057-.357.361-.256a1.432,1.432,0,0,1,1,1.367c.007.647,0,1.294,0,1.942,0,.344,0,.345.357.345,1.507,0,3.015.034,4.521-.012a.936.936,0,0,1,.908,1.491c-.763,1.431-1.514,2.869-2.271,4.3-.794,1.5-1.6,3.005-2.383,4.515a2.085,2.085,0,0,1-2.02,1.232q-9.335-.022-18.671,0a1.645,1.645,0,0,1-1.624-.938c-.047-.095-.076-.2-.114-.3Z" transform="translate(-40.76 -226.984)" fill="#cacaca"/>
      <path id="Path_19052" data-name="Path 19052" d="M107.154,113.794q0-4.48,0-8.961a1.333,1.333,0,0,1,1.5-1.489q4.8,0,9.6,0a1.106,1.106,0,0,1,.888.383c.993,1.1,2,2.183,3,3.27a.939.939,0,0,1,.258.674q-.006,4.362,0,8.724c0,.258-.087.334-.338.333-.8,0-.8,0-.8-.8q0-3.684,0-7.367c0-.471-.03-.5-.495-.5-.7,0-1.4,0-2.1,0-.471,0-.666-.193-.668-.659,0-.807,0-1.614,0-2.42,0-.44-.053-.495-.485-.495h-8.83c-.4,0-.432.028-.432.445q0,8.271,0,16.543a1.636,1.636,0,0,1-.193.813c-.186.342-.348.7-.524,1.046-.034.067-.053.166-.153.162s-.141-.1-.177-.179a1.187,1.187,0,0,1-.059-.5Q107.153,118.3,107.154,113.794Zm11.953-8.452c0,.533,0,1,0,1.464a.133.133,0,0,0,.152.145H120.4c.127,0,.141-.057.061-.143C120.027,106.336,119.59,105.865,119.107,105.342Z" transform="translate(-103.34 -103.34)" fill="#cacaca"/>
      <path id="Path_19053" data-name="Path 19053" d="M148.819,203.342q2.338,0,4.677,0a1.415,1.415,0,0,1,.368.032.677.677,0,0,1,.486.707.7.7,0,0,1-.606.612,2.011,2.011,0,0,1-.265.008h-9.353a.966.966,0,0,1-.515-.1.672.672,0,0,1-.346-.715.7.7,0,0,1,.613-.545c.1-.009.195,0,.292,0Z" transform="translate(-137.367 -197.599)" fill="#cacaca"/>
      <path id="Path_19054" data-name="Path 19054" d="M148.863,270.565h-4.734a.924.924,0,0,1-.392-.048.69.69,0,0,1-.422-.65.7.7,0,0,1,.5-.624,1.169,1.169,0,0,1,.369-.036h9.362a.922.922,0,0,1,.581.144.664.664,0,0,1-.341,1.21c-.337.012-.674.005-1.011.005Z" transform="translate(-137.425 -259.68)" fill="#cacaca"/>
      <path id="Path_19055" data-name="Path 19055" d="M145.533,335.776c-.131.065-.265.126-.393.2a1.737,1.737,0,0,0-.79.864.355.355,0,0,1-.44.232.707.707,0,0,1-.6-.616.647.647,0,0,1,.516-.7A7.372,7.372,0,0,1,145.533,335.776Z" transform="translate(-137.417 -322.363)" fill="#cacaca"/>
    </g>
  </g>
</svg>
