<svg xmlns="http://www.w3.org/2000/svg" width="23.538" height="28.685" viewBox="0 0 23.538 28.685">
  <g id="Group_7925" data-name="Group 7925" transform="translate(-17.51 -57.195)">
    <g id="Group_7924" data-name="Group 7924" transform="translate(17.51 57.195)">
      <path id="Path_19048" data-name="Path 19048" d="M107.272,169.536a1.836,1.836,0,0,1-1.235-2.129c0-.179.085-.253.26-.241.093.006.186,0,.28,0q7.26,0,14.52,0a2.5,2.5,0,0,0,2.408-1.377,2.686,2.686,0,0,0,.261-1.274q0-7.134,0-14.268,0-2.882,0-5.763c0-.373,0-.377.372-.374a3.97,3.97,0,0,1,.837.03,1.623,1.623,0,0,1,1.276,1.57c.005.1,0,.205,0,.308q0,10.813.006,21.626a1.771,1.771,0,0,1-1.248,1.893Z" transform="translate(-102.723 -140.852)" fill="#cacaca"/>
      <path id="Path_19049" data-name="Path 19049" d="M37.731,69.945q0,5.385,0,10.771a2.184,2.184,0,0,1-.18,1.037A1.609,1.609,0,0,1,36,82.657q-6.616-.008-13.233,0c-1.175,0-2.35,0-3.525,0a1.612,1.612,0,0,1-1.727-1.707q-.007-8.085-.007-16.17c0-.281.111-.344.365-.343,1.567.008,3.133.014,4.7,0a2.131,2.131,0,0,0,2.115-1.628,3.035,3.035,0,0,0,.092-.8q0-2.2,0-4.392c0-.4,0-.4.395-.4,3.581,0,7.162.018,10.743-.013a1.7,1.7,0,0,1,1.814,1.783q0,.7,0,1.4Q37.731,65.161,37.731,69.945Zm-9.766-2.018h-4.64c-.326,0-.653-.008-.978.008a.7.7,0,0,0-.364,1.259.839.839,0,0,0,.55.161q5.409,0,10.818,0a1.478,1.478,0,0,0,.2-.007.776.776,0,0,0,.636-.623.739.739,0,0,0-.463-.755,1.053,1.053,0,0,0-.414-.043ZM27.935,73.4H31.4c.7,0,1.4.005,2.1-.007a.7.7,0,0,0,.678-.626.727.727,0,0,0-.51-.748,1.237,1.237,0,0,0-.386-.05H22.6a1.223,1.223,0,0,0-.387.048.708.708,0,0,0-.513.605.681.681,0,0,0,.353.679.861.861,0,0,0,.513.1Zm-2.769,2.412v0c-.932,0-1.864-.006-2.8,0a.7.7,0,0,0-.675.6.743.743,0,0,0,.459.757,1.425,1.425,0,0,0,.5.07q2.516,0,5.032,0a1.835,1.835,0,0,0,.442-.05.692.692,0,0,0,.4-1.068.71.71,0,0,0-.646-.313C26.974,75.81,26.07,75.807,25.166,75.807Z" transform="translate(-17.51 -57.195)" fill="#cacaca"/>
      <path id="Path_19050" data-name="Path 19050" d="M24.969,61.03c0,.7,0,1.4,0,2.1a1.334,1.334,0,0,1-1.348,1.383c-1.426.016-2.853.006-4.279,0a.683.683,0,0,1-.689-.432.69.69,0,0,1,.181-.793l4.9-4.9a.7.7,0,0,1,1.235.519C24.963,59.613,24.969,60.321,24.969,61.03Z" transform="translate(-18.554 -58.09)" fill="#cacaca"/>
    </g>
  </g>
</svg>
