<svg xmlns="http://www.w3.org/2000/svg" width="25.77" height="30.061" viewBox="0 0 25.77 30.061">
  <g id="Group_7929" data-name="Group 7929" transform="translate(-123.484 -241.623)">
    <g id="Group_7928" data-name="Group 7928" transform="translate(123.484 241.624)">
      <path id="Path_19056" data-name="Path 19056" d="M195.424,418.12c0-1.306.008-2.611-.006-3.917,0-.309.1-.41.4-.4.49.02.982,0,1.473.008a.319.319,0,0,0,.345-.238,7.412,7.412,0,0,1,3.14-3.585,4.238,4.238,0,0,1,2.525-.463c.245.011.2.195.2.343q0,1.858,0,3.716a1.369,1.369,0,0,0,.167.774,1.158,1.158,0,0,0,1.058.524q2.41-.006,4.821,0a1.5,1.5,0,0,1,1.583,1.91c-.467,2.18-.954,4.356-1.448,6.53a1.485,1.485,0,0,1-1.582,1.252c-2.1,0-4.2-.01-6.294,0a4.347,4.347,0,0,1-2.839-1.008c-.374-.3-.751-.6-1.113-.912a.916.916,0,0,0-.671-.231c-.468.015-.938-.009-1.406.009-.279.01-.365-.093-.363-.367C195.43,420.754,195.424,419.437,195.424,418.12Z" transform="translate(-188.993 -394.52)" fill="#cacaca"/>
      <path id="Path_19057" data-name="Path 19057" d="M239.566,241.624h6.8a1.1,1.1,0,0,1,1.241,1.229q0,4.152,0,8.3a1.089,1.089,0,0,1-1.237,1.23H232.706a1.093,1.093,0,0,1-1.223-1.214q0-4.169,0-8.338a1.08,1.08,0,0,1,1.219-1.212Q236.134,241.622,239.566,241.624Zm-.46,8.192a.734.734,0,0,0,.674-.442q1-1.606,2-3.207c.289-.464.586-.923.86-1.4a.571.571,0,0,0-.146-.778.58.58,0,0,0-.787.079c-.065.061-.125.128-.184.194-.8.889-1.6,1.774-2.383,2.672-.177.2-.309.228-.525.062-.433-.333-.882-.646-1.328-.962a.514.514,0,0,0-.727.033.521.521,0,0,0-.034.73q.973,1.361,1.959,2.713A.679.679,0,0,0,239.106,249.816Z" transform="translate(-221.836 -241.623)" fill="#cacaca"/>
      <path id="Path_19058" data-name="Path 19058" d="M123.484,450.968q0-2.292,0-4.584c0-.6.159-.763.745-.764q1.707,0,3.413,0c.53,0,.71.177.711.7q0,4.685,0,9.369c0,.52-.182.7-.711.7q-1.723,0-3.447,0c-.541,0-.71-.176-.711-.731Q123.483,453.31,123.484,450.968Z" transform="translate(-123.484 -427.399)" fill="#cacaca"/>
      <path id="Path_19059" data-name="Path 19059" d="M303.438,382.782c0-.948.008-1.9-.005-2.844,0-.276.089-.369.365-.365q1.271.02,2.543,0c.278,0,.365.091.363.366q-.013,2.878,0,5.756c0,.276-.088.369-.365.365q-1.271-.02-2.543,0c-.278,0-.367-.091-.363-.366C303.446,384.723,303.438,383.752,303.438,382.782Z" transform="translate(-287.361 -367.252)" fill="#cacaca"/>
    </g>
  </g>
</svg>
