<svg xmlns="http://www.w3.org/2000/svg" width="28.211" height="28.208" viewBox="0 0 28.211 28.208">
  <g id="Group_11353" data-name="Group 11353" transform="translate(45.289 -67.63)">
    <g id="Group_7917" data-name="Group 7917" transform="translate(-45.29 67.63)">
      <path id="Path_19034" data-name="Path 19034" d="M148.344,362.242a2.2,2.2,0,0,1-1.478-1.293,1.872,1.872,0,0,1-.138-.7c0-1.6,0-3.21,0-4.815,0-.3.021-.316.287-.177,1.976,1.028,3.965,2.035,5.92,3.1a1.617,1.617,0,0,0,1.737-.007c1.99-1.08,4.009-2.107,6.017-3.153.048-.025.1-.042.152-.063v5.506a2.269,2.269,0,0,1-1.6,1.6Z" transform="translate(-132.631 -334.034)" fill="#cacaca"/>
      <path id="Path_19035" data-name="Path 19035" d="M-39.112,269.841h-5.146a.911.911,0,0,1-1.03-1.03c0-1.376-.006-2.752,0-4.128a5.6,5.6,0,0,1,4.749-5.395,4.489,4.489,0,0,1,.574-.053c3.136-.017,6.273-.04,9.409-.035a8.512,8.512,0,0,1,2.133.166c.084.022.208.009.237.11s-.09.145-.156.2a4.418,4.418,0,0,0-1.3,1.781.418.418,0,0,1-.335.279,4.342,4.342,0,0,0-3.473,3.67,4.17,4.17,0,0,0-.031.659c0,1.119,0,2.238,0,3.357,0,.418,0,.419-.43.419Z" transform="translate(45.29 -245.137)" fill="#cacaca"/>
      <path id="Path_19036" data-name="Path 19036" d="M24.474,67.63a5.9,5.9,0,1,1-5.914,5.883A5.893,5.893,0,0,1,24.474,67.63Z" transform="translate(-13.873 -67.63)" fill="#cacaca"/>
      <path id="Path_19037" data-name="Path 19037" d="M168.037,287.1c-.029.166-.131.183-.207.223q-1.083.57-2.168,1.136c-1.276.666-2.554,1.328-3.827,2a.489.489,0,0,1-.511,0q-2.982-1.568-5.972-3.123c-.292-.153-.293-.171-.03-.376a2.039,2.039,0,0,1,1.249-.438c.4-.008.807-.009,1.211,0,.188,0,.269-.059.258-.254-.012-.21,0-.422,0-.633a2.049,2.049,0,0,1,2.03-2.037q1.513-.009,3.026,0a2.048,2.048,0,0,1,2.028,2.039c0,.211.01.422,0,.633s.074.256.26.252q.605-.013,1.21,0a2.057,2.057,0,0,1,1.314.489A1.166,1.166,0,0,0,168.037,287.1Zm-6.486-.581h1.127c.651,0,.651,0,.643-.66,0-.373-.093-.461-.479-.462-.724,0-1.447,0-2.171,0-.862,0-.862.005-.839.875.005.2.08.252.263.249C160.58,286.51,161.066,286.515,161.551,286.515Z" transform="translate(-140.416 -267.737)" fill="#cacaca"/>
    </g>
  </g>
</svg>
