<svg xmlns="http://www.w3.org/2000/svg" width="27.31" height="27.315" viewBox="0 0 27.31 27.315">
  <g id="Group_7931" data-name="Group 7931" transform="translate(22.963 -125.635)">
    <g id="Group_7930" data-name="Group 7930" transform="translate(-22.963 125.634)">
      <path id="Path_19060" data-name="Path 19060" d="M-9.349,153.039H-21.727c-.1,0-.208,0-.312,0a.851.851,0,0,1-.923-.8.84.84,0,0,1,.89-.865c.653-.017,1.306-.016,1.959,0,.264.006.339-.086.338-.343-.008-2.725,0-5.451-.005-8.176a1.228,1.228,0,0,1,.1-.581.77.77,0,0,1,.611-.454,5.02,5.02,0,0,1,.566-.035q1.973,0,3.946,0a3.919,3.919,0,0,1,.509.033.781.781,0,0,1,.717.81c.007.71,0,1.419,0,2.129,0,2.082.005,4.164-.006,6.246,0,.282.069.4.364.373a7.38,7.38,0,0,1,.908,0c.228.01.31-.083.287-.3a2.439,2.439,0,0,1,0-.255q0-6.373,0-12.747c0-.785.289-1.071,1.083-1.071q2.158,0,4.315,0c.748,0,1.051.3,1.051,1.052q0,6.444,0,12.889c0,.429,0,.43.439.43.284,0,.568,0,.852,0,.154,0,.228-.067.225-.222,0-.076,0-.151,0-.227q0-8.29,0-16.579c0-.449,0-.447-.453-.453a2.643,2.643,0,0,1-.367-.028.816.816,0,0,1-.622-1.268c.169-.306.361-.6.543-.9q1.66-2.711,3.319-5.423a.927.927,0,0,1,.834-.54.928.928,0,0,1,.8.54q1.276,2.1,2.561,4.189.615,1,1.231,2.009a.86.86,0,0,1-.749,1.418c-.623.037-.623.037-.623.654q0,8.19,0,16.381c0,.449,0,.447.453.45a2.3,2.3,0,0,1,.593.038.825.825,0,0,1-.115,1.624,3.546,3.546,0,0,1-.369.007Z" transform="translate(22.963 -125.724)" fill="#cacaca"/>
      <path id="Path_19061" data-name="Path 19061" d="M-18.853,129.78a.933.933,0,0,1-.846-.41.754.754,0,0,0-1.133-.2.723.723,0,0,0-.258.764.717.717,0,0,0,.544.56c.284.077.58.047.866.136a2.445,2.445,0,0,1,1.748,2.214,2.413,2.413,0,0,1-1.342,2.26.361.361,0,0,0-.246.39,5.081,5.081,0,0,1,0,.568.857.857,0,0,1-.85.854.806.806,0,0,1-.805-.855c.037-.558-.052-.972-.638-1.2a1.447,1.447,0,0,1-.627-.678.827.827,0,0,1,.217-1.09.825.825,0,0,1,1.125.143c.055.064.1.138.155.2a.761.761,0,0,0,.9.215.77.77,0,0,0,.444-.785.718.718,0,0,0-.619-.646,3.749,3.749,0,0,1-1.23-.3,2.346,2.346,0,0,1-1.32-2.189,2.285,2.285,0,0,1,1.337-2.115.37.37,0,0,0,.248-.391c-.013-.245-.009-.492,0-.738a.835.835,0,0,1,.819-.847.831.831,0,0,1,.84.8,6.012,6.012,0,0,1,.007.794.357.357,0,0,0,.243.391,2.251,2.251,0,0,1,1.012.923.786.786,0,0,1,0,.836A.739.739,0,0,1-18.853,129.78Z" transform="translate(22.779 -125.634)" fill="#cacaca"/>
    </g>
  </g>
</svg>
