<svg xmlns="http://www.w3.org/2000/svg" width="24.014" height="24.04" viewBox="0 0 24.014 24.04">
  <g id="Group_4562" data-name="Group 4562" transform="translate(944.25 117.427)">
    <g id="Group_4561" data-name="Group 4561" transform="translate(-944.25 -117.427)">
      <path id="Path_16920" data-name="Path 16920" d="M-926.709-93.387H-928.3c-.045-.01-.09-.025-.136-.031a7.164,7.164,0,0,1-2.869-1.019.99.99,0,0,0-.55-.154q-5.12.006-10.24.005a2.178,2.178,0,0,1-1.119-.289,2.24,2.24,0,0,1-1.033-1.42v-19.417c.015-.044.032-.088.044-.133a2.213,2.213,0,0,1,2.179-1.582c6.119.017,12.237.008,18.356.01a2.6,2.6,0,0,1,.49.029,2.106,2.106,0,0,1,1.742,2.109c0,3.251.008,6.5-.006,9.752a2.091,2.091,0,0,0,.358,1.411,1.218,1.218,0,0,1,.109.207,7.87,7.87,0,0,1,.741,2.456v1.595c-.012.061-.026.122-.036.183A7.266,7.266,0,0,1-924.528-94,7.914,7.914,0,0,1-926.709-93.387Zm-.805-1.426a5.828,5.828,0,0,0,5.84-5.836,5.785,5.785,0,0,0-5.824-5.84,5.787,5.787,0,0,0-5.84,5.824A5.829,5.829,0,0,0-927.514-94.813Zm-6.061-16.528c0-1.446,0-2.892,0-4.337,0-.221-.06-.3-.291-.3-2.712.007-5.424,0-8.135,0a.732.732,0,0,0-.827.823c0,2.712,0,5.424,0,8.135,0,.228.072.3.3.295q4.326-.009,8.651,0c.3,0,.305-.006.305-.3Q-933.574-109.184-933.575-111.341Zm1.443.189q0,2.251,0,4.5,0,.094,0,.188c0,.108.046.125.129.063.056-.042.112-.085.168-.127a7.265,7.265,0,0,1,8.739.061c.054.041.1.125.175.091s.036-.127.036-.194q0-4.291,0-8.583c0-.554-.281-.825-.849-.825h-8.09c-.305,0-.31.005-.31.321Q-932.132-113.4-932.131-111.152Zm-6.059,5.87h-4.29c-.343,0-.344,0-.344.334q0,4.009,0,8.018c0,.642.255.9.893.9h8.627c.086,0,.118-.036.064-.115-.026-.039-.057-.075-.085-.112a7.258,7.258,0,0,1-.385-8.234,1.469,1.469,0,0,0,.095-.161c.176-.391.032-.627-.379-.627Z" transform="translate(944.25 117.427)" fill="#fff"/>
      <path id="Path_16921" data-name="Path 16921" d="M-711.914,120.448c.538,0,1.077,0,1.615,0a.707.707,0,0,1,.752.721.707.707,0,0,1-.754.72q-1.615,0-3.23,0a.705.705,0,0,1-.74-.733.706.706,0,0,1,.742-.707C-712.991,120.445-712.452,120.448-711.914,120.448Z" transform="translate(728.653 -105.571)" fill="#f60"/>
      <path id="Path_16922" data-name="Path 16922" d="M-711.883,157.948c.523,0,1.045,0,1.568,0a.711.711,0,0,1,.769.728.708.708,0,0,1-.76.713q-1.6,0-3.207,0a.708.708,0,0,1-.757-.716.707.707,0,0,1,.748-.725C-712.976,157.945-712.43,157.948-711.883,157.948Z" transform="translate(728.652 -140.726)" fill="#f60"/>
      <path id="Path_16923" data-name="Path 16923" d="M-880.546-55.648a.7.7,0,0,1-.694.709c-.242.008-.484.007-.726,0-.161,0-.225.066-.221.225q.009.351,0,.7a.706.706,0,0,1-.713.714.707.707,0,0,1-.727-.724c0-.219-.009-.438,0-.656.009-.189-.058-.273-.255-.263-.226.011-.453.007-.679,0a.706.706,0,0,1-.708-.719.7.7,0,0,1,.706-.721c.234-.007.469-.008.7,0,.173.006.239-.067.233-.237-.007-.226,0-.453,0-.679a.706.706,0,0,1,.725-.726.708.708,0,0,1,.716.735c0,.211.01.422,0,.632s.057.288.267.276c.226-.013.453-.008.679,0A.7.7,0,0,1-880.546-55.648Z" transform="translate(888.958 61.735)" fill="#fff"/>
      <path id="Path_16924" data-name="Path 16924" d="M-708.4-30.364c-.452,0-.9,0-1.357,0a.71.71,0,0,1-.766-.731.709.709,0,0,1,.762-.71q1.369,0,2.738,0a.707.707,0,0,1,.754.719.708.708,0,0,1-.751.722C-707.477-30.361-707.937-30.364-708.4-30.364Z" transform="translate(725.137 37.163)" fill="#fff"/>
      <path id="Path_16925" data-name="Path 16925" d="M-874.02,121.092a.714.714,0,0,1-.174.476c-.044.054-.1.1-.144.154-.16.188-.477.32-.47.549s.315.36.478.547c.026.029.055.055.082.084a.742.742,0,0,1,.016,1.052.739.739,0,0,1-1.051-.026c-.17-.161-.337-.326-.5-.5-.1-.1-.174-.1-.271,0-.161.17-.327.335-.5.5a.739.739,0,0,1-1.051.025.738.738,0,0,1,.018-1.051c.129-.136.264-.266.4-.4.237-.238.237-.238-.008-.484-.132-.133-.268-.262-.4-.4a.737.737,0,0,1-.019-1.034.736.736,0,0,1,1.051.009c.176.166.347.338.514.512a.149.149,0,0,0,.254,0c.179-.185.358-.371.549-.544a.7.7,0,0,1,.805-.125A.694.694,0,0,1-874.02,121.092Z" transform="translate(881.966 -105.495)" fill="#fff"/>
    </g>
  </g>
</svg>
