<svg xmlns="http://www.w3.org/2000/svg" width="21.622" height="20.863" viewBox="0 0 21.622 20.863">
  <g id="Group_11633" data-name="Group 11633" transform="translate(630.422 -62.504)">
    <g id="Group_4567" data-name="Group 4567" transform="translate(-630.422 62.504)">
      <path id="Path_16935" data-name="Path 16935" d="M-630.412,108.008c0-.722.018-1.444,0-2.166a5.1,5.1,0,0,1,1.285-3.532,9.44,9.44,0,0,1,4.085-2.706,14.73,14.73,0,0,1,4.125-.872,20.191,20.191,0,0,1,2.979.016.846.846,0,0,1,.837.774.815.815,0,0,1-.622.813,1.717,1.717,0,0,1-.527,0A13.325,13.325,0,0,0-626.313,102a5.994,5.994,0,0,0-1.654,1.418,3.329,3.329,0,0,0,.158,4.624,8.287,8.287,0,0,0,3.43,2.148,13.419,13.419,0,0,0,4.785.815,13.871,13.871,0,0,0,6.057-1.419,7.091,7.091,0,0,0,2.255-1.68,3.3,3.3,0,0,0,.372-4.031.805.805,0,0,1,.239-1.172.809.809,0,0,1,1.133.38,5.233,5.233,0,0,1,.73,2.824c-.023,1.371-.046,2.745.005,4.115a5.156,5.156,0,0,1-1.444,3.707,9.213,9.213,0,0,1-3.469,2.361,15.716,15.716,0,0,1-7.211,1.092,13.867,13.867,0,0,1-6.146-1.831,7.138,7.138,0,0,1-2.835-2.908,4.389,4.389,0,0,1-.51-2.223C-630.389,109.485-630.412,108.746-630.412,108.008Zm1.574,1.32c0,.3.005.545,0,.793a3.4,3.4,0,0,0,.8,2.264,6.941,6.941,0,0,0,2.486,1.93,13.718,13.718,0,0,0,6.727,1.289,13.534,13.534,0,0,0,4.082-.826,8.161,8.161,0,0,0,3.441-2.214,3.944,3.944,0,0,0,.891-3.216c-.06.054-.108.094-.152.138a8.164,8.164,0,0,1-2.112,1.5,15.453,15.453,0,0,1-10.859,1.131,11.219,11.219,0,0,1-4.362-2C-628.209,109.87-628.5,109.61-628.838,109.328Z" transform="translate(630.422 -96.363)" fill="#fff"/>
      <path id="Path_16936" data-name="Path 16936" d="M-505.491,137.093c-.224,0-.449.007-.673,0-.158-.006-.212.058-.209.213.007.369.005.738,0,1.106,0,.129.044.179.179.195a2.315,2.315,0,0,1,2.13,2.145,2.3,2.3,0,0,1-1.923,2.469c-.242.044-.387.092-.465.356a.716.716,0,0,1-.752.448.75.75,0,0,1-.7-.533.276.276,0,0,0-.333-.24c-.408.014-.818.008-1.227,0a.768.768,0,0,1-.793-.787.76.76,0,0,1,.792-.784c.425-.005.85-.01,1.275,0,.194.006.252-.065.246-.251-.012-.352-.007-.706,0-1.058,0-.14-.047-.192-.192-.207a2.306,2.306,0,0,1-2.119-2.325,2.305,2.305,0,0,1,2.127-2.318.189.189,0,0,0,.2-.158.757.757,0,0,1,.756-.616.76.76,0,0,1,.785.612.19.19,0,0,0,.221.159c.433,0,.866,0,1.3,0a.769.769,0,0,1,.807.8.77.77,0,0,1-.8.776C-505.074,137.1-505.282,137.093-505.491,137.093Zm-2.455.768c0-.2,0-.4,0-.6,0-.116-.037-.155-.158-.133a.766.766,0,0,0-.574.714.79.79,0,0,0,.569.721c.115.023.166,0,.163-.126C-507.949,138.245-507.946,138.053-507.946,137.861Zm1.575,3.074c0,.192,0,.384,0,.576,0,.113.031.158.156.136a.79.79,0,0,0,.576-.714.785.785,0,0,0-.568-.721c-.113-.022-.167,0-.164.125C-506.368,140.534-506.37,140.734-506.371,140.934Z" transform="translate(517.967 -130.113)" fill="#f60"/>
      <path id="Path_16937" data-name="Path 16937" d="M-398.455,65.279a.444.444,0,0,0-.037.277c0,1.307,0,2.614,0,3.921a.759.759,0,0,1-.541.743.8.8,0,0,1-.895-.3.845.845,0,0,1-.137-.524q0-1.912,0-3.825V65.3c-.117-.01-.153.075-.205.127-.252.247-.493.506-.751.746a.814.814,0,0,1-1.131,0,.8.8,0,0,1,0-1.127q1.145-1.169,2.313-2.313a.774.774,0,0,1,1.109,0q1.154,1.125,2.28,2.278a.8.8,0,0,1,0,1.111.808.808,0,0,1-1.129.007c-.241-.224-.467-.463-.7-.694C-398.333,65.384-398.392,65.336-398.455,65.279Z" transform="translate(417.021 -62.504)" fill="#f60"/>
    </g>
  </g>
</svg>
