<svg xmlns="http://www.w3.org/2000/svg" width="13.907" height="13.887" viewBox="0 0 13.907 13.887">
  <g id="Group_4577" data-name="Group 4577" transform="translate(1427.481 170.487)">
    <g id="Group_4576" data-name="Group 4576" transform="translate(-1427.481 -170.487)">
      <path id="Path_16947" data-name="Path 16947" d="M-1418.3-112.422a5.309,5.309,0,0,1-2.628-.6,12.3,12.3,0,0,1-5.908-5.854,5.837,5.837,0,0,1-.644-2.74,2.833,2.833,0,0,1,.849-1.949c.191-.2.388-.387.587-.576a1.38,1.38,0,0,1,1.939.006q.665.651,1.318,1.314a1.392,1.392,0,0,1,.007,1.984c-.18.187-.363.372-.552.55a.159.159,0,0,0-.027.244,12.384,12.384,0,0,0,2.427,2.709c.348.29.715.553,1.089.807a.158.158,0,0,0,.245-.022c.174-.187.357-.364.539-.542a1.393,1.393,0,0,1,2,0q.651.644,1.294,1.3a1.38,1.38,0,0,1,.012,1.96c-.227.236-.453.472-.694.693A2.724,2.724,0,0,1-1418.3-112.422Z" transform="translate(1427.481 126.3)" fill="#28304e"/>
      <path id="Path_16948" data-name="Path 16948" d="M-1251.34-163.79c0,.127,0,.213,0,.3a.473.473,0,0,1-.469.468.472.472,0,0,1-.473-.464,6.136,6.136,0,0,0-.41-2.214,5.924,5.924,0,0,0-4.463-3.731,7.265,7.265,0,0,0-1.118-.112.467.467,0,0,1-.476-.488.455.455,0,0,1,.49-.456,6.8,6.8,0,0,1,5.244,2.413,6.782,6.782,0,0,1,1.606,3.477c.016.1.027.2.037.3A3.49,3.49,0,0,1-1251.34-163.79Z" transform="translate(1265.245 170.487)" fill="#f60"/>
      <path id="Path_16949" data-name="Path 16949" d="M-1246.425-91.129a2.368,2.368,0,0,1-.015.28.481.481,0,0,1-.467.378.48.48,0,0,1-.464-.4c-.037-.237-.027-.478-.08-.715a2.78,2.78,0,0,0-2.558-2.155,1.886,1.886,0,0,1-.2-.021.462.462,0,0,1-.4-.514.456.456,0,0,1,.461-.427,3.571,3.571,0,0,1,2.345.826A3.667,3.667,0,0,1-1246.425-91.129Z" transform="translate(1257.419 97.618)" fill="#f60"/>
    </g>
  </g>
</svg>
