<svg xmlns="http://www.w3.org/2000/svg" width="74.896" height="23.969" viewBox="0 0 74.896 23.969">
  <g id="Group_4590" data-name="Group 4590" transform="translate(-1795.104 -537)">
    <g id="Group_4587" data-name="Group 4587" transform="translate(3288.869 -676.297)">
      <path id="Path_16959" data-name="Path 16959" d="M-1482.32,1215.406c1.849,0,3.7.019,5.548,0a4.835,4.835,0,0,1,4.813,4.192,4.252,4.252,0,0,1,.036.539c0,2.3.006,4.595,0,6.892a4.831,4.831,0,0,1-4.274,4.718,6.763,6.763,0,0,1-.713.035q-3.067,0-6.133,0a.584.584,0,0,0-.456.187q-2,2.016-4.009,4.021l-.154.152a.358.358,0,0,1-.419.081.348.348,0,0,1-.214-.346c0-.217,0-.433,0-.65,0-1.076,0-2.153,0-3.229,0-.178-.045-.249-.232-.275a4.77,4.77,0,0,1-3.5-2.222,4.5,4.5,0,0,1-.735-2.479c0-2.261,0-4.522,0-6.784a4.853,4.853,0,0,1,4.351-4.812,5.3,5.3,0,0,1,.541-.012Z" transform="translate(0 0)" fill="none" stroke="#28304e" stroke-width="2"/>
    </g>
    <g id="Group_4588" data-name="Group 4588" transform="translate(5228.901 -1281.2)">
      <path id="Path_16960" data-name="Path 16960" d="M-3392.9,1819.2a.429.429,0,0,1-.127.155c-.691.692-1.384,1.381-2.071,2.076a.459.459,0,0,1-.357.146q-3.891-.005-7.783,0c-.275,0-.275,0-.275.266q0,6.261,0,12.523a1.38,1.38,0,0,0,.271.917,1.282,1.282,0,0,0,1.069.438h9c.83,0,1.66,0,2.49,0a1.3,1.3,0,0,0,.934-.322,1.293,1.293,0,0,0,.378-1q0-3.329,0-6.658a.614.614,0,0,1,.2-.484c.676-.663,1.342-1.336,2.012-2a.485.485,0,0,1,.168-.14v9.889a.458.458,0,0,0-.021.071,3.583,3.583,0,0,1-3.569,3.048c-3.9-.019-7.808-.006-11.712-.006a3.975,3.975,0,0,1-.551-.032,3.537,3.537,0,0,1-3.049-3.45q-.011-6.557,0-13.114a2.214,2.214,0,0,1,.364-1.22,2.429,2.429,0,0,1,1.641-1.09Z" transform="translate(0)" fill="#28304e"/>
      <path id="Path_16961" data-name="Path 16961" d="M-3239.638,1822.336a1.218,1.218,0,0,1-.345.555q-3.961,3.955-7.917,7.915c-.194.194-.194.194-.382.007l-3.012-3.013c-.167-.167-.167-.168,0-.34q3.978-3.977,7.954-7.956a1.662,1.662,0,0,1,.413-.3h.406a1.661,1.661,0,0,1,.342.276q1.118,1.122,2.242,2.239a1.113,1.113,0,0,1,.294.438Z" transform="translate(-147.357)" fill="#28304e"/>
      <path id="Path_16962" data-name="Path 16962" d="M-3297.612,2023.045c-.139,0-.1-.083-.081-.151q.136-.555.275-1.109.406-1.627.814-3.254c.016-.063.006-.156.073-.179.083-.03.123.064.171.113q1.619,1.615,3.234,3.234c.046.046.128.085.111.158s-.108.066-.17.082l-4.308,1.077Z" transform="translate(-103.2 -189.961)" fill="#28304e"/>
    </g>
    <g id="Group_4589" data-name="Group 4589" transform="translate(-6 6)">
      <g id="Rectangle_924" data-name="Rectangle 924" transform="translate(1854 531)" fill="none" stroke="#28304e" stroke-width="2">
        <rect width="22" height="22" rx="6" stroke="none"/>
        <rect x="1" y="1" width="20" height="20" rx="5" fill="none"/>
      </g>
      <path id="Path_16963" data-name="Path 16963" d="M9.978,5.131a.563.563,0,0,1-.592.378c-1.249-.005-2.5,0-3.746,0-.133,0-.133,0-.133.134,0,1.249,0,2.5,0,3.746a.562.562,0,0,1-.378.591H4.859a.563.563,0,0,1-.378-.591c.005-1.249,0-2.5,0-3.746,0-.134,0-.134-.133-.134H.547a.52.52,0,0,1-.513-.33.511.511,0,0,1,.473-.692c.285,0,.571,0,.856,0H4.35c.133,0,.134,0,.134-.133q0-1.907,0-3.814a.517.517,0,0,1,.331-.5.511.511,0,0,1,.691.474c0,.292,0,.584,0,.876q0,1.484,0,2.967c0,.132,0,.133.134.133,1.249,0,2.5,0,3.746,0a.562.562,0,0,1,.591.378Z" transform="translate(1857.5 541.555) rotate(-45)" fill="#28304e" stroke="#28304e" stroke-width="1"/>
    </g>
  </g>
</svg>
