<svg xmlns="http://www.w3.org/2000/svg" width="22.073" height="23.636" viewBox="0 0 22.073 23.636">
  <g id="Group_4564" data-name="Group 4564" transform="translate(507.418 214.75)">
    <g id="Group_4563" data-name="Group 4563" transform="translate(-507.418 -214.75)">
      <path id="Path_16926" data-name="Path 16926" d="M-507.408-202.145c0-2.655.024-5.31-.01-7.964a3.07,3.07,0,0,1,2.523-3.037,6.6,6.6,0,0,1,1.153-.027c.2,0,.287-.051.271-.262a4.575,4.575,0,0,1,0-.565.777.777,0,0,1,.811-.75.782.782,0,0,1,.791.748c.009.2.007.41,0,.614,0,.139.037.212.193.212q2.151,0,4.3,0c.156,0,.2-.072.193-.211-.006-.2-.007-.41,0-.614a.776.776,0,0,1,.813-.748.782.782,0,0,1,.789.749c.009.2.007.41,0,.614,0,.141.04.21.195.21q2.151,0,4.3,0c.135,0,.195-.05.191-.188,0-.2-.005-.41,0-.614a.777.777,0,0,1,.815-.771.785.785,0,0,1,.79.775c0,.074,0,.148,0,.221,0,.576,0,.574.588.576a4.242,4.242,0,0,1,1.1.087,3,3,0,0,1,2.246,2.883q0,8.063,0,16.126a2.976,2.976,0,0,1-2.955,2.965q-8.075.006-16.15,0a2.98,2.98,0,0,1-2.955-2.966Q-507.413-198.114-507.408-202.145Zm20.454.009q0-1.5,0-3c0-1.639,0-3.277,0-4.916a1.407,1.407,0,0,0-1.359-1.51c-.26-.024-.524,0-.786-.01-.144,0-.182.071-.18.2,0,.2,0,.393,0,.59a.782.782,0,0,1-.8.784.791.791,0,0,1-.8-.79,3.434,3.434,0,0,1,0-.467c.027-.244-.055-.326-.311-.322-1.057.014-2.114.006-3.171.006-.32,0-.639.009-.958,0-.195-.008-.265.062-.252.255a5.155,5.155,0,0,1,0,.565.78.78,0,0,1-.806.756.791.791,0,0,1-.8-.768c-.007-.2-.006-.41,0-.614,0-.136-.052-.191-.189-.19q-2.151,0-4.3,0c-.152,0-.2.063-.2.207.006.2,0,.393,0,.59a.78.78,0,0,1-.522.732.819.819,0,0,1-.878-.215.958.958,0,0,1-.208-.733c0-.579,0-.577-.583-.581a2.55,2.55,0,0,0-.754.077,1.434,1.434,0,0,0-.986,1.5q0,7.017,0,14.034c0,.582-.005,1.163,0,1.745a1.409,1.409,0,0,0,.98,1.409,2.239,2.239,0,0,0,.656.08q4.916,0,9.831,0h5.8a1.561,1.561,0,0,0,1.112-.375,1.525,1.525,0,0,0,.465-1.2Q-486.954-198.216-486.954-202.136Z" transform="translate(507.418 214.75)" fill="#fff"/>
      <path id="Path_16927" data-name="Path 16927" d="M-445.188-90.718a.788.788,0,0,1-.593-.253c-.511-.509-1.025-1.014-1.528-1.531a.809.809,0,0,1-.032-1.168.813.813,0,0,1,1.186.021c.273.26.541.525.8.8.134.142.225.135.359,0,.515-.527,1.034-1.051,1.563-1.564a.812.812,0,0,1,1.394.364.783.783,0,0,1-.223.767q-1.158,1.17-2.328,2.329A.767.767,0,0,1-445.188-90.718Z" transform="translate(451.497 102.551)" fill="#fff"/>
      <path id="Path_16928" data-name="Path 16928" d="M-445.186,17.283a.786.786,0,0,1-.593-.251c-.511-.508-1.025-1.014-1.528-1.53a.809.809,0,0,1-.035-1.168.813.813,0,0,1,1.186.017c.273.26.541.525.8.8.132.14.223.142.359,0,.515-.527,1.034-1.051,1.563-1.564a.812.812,0,0,1,1.4.36.78.78,0,0,1-.221.768q-1.158,1.171-2.328,2.329A.769.769,0,0,1-445.186,17.283Z" transform="translate(451.498 1.63)" fill="#fff"/>
      <path id="Path_16929" data-name="Path 16929" d="M-335.7-69.163c-.893,0-1.786,0-2.678,0a.794.794,0,0,1-.865-.8.782.782,0,0,1,.854-.807q2.7,0,5.406,0a.787.787,0,0,1,.853.81.793.793,0,0,1-.867.8C-333.9-69.162-334.8-69.163-335.7-69.163Z" transform="translate(350.273 80.211)" fill="#f60"/>
      <path id="Path_16930" data-name="Path 16930" d="M-335.723,38.841c-.926,0-1.851,0-2.777,0a.793.793,0,0,1-.78-.682.792.792,0,0,1,.565-.892,1.1,1.1,0,0,1,.291-.03q2.691,0,5.381,0a.791.791,0,0,1,.871.793.793.793,0,0,1-.873.814Q-334.384,38.844-335.723,38.841Z" transform="translate(350.31 -20.713)" fill="#f60"/>
    </g>
  </g>
</svg>
