<svg xmlns="http://www.w3.org/2000/svg" width="22.553" height="22.583" viewBox="0 0 22.553 22.583">
  <g id="Group_11632" data-name="Group 11632" transform="translate(675.25 49.525)">
    <g id="Group_4565" data-name="Group 4565" transform="translate(-675.25 -49.525)">
      <path id="Path_16931" data-name="Path 16931" d="M-598.887,7.059h-20.174a1.657,1.657,0,0,1-1.189-1.189V2.345a1.674,1.674,0,0,1,.985-1.108.714.714,0,0,0,.447-.7.716.716,0,0,0-.448-.7,1.669,1.669,0,0,1-.984-1.109V-4.79A1.584,1.584,0,0,1-618.507-6a2.724,2.724,0,0,1,.33,0,.7.7,0,0,0,.617-.248q4.359-4.376,8.732-8.739a1.557,1.557,0,0,1,2.358-.008c.632.624,1.256,1.256,1.885,1.883a1.6,1.6,0,0,1,.49,1.03,1.953,1.953,0,0,1-.138.773.767.767,0,0,0,.58,1.007.92.92,0,0,0,.535-.077,1.421,1.421,0,0,1,1.521.28q1.12,1.058,2.179,2.179a1.444,1.444,0,0,1,.29,1.5c-.039.124-.158.267-.124.36.045.123.235.05.36.082A1.615,1.615,0,0,1-597.7-4.79v3.524a1.68,1.68,0,0,1-.983,1.11.717.717,0,0,0-.45.7.716.716,0,0,0,.448.7,1.678,1.678,0,0,1,.984,1.109V5.869A1.657,1.657,0,0,1-598.887,7.059Zm-12.4-1.362h7.245c.329,0,.341-.012.341-.328q0-4.834,0-9.668c0-.3-.014-.314-.309-.314h-14.535c-.308,0-.344.036-.345.342,0,.83,0,1.659,0,2.489a.381.381,0,0,0,.242.392A2.067,2.067,0,0,1-617.438.534a2.066,2.066,0,0,1-1.2,1.932.4.4,0,0,0-.253.409c.008.8,0,1.6,0,2.4,0,.4.018.421.423.421ZM-602.962-6a5.018,5.018,0,0,1,.813.007,1.532,1.532,0,0,0,1.567-.673c.175-.228.2-.289-.01-.5-.585-.587-1.175-1.17-1.756-1.761a.378.378,0,0,0-.445-.108,2.074,2.074,0,0,1-2.234-.508,2.072,2.072,0,0,1-.5-2.234.361.361,0,0,0-.094-.428c-.6-.586-1.184-1.181-1.776-1.772-.208-.208-.285-.208-.492,0-.743.741-1.481,1.486-2.229,2.222-.126.124-.12.194,0,.315q2.643,2.633,5.276,5.275a.518.518,0,0,0,.408.165C-603.945-6-603.453-6-602.962-6ZM-602.31.54q0,2.433,0,4.867c0,.266.022.289.29.29q1.31,0,2.621,0c.3,0,.339-.041.34-.349,0-.815,0-1.63,0-2.444a.43.43,0,0,0-.268-.445A2.058,2.058,0,0,1-600.51.54,2.066,2.066,0,0,1-599.3-1.388a.382.382,0,0,0,.248-.388c-.007-.837,0-1.674,0-2.51,0-.288-.041-.326-.338-.326q-1.31,0-2.62,0c-.276,0-.292.018-.292.308Q-602.31-1.883-602.31.54Zm-4.36-6.549c-.072-.084-.106-.13-.147-.171q-2.131-2.133-4.261-4.268c-.141-.142-.224-.121-.355.01q-2.134,2.146-4.277,4.283c-.038.038-.1.065-.088.145Z" transform="translate(620.25 15.525)" fill="#fff"/>
      <path id="Path_16932" data-name="Path 16932" d="M-536.672,244.267h4.689c.3,0,.313.013.315.307s0,.572,0,.858c0,.156-.066.232-.226.223-.058,0-.117,0-.176,0h-9.2l-.22,0c-.125,0-.191-.056-.19-.186q0-.506,0-1.013a.162.162,0,0,1,.189-.186c.073,0,.147,0,.22,0Z" transform="translate(546.296 -229.009)" fill="#f60"/>
      <path id="Path_16933" data-name="Path 16933" d="M-536.745,290.711h-4.689c-.314,0-.32-.007-.321-.32,0-.271.008-.543,0-.814-.007-.195.077-.268.262-.254.044,0,.088,0,.132,0h9.245c.378,0,.378,0,.379.379q0,.308,0,.616c0,.393,0,.393-.383.393Z" transform="translate(546.367 -271.417)" fill="#f60"/>
      <path id="Path_16934" data-name="Path 16934" d="M-536.68,199.218h4.687c.31,0,.316.006.318.324,0,.264-.008.528,0,.792.007.2-.081.282-.275.267-.058,0-.117,0-.176,0h-9.131c-.081,0-.161,0-.242,0-.121,0-.192-.052-.192-.185q0-.506,0-1.012c0-.168.1-.183.235-.183.682,0,1.364,0,2.046,0Z" transform="translate(546.304 -186.606)" fill="#f60"/>
    </g>
  </g>
</svg>
