<svg xmlns="http://www.w3.org/2000/svg" width="20.858" height="20.877" viewBox="0 0 20.858 20.877">
  <g id="Group_4560" data-name="Group 4560" transform="translate(886.399 -204.839)">
    <g id="Group_4559" data-name="Group 4559" transform="translate(-886.399 204.839)">
      <path id="Path_16918" data-name="Path 16918" d="M-823.774,205.6a.816.816,0,0,1,.594.865.821.821,0,0,1-.9.733,8.248,8.248,0,0,0-3.359.708,8.627,8.627,0,0,0-5.236,6.669,8.437,8.437,0,0,0,1.856,7.012,8.492,8.492,0,0,0,5.521,3.159,8.557,8.557,0,0,0,6.891-1.893,8.646,8.646,0,0,0,3.156-5.525,9.207,9.207,0,0,0,.1-1.276.8.8,0,0,1,.979-.814.789.789,0,0,1,.629.814,9.669,9.669,0,0,1-.856,4.11,10.149,10.149,0,0,1-7.349,6.046,10.05,10.05,0,0,1-9.073-2.314,10.147,10.147,0,0,1-3.406-5.873c-.076-.378-.116-.763-.173-1.144v-1.71a.619.619,0,0,0,.025-.1,10.008,10.008,0,0,1,1.358-4.264,10.366,10.366,0,0,1,6.585-4.935,14.62,14.62,0,0,1,1.6-.271Z" transform="translate(834.4 -205.6)" fill="#fff"/>
      <path id="Path_16919" data-name="Path 16919" d="M-736.748,262.346a.813.813,0,0,1,.657.3l2.549,2.771c.216.235.438.463.645.706.11.129.18.109.289,0,.689-.692,1.387-1.376,2.078-2.066q3.545-3.536,7.086-7.076a.845.845,0,0,1,.894-.29.8.8,0,0,1,.4,1.265,2.381,2.381,0,0,1-.2.226l-9.757,9.729a.832.832,0,0,1-1.355-.024c-1.271-1.375-2.535-2.756-3.806-4.13a.814.814,0,0,1,.28-1.376A.842.842,0,0,1-736.748,262.346Z" transform="translate(742.469 -254.055)" fill="#f60"/>
    </g>
  </g>
</svg>
