<svg xmlns="http://www.w3.org/2000/svg" width="24.554" height="24.54" viewBox="0 0 24.554 24.54">
  <g id="Group_4558" data-name="Group 4558" transform="translate(1170.445 -229.5)">
    <g id="Group_4557" data-name="Group 4557" transform="translate(-1170.445 229.5)">
      <path id="Path_16914" data-name="Path 16914" d="M-1157.867,229.5a16.888,16.888,0,0,1,1.949.359,11.472,11.472,0,0,1,7.084,5.437,11.332,11.332,0,0,1,1.412,4.068,1.016,1.016,0,0,1-.577,1.147.993.993,0,0,1-1.179-.326,1.369,1.369,0,0,1-.213-.628,9.293,9.293,0,0,0-6.378-7.571,9.153,9.153,0,0,0-9.346,1.784,9.1,9.1,0,0,0-3.254,5.9,9.325,9.325,0,0,0,2.3,7.683,9.365,9.365,0,0,0,5.65,3.162.974.974,0,0,1,.894,1.031.96.96,0,0,1-.891.933,3,3,0,0,1-.919-.135,11.5,11.5,0,0,1-8.925-9.319,11.226,11.226,0,0,1,2.7-9.617,11.283,11.283,0,0,1,6.406-3.714c.436-.09.881-.134,1.322-.2Z" transform="translate(1170.445 -229.5)" fill="#fff"/>
      <path id="Path_16915" data-name="Path 16915" d="M-974.518,418.3a6.518,6.518,0,0,1-1.191,2.614,6.329,6.329,0,0,1-5.972,2.525,6.443,6.443,0,0,1-5.646-5.6,6.488,6.488,0,0,1,5.431-7.25,6.313,6.313,0,0,1,2.657.135.994.994,0,0,1,.78,1.226.981.981,0,0,1-1.26.683,4.552,4.552,0,0,0-5.146,2.2,4.545,4.545,0,0,0,3.154,6.619,4.547,4.547,0,0,0,5.257-3.562.968.968,0,0,1,1.11-.851,1.026,1.026,0,0,1,.826.681Z" transform="translate(999.072 -398.952)" fill="#f60"/>
      <path id="Path_16916" data-name="Path 16916" d="M-1054.629,287.7c0,1.165,0,2.331,0,3.5a1.038,1.038,0,0,1-.314.773q-1.734,1.754-3.466,3.51a.98.98,0,0,1-1.4.088.974.974,0,0,1-.017-1.446q1.509-1.539,3.028-3.067a.673.673,0,0,0,.216-.524q-.011-3.209,0-6.417a.967.967,0,0,1,.722-.956.988.988,0,0,1,1.108.469,1.02,1.02,0,0,1,.12.529Q-1054.631,285.933-1054.629,287.7Z" transform="translate(1067.176 -279.705)" fill="#fff"/>
      <path id="Path_16917" data-name="Path 16917" d="M-928.335,453.722a1.617,1.617,0,0,1-1.131-.464c-.489-.481-.977-.964-1.456-1.455a.965.965,0,0,1,.007-1.377.966.966,0,0,1,1.377,0c.357.342.71.689,1.048,1.05.15.16.234.138.378-.006q1.889-1.884,3.793-3.754a.974.974,0,0,1,1.616.318.915.915,0,0,1-.209,1.04q-1.768,1.769-3.549,3.524c-.227.225-.454.448-.685.668A1.66,1.66,0,0,1-928.335,453.722Z" transform="translate(946.487 -433.492)" fill="#f60"/>
    </g>
  </g>
</svg>
