<svg xmlns="http://www.w3.org/2000/svg" width="16.768" height="12.802" viewBox="0 0 16.768 12.802">
  <g id="Group_4575" data-name="Group 4575" transform="translate(921 -111.599)">
    <g id="Group_4574" data-name="Group 4574" transform="translate(-921 111.598)">
      <path id="Path_16944" data-name="Path 16944" d="M-904.232,201.62V208.6a.586.586,0,0,1-.594.343q-7.79-.006-15.58,0A.586.586,0,0,1-921,208.6V199c.095.006.154.078.223.128q3.887,2.835,7.773,5.673a.53.53,0,0,0,.781,0c.655-.472,1.311-.942,1.963-1.419a.251.251,0,0,1,.32-.02,4.357,4.357,0,0,0,4.3.132,1.465,1.465,0,0,0,.893-1.468.134.134,0,0,1,.068-.136C-904.529,201.8-904.381,201.71-904.232,201.62Z" transform="translate(921 -196.138)" fill="#28304e"/>
      <path id="Path_16945" data-name="Path 16945" d="M-612.815,115.345a1.657,1.657,0,0,1-1.245,1.3,1.578,1.578,0,0,1-1.242-.2.387.387,0,0,0-.394-.019,1.475,1.475,0,0,1-1.617-.328,1.484,1.484,0,0,1-.324-1.606,1.476,1.476,0,0,1,1.362-.93,1.476,1.476,0,0,1,1.474,1.8c-.033.155.018.218.153.265a.629.629,0,0,0,.834-.626,2.444,2.444,0,0,0-2.052-2.357,2.441,2.441,0,0,0-2.809,2.109,2.466,2.466,0,0,0,1.971,2.687,2.464,2.464,0,0,0,1.573-.232.84.84,0,0,1,.272-.108.5.5,0,0,1,.557.332.5.5,0,0,1-.227.608,3.178,3.178,0,0,1-1.164.417,3.454,3.454,0,0,1-4-3.082,3.459,3.459,0,0,1,2.934-3.748,3.458,3.458,0,0,1,3.925,2.881c.006.037.015.074.023.112Zm-2.964-.3a.5.5,0,0,0-.477-.472.5.5,0,0,0-.472.477.5.5,0,0,0,.477.472A.5.5,0,0,0-615.779,115.047Z" transform="translate(629.583 -111.598)" fill="#f60"/>
      <path id="Path_16946" data-name="Path 16946" d="M-905.785,171.588a.309.309,0,0,1,.187-.026l8.253,0c.233,0,.23,0,.167.225a4.406,4.406,0,0,0,.836,4.066,1.44,1.44,0,0,0,.116.138c.075.076.07.134-.019.2q-.779.557-1.553,1.121c-.1.076-.169.019-.245-.037l-3.649-2.665q-1.957-1.429-3.914-2.858A.531.531,0,0,1-905.785,171.588Z" transform="translate(906.283 -169.595)" fill="#28304e"/>
    </g>
  </g>
</svg>
