<svg xmlns="http://www.w3.org/2000/svg" width="19.178" height="19.168" viewBox="0 0 19.178 19.168">
  <g id="Group_8312" data-name="Group 8312" transform="translate(-1273.957 -314.315)">
    <g id="Group_8311" data-name="Group 8311" transform="translate(1273.957 314.315)">
      <path id="Path_19331" data-name="Path 19331" d="M1283.559,458.233h9.243c.345,0,.346,0,.346.348q0,3.614,0,7.229a2.9,2.9,0,0,1-2.359,2.935,3.055,3.055,0,0,1-.6.061q-6.625.005-13.249,0a2.9,2.9,0,0,1-2.9-2.348,3.144,3.144,0,0,1-.065-.644q0-3.625,0-7.251c0-.331,0-.331.341-.331Z" transform="translate(-1273.974 -449.641)" fill="#1c1c1c"/>
      <path id="Path_19332" data-name="Path 19332" d="M1283.521,321.046H1274.3c-.34,0-.34,0-.341-.349a5,5,0,0,1,.1-1.356,2.913,2.913,0,0,1,2.8-2.165c.239,0,.478-.008.716,0,.165.006.222-.057.22-.222-.007-.544-.005-1.089,0-1.634a.974.974,0,0,1,.956-1.006.991.991,0,0,1,.994,1q.01.805,0,1.611c0,.179.046.252.238.252q3.559-.007,7.118,0c.192,0,.24-.074.238-.252-.008-.552-.011-1.1,0-1.656a.977.977,0,0,1,1.919-.236,1.117,1.117,0,0,1,.03.31c0,.537.005,1.074,0,1.612,0,.166.057.223.221.222a6.005,6.005,0,0,1,1.249.056,2.914,2.914,0,0,1,2.37,2.839c0,.231-.009.463,0,.694.012.21-.059.29-.279.285-.589-.013-1.179,0-1.768,0Z" transform="translate(-1273.957 -314.315)" fill="#f60"/>
    </g>
  </g>
</svg>
