<svg xmlns="http://www.w3.org/2000/svg" width="17.353" height="10.682" viewBox="0 0 17.353 10.682">
  <path id="Path_19737" data-name="Path 19737" d="M1.238,16.3a1.165,1.165,0,0,1-.529-.338c-.138-.147-.286-.283-.426-.429a.9.9,0,0,1-.038-1.275c.045-.052.094-.1.143-.149Q3.254,11.239,6.12,8.372c.25-.25.251-.185-.006-.441Q3.244,5.058.371,2.188a1.011,1.011,0,0,1-.354-.846A.911.911,0,0,1,.29.782Q.523.544.762.31a.908.908,0,0,1,1.367,0Q3.57,1.746,5.007,3.187L9.233,7.413a.934.934,0,0,1,0,1.481Q5.729,12.4,2.223,15.909a1.424,1.424,0,0,1-.572.386Z" transform="translate(16.795 0.547) rotate(90)" fill="#f60" stroke="#f60" stroke-width="1"/>
</svg>
