<svg xmlns="http://www.w3.org/2000/svg" width="20.202" height="24.262" viewBox="0 0 20.202 24.262">
  <g id="Group_7164" data-name="Group 7164" transform="translate(-1022.726 -16.306)">
    <path id="Path_18013" data-name="Path 18013" d="M1055.511,40.568H1041.5l-.137-.033a2.934,2.934,0,0,1-2.318-2.27,9.224,9.224,0,0,1-.068-2.052c0-.163.128-.155.238-.156.465,0,.931,0,1.4,0a1.642,1.642,0,1,0,.009-3.283c-.458,0-.916-.008-1.373,0-.2,0-.283-.053-.281-.268.01-.718.008-1.436,0-2.154,0-.192.062-.269.259-.265.465.009.931,0,1.4,0a1.641,1.641,0,1,0,.008-3.282c-.466,0-.931-.007-1.4,0-.188,0-.269-.056-.267-.257q.012-1.089,0-2.178c0-.182.063-.254.247-.251.473.007.947,0,1.42,0a1.641,1.641,0,1,0,.007-3.282c-.458,0-.916-.01-1.373,0-.221.006-.311-.062-.3-.295.015-.426,0-.852.006-1.278a2.963,2.963,0,0,1,2.97-2.961q6.558,0,13.116,0a2.979,2.979,0,0,1,2.98,2.962q.01,9.174,0,18.348a2.837,2.837,0,0,1-.283,1.235A3.038,3.038,0,0,1,1055.511,40.568Zm-6.45-7.119q2.082,0,4.165,0c.155,0,.288-.005.28-.217-.018-.472.019-.944-.037-1.417a3.171,3.171,0,0,0-3.1-2.782q-1.313-.014-2.626,0a3.174,3.174,0,0,0-3.026,2.354,7.082,7.082,0,0,0-.1,1.741c-.006.3.021.319.325.319Zm0-5.443a2.839,2.839,0,1,0-.016-5.679,2.839,2.839,0,1,0,.016,5.679Z" transform="translate(-15.11 0)" fill="#28304e"/>
    <path id="Path_18014" data-name="Path 18014" d="M1024.618,92.3c.307,0,.615-.005.922,0a.96.96,0,0,1,.011,1.921q-.933.017-1.866,0a.96.96,0,1,1,.012-1.921C1024,92.29,1024.311,92.3,1024.618,92.3Z" transform="translate(0 -70.778)" fill="#f60"/>
    <path id="Path_18015" data-name="Path 18015" d="M1024.61,268.235c-.307,0-.615.006-.921,0a.96.96,0,0,1-.018-1.919q.944-.02,1.89,0a.96.96,0,0,1-.005,1.92C1025.24,268.242,1024.925,268.235,1024.61,268.235Z" transform="translate(-0.001 -232.861)" fill="#f60"/>
    <path id="Path_18016" data-name="Path 18016" d="M1024.621,179.323c.307,0,.614-.006.921,0a.961.961,0,0,1,.006,1.921q-.933.015-1.866,0a.96.96,0,0,1-.005-1.92C1023.991,179.316,1024.306,179.324,1024.621,179.323Z" transform="translate(0 -151.839)" fill="#f60"/>
  </g>
</svg>
