<svg id="Group_8852" data-name="Group 8852" xmlns="http://www.w3.org/2000/svg" width="17.109" height="22.416" viewBox="0 0 17.109 22.416">
  <path id="Path_17512" data-name="Path 17512" d="M302.7,166.63H285.629c-.006-.087-.016-.174-.016-.261q0-2.506,0-5.013,0-7.76,0-15.52c0-.325,0-.326.323-.326.686,0,1.372.008,2.057,0,.221,0,.287.065.285.285-.01,1.109,0,2.218,0,3.327,0,.332,0,.332.323.332h11.142c.322,0,.323,0,.323-.332q0-1.675,0-3.349c0-.136-.011-.262.193-.26.759.006,1.518,0,2.276,0,.142,0,.2.057.191.2,0,.058,0,.117,0,.175q0,10.222,0,20.445C302.72,166.427,302.71,166.529,302.7,166.63Zm-14.583-3.066.132-.042q1.837-.612,3.674-1.222a.9.9,0,0,0,.362-.233q3.929-3.933,7.864-7.86c.125-.125.141-.2.007-.329q-1.224-1.206-2.429-2.43c-.143-.146-.216-.119-.345.01q-3.91,3.921-7.83,7.832a1.077,1.077,0,0,0-.273.438q-.592,1.8-1.193,3.592c-.018.055-.037.111-.051.167S288.044,163.574,288.121,163.565Z" transform="translate(-285.612 -144.214)"/>
  <path id="Path_17513" data-name="Path 17513" d="M380.545,116a2.057,2.057,0,0,1,1.426,1.159c.061.136.17.138.29.138.744,0,1.488.006,2.232,0,.208,0,.279.059.276.272-.011.715-.01,1.43,0,2.145,0,.191-.059.252-.251.251q-4.366-.007-8.733,0c-.191,0-.253-.06-.251-.251q.013-1.083,0-2.167c0-.194.064-.251.253-.249.751.008,1.5,0,2.254,0,.121,0,.229,0,.29-.138A2.061,2.061,0,0,1,379.757,116Z" transform="translate(-371.597 -116)" fill="#f60"/>
  <path id="Path_17514" data-name="Path 17514" d="M386.693,374.568c-.11.01-.12-.051-.1-.11a4.184,4.184,0,0,1,.808-1.685c1.481-1.425,2.918-2.9,4.372-4.352.211-.211.212-.21.425,0l.541.541c.208.209.208.21-.008.425l-3.279,3.279c-.433.433-.868.864-1.3,1.3a.941.941,0,0,1-.4.25c-.313.1-.623.205-.934.308C386.773,374.544,386.724,374.559,386.693,374.568Z" transform="translate(-382.165 -357.219)" fill="#f60"/>
  <path id="Path_17515" data-name="Path 17515" d="M532.584,321.829a.278.278,0,0,1-.155-.1c-.227-.226-.45-.457-.682-.679-.111-.106-.1-.185.005-.288q.486-.472.959-.958c.1-.1.174-.1.271,0,.227.236.462.466.695.7.075.074.123.142.027.238-.342.338-.681.68-1.022,1.019A.591.591,0,0,1,532.584,321.829Z" transform="translate(-520.895 -310.811)" fill="#f60"/>
</svg>
