<svg xmlns="http://www.w3.org/2000/svg" width="21.772" height="21.752" viewBox="0 0 21.772 21.752">
  <g id="Group_6553" data-name="Group 6553" transform="translate(-318.831 -200.8)">
    <g id="Group_6108" data-name="Group 6108" transform="translate(318.831 200.8)">
      <path id="Path_17497" data-name="Path 17497" d="M418.094,445.054a10.108,10.108,0,0,1-1.427-.313.241.241,0,0,1-.2-.266q.006-3.845,0-7.689a.347.347,0,0,1,.2-.315,4.426,4.426,0,0,1,4.955.143c.194.142.383.292.566.448a1.031,1.031,0,0,0,.7.247c1.055,0,2.11,0,3.165,0a1.288,1.288,0,0,1,.621,2.411,1.339,1.339,0,0,1-.692.167c-1.409,0-2.818,0-4.227,0a1.506,1.506,0,0,0-.379.036.6.6,0,0,0,.006,1.175,1.371,1.371,0,0,0,.337.035q2.273,0,4.546,0a1.573,1.573,0,0,0,1.305-.628c1.032-1.3,2.084-2.594,3.119-3.9a1.315,1.315,0,0,1,1.316-.557,1.256,1.256,0,0,1,1.017.918.479.479,0,0,0,.028.057v.595a2.717,2.717,0,0,1-.326.615q-1.763,2.57-3.523,5.142a4.056,4.056,0,0,1-1.192,1.13,4.5,4.5,0,0,1-1.459.548Z" transform="translate(-411.277 -423.302)"/>
      <path id="Path_17498" data-name="Path 17498" d="M319.275,449.521a.777.777,0,0,1-.444-.794c.009-2.477,0-4.954.005-7.432,0-.569.227-.8.8-.8.609,0,1.217,0,1.826,0a1.261,1.261,0,0,1,1.315,1.31q.006,3.206,0,6.412a1.3,1.3,0,0,1-.992,1.3Z" transform="translate(-318.831 -427.769)"/>
      <path id="Path_17499" data-name="Path 17499" d="M526.387,200.8a4.626,4.626,0,0,1,.684,1.7,16.65,16.65,0,0,1,.5,3.221c.009.139-.031.194-.171.193q-1.093,0-2.186,0c-.14,0-.178-.051-.169-.192a15.888,15.888,0,0,1,.694-3.914,3.017,3.017,0,0,1,.482-1.008Z" transform="translate(-514.09 -200.8)" fill="#f60"/>
      <path id="Path_17500" data-name="Path 17500" d="M581.026,210.405c-.453,0-.906-.007-1.358,0-.188,0-.239-.069-.249-.247a15.157,15.157,0,0,0-.72-4.015c-.045-.134-.1-.264-.149-.4-.021-.057-.074-.122-.027-.177s.121-.007.177.011a5.429,5.429,0,0,1,1.668.865,5.7,5.7,0,0,1,2.209,3.626c.061.33.057.331-.277.331Z" transform="translate(-564.714 -205.292)" fill="#f60"/>
      <path id="Path_17501" data-name="Path 17501" d="M581.018,320.472h1.273c.327,0,.332,0,.276.314a5.693,5.693,0,0,1-2.266,3.683,5.416,5.416,0,0,1-1.617.827c-.056.018-.125.07-.176.007s0-.109.024-.159a13.735,13.735,0,0,0,.842-3.946c.014-.169.034-.338.036-.507s.065-.224.23-.221C580.1,320.477,580.558,320.472,581.018,320.472Z" transform="translate(-564.702 -314.114)" fill="#f60"/>
      <path id="Path_17502" data-name="Path 17502" d="M443.44,210.4h-1.273c-.3,0-.311,0-.257-.314a5.711,5.711,0,0,1,1.621-3.133,5.58,5.58,0,0,1,2.242-1.371c.062-.02.139-.081.2-.013s-.008.121-.03.178a13.828,13.828,0,0,0-.833,3.926c-.014.169-.035.338-.036.507s-.062.225-.228.222C444.374,210.4,443.907,210.4,443.44,210.4Z" transform="translate(-435.349 -205.291)" fill="#f60"/>
      <path id="Path_17503" data-name="Path 17503" d="M443.54,320.461c.453,0,.906.006,1.358,0,.178,0,.246.05.257.237a14.388,14.388,0,0,0,.873,4.432c.021.055.077.122.015.174s-.123,0-.18-.022a5.663,5.663,0,0,1-3.789-4.126c-.043-.163-.06-.334-.093-.5s.03-.2.179-.2C442.62,320.465,443.08,320.461,443.54,320.461Z" transform="translate(-435.434 -314.103)" fill="#f60"/>
      <path id="Path_17504" data-name="Path 17504" d="M526.285,320.5c.361,0,.721,0,1.082,0,.125,0,.2.023.189.177a16.363,16.363,0,0,1-.712,3.974,3.621,3.621,0,0,1-.219.551c-.081.157-.125.4-.332.4s-.267-.249-.345-.413a6.978,6.978,0,0,1-.436-1.305,16.956,16.956,0,0,1-.485-3.2c-.008-.147.042-.188.176-.187C525.564,320.505,525.924,320.5,526.285,320.5Z" transform="translate(-514.076 -314.144)" fill="#f60"/>
    </g>
  </g>
</svg>
