<svg xmlns="http://www.w3.org/2000/svg" width="15.538" height="14.778" viewBox="0 0 15.538 14.778">
  <g id="Path_19777" data-name="Path 19777" transform="translate(-230.86 -142.53)" fill="#fff">
    <path d="M 242.7665557861328 156.3936157226562 L 238.8617095947266 154.3407135009766 L 238.6290435791016 154.2183990478516 L 238.3963775634766 154.3407135009766 L 234.4915313720703 156.3936157226562 L 235.2372894287109 152.0455169677734 L 235.28173828125 151.7864379882812 L 235.093505859375 151.6029663085938 L 231.9344482421875 148.5236206054688 L 236.3001556396484 147.8892211914062 L 236.5602874755859 147.8514251708984 L 236.6766204833984 147.6157073974609 L 238.6290435791016 143.65966796875 L 240.5814666748047 147.6157073974609 L 240.6977996826172 147.8514251708984 L 240.9579315185547 147.8892211914062 L 245.3236999511719 148.5236206054688 L 242.1645965576172 151.6029663085938 L 241.9763488769531 151.7864379882812 L 242.0207977294922 152.0455169677734 L 242.7665557861328 156.3936157226562 Z" stroke="none"/>
    <path d="M 238.6290435791016 144.7894592285156 L 236.8923187255859 148.3084259033203 L 233.0089111328125 148.8727416992188 L 235.8189697265625 151.6118774414062 L 235.1556091308594 155.4795989990234 L 238.6290435791016 153.6535034179688 L 242.1024780273438 155.4795989990234 L 241.4391174316406 151.6118774414062 L 244.2492065429688 148.8727416992188 L 240.3657684326172 148.3084259033203 L 238.6290435791016 144.7894592285156 M 238.6290435791016 142.5298919677734 L 241.0298309326172 147.3944244384766 L 246.3981781005859 148.1744995117188 L 242.5135955810547 151.9609985351562 L 243.4306182861328 157.3076171875 L 238.6290435791016 154.7832794189453 L 233.8274688720703 157.3076171875 L 234.7444915771484 151.9609985351562 L 230.8599700927734 148.1744995117188 L 236.2282562255859 147.3944244384766 L 238.6290435791016 142.5298919677734 Z" stroke="none" fill="#707070"/>
  </g>
</svg>
