<svg xmlns="http://www.w3.org/2000/svg" width="16.3" height="19.864" viewBox="0 0 16.3 19.864">
  <g id="Group_8853" data-name="Group 8853" transform="translate(-1214.532 108.273)">
    <g id="Group_8344" data-name="Group 8344" transform="translate(1214.532 -108.273)">
      <path id="Path_19366" data-name="Path 19366" d="M1303.914-3.753a1.271,1.271,0,0,1-.855-1.474c0-.124.059-.175.18-.167.064,0,.129,0,.194,0h10.055a1.732,1.732,0,0,0,1.668-.954,1.859,1.859,0,0,0,.181-.882q0-4.94,0-9.881,0-2,0-3.991c0-.258,0-.261.258-.259a2.746,2.746,0,0,1,.579.021,1.124,1.124,0,0,1,.884,1.087c0,.071,0,.142,0,.213q0,7.488,0,14.976a1.227,1.227,0,0,1-.865,1.311Z" transform="translate(-1300.763 23.616)" fill="#f60"/>
      <path id="Path_19367" data-name="Path 19367" d="M1228.535-99.444q0,3.729,0,7.459a1.511,1.511,0,0,1-.125.718,1.114,1.114,0,0,1-1.072.627q-4.582-.006-9.163,0c-.814,0-1.627,0-2.441,0a1.116,1.116,0,0,1-1.2-1.182q0-5.6,0-11.2c0-.195.077-.238.253-.237,1.085.006,2.17.01,3.255,0a1.476,1.476,0,0,0,1.465-1.128,2.1,2.1,0,0,0,.064-.556q0-1.521,0-3.042c0-.279,0-.28.273-.28,2.48,0,4.959.012,7.439-.009a1.177,1.177,0,0,1,1.256,1.235q0,.484,0,.969Zm-6.763-1.4h-3.214c-.226,0-.452-.006-.677.006a.493.493,0,0,0-.441.376.493.493,0,0,0,.189.5.581.581,0,0,0,.381.112q3.746,0,7.491,0a1.027,1.027,0,0,0,.135,0,.538.538,0,0,0,.44-.431.512.512,0,0,0-.321-.522.729.729,0,0,0-.287-.029Zm-.02,3.787h2.4c.484,0,.969,0,1.453,0a.481.481,0,0,0,.47-.434.5.5,0,0,0-.353-.518.858.858,0,0,0-.268-.035h-7.4a.847.847,0,0,0-.268.033.491.491,0,0,0-.356.419.472.472,0,0,0,.245.47.6.6,0,0,0,.355.068Zm-1.918,1.67v0c-.645,0-1.29,0-1.936,0a.484.484,0,0,0-.468.414.514.514,0,0,0,.318.524.986.986,0,0,0,.343.049q1.742,0,3.485,0a1.272,1.272,0,0,0,.306-.035.479.479,0,0,0,.277-.74.492.492,0,0,0-.448-.217C1221.085-95.382,1220.46-95.385,1219.834-95.385Z" transform="translate(-1214.532 108.273)" fill="#1c1c1c"/>
      <path id="Path_19368" data-name="Path 19368" d="M1220.031-105.332c0,.484,0,.968,0,1.452a.923.923,0,0,1-.934.958c-.988.011-1.975,0-2.963,0a.473.473,0,0,1-.477-.3.478.478,0,0,1,.125-.549l3.4-3.4a.481.481,0,0,1,.562-.139.482.482,0,0,1,.293.5C1220.027-106.313,1220.031-105.822,1220.031-105.332Z" transform="translate(-1215.588 107.367)" fill="#1c1c1c"/>
    </g>
  </g>
</svg>
