<svg xmlns="http://www.w3.org/2000/svg" width="18.367" height="22.244" viewBox="0 0 18.367 22.244">
  <g id="Group_6055" data-name="Group 6055" transform="translate(452.458 -594.399)">
    <path id="Path_17446" data-name="Path 17446" d="M-305.965,780.236c0-.608,0-1.215,0-1.823,0-.149.049-.352-.2-.356s-.2.2-.205.348c0,1.224,0,2.448,0,3.672,0,.365,0,.369-.367.369-1.171,0-2.342-.006-3.514,0-.242,0-.353-.052-.4-.318-.258-1.561-.537-3.118-.811-4.677a.462.462,0,0,1,.109-.417c.065-.072.118-.154.176-.231.3-.392.247-.372.633-.116.23.152.373.1.531-.106.928-1.186,1.865-2.364,2.8-3.546.249-.316.25-.321.625-.156a4.935,4.935,0,0,1,2.969,3.6,22.02,22.02,0,0,1,.486,3.628c.041.676.049,1.354.093,2.029.015.231-.073.308-.3.305q-1.162-.016-2.325,0c-.238,0-.3-.09-.3-.312C-305.958,781.5-305.965,780.87-305.965,780.236Z" transform="translate(-131.054 -165.807)" fill="#1c1c1c"/>
    <path id="Path_17447" data-name="Path 17447" d="M-449.255,780.9c0,.625-.007,1.25,0,1.875,0,.224-.062.315-.3.312-.871-.01-1.743,0-2.615,0-.163,0-.3-.011-.294-.232a24.078,24.078,0,0,1,.708-6.217,4.821,4.821,0,0,1,2.8-3.116.329.329,0,0,1,.466.12c.919,1.181,1.849,2.353,2.776,3.528.253.321.3.33.648.108.534-.339.394-.294.741.134a1.1,1.1,0,0,1,.214,1c-.277,1.45-.517,2.907-.758,4.363-.039.236-.121.328-.369.325-1.083-.011-2.166-.013-3.248,0-.274,0-.342-.091-.339-.351.012-1.2.005-2.394,0-3.592,0-.07,0-.141,0-.211,0-.14-.067-.254-.21-.258-.161-.005-.226.114-.227.265q0,.832,0,1.664Q-449.255,780.755-449.255,780.9Z" transform="translate(0 -166.451)" fill="#1c1c1c"/>
    <path id="Path_17448" data-name="Path 17448" d="M-384.517,635.018h.819a1.539,1.539,0,0,0,1.2-.506c.151-.168.261-.152.415-.018a6.29,6.29,0,0,1,1.385,1.848.735.735,0,0,0,.614.492c.3.029.438.3.5.585a1.648,1.648,0,0,1-.915,1.8c-.147.067-.171.188-.2.315a4.775,4.775,0,0,1-.842,1.832,3.407,3.407,0,0,1-5.811-.549,3.972,3.972,0,0,1-.423-1.27.385.385,0,0,0-.258-.331,1.465,1.465,0,0,1-.465-2.434.711.711,0,0,0,.177-.4,1.384,1.384,0,0,1,1.435-1.255C-386.1,635.061-385.309,635.008-384.517,635.018Z" transform="translate(-59.012 -37.172)" fill="#1c1c1c"/>
    <path id="Path_17449" data-name="Path 17449" d="M-385.244,598.549a.327.327,0,0,1-.1-.276c-.007-.114.007-.231-.01-.343a2.3,2.3,0,0,1,1.1-2.22,6.568,6.568,0,0,1,2.876-1.19,6.061,6.061,0,0,1,2.618.046.874.874,0,0,1,.679.531,2.115,2.115,0,0,0,.841,1.02,2.3,2.3,0,0,1,.857,1.113,1.424,1.424,0,0,1-.255,1.318c-.307.489-.3.486-.608-.005a5.7,5.7,0,0,0-1.423-1.683c-.26-.188-.506-.242-.732.1a1.249,1.249,0,0,1-1.119.479c-.634.009-1.268.006-1.9.015a9.954,9.954,0,0,0-1.445.114,1.627,1.627,0,0,0-1.3.876A.809.809,0,0,1-385.244,598.549Z" transform="translate(-62.354)" fill="#1c1c1c"/>
    <path id="Path_17450" data-name="Path 17450" d="M-349.455,757.241a1.913,1.913,0,0,1-.17-.127c-.559-.523-1.115-1.049-1.676-1.569a.264.264,0,0,1-.08-.346,3.2,3.2,0,0,0,.3-1.353c0-.164.058-.2.21-.134a3.667,3.667,0,0,0,2.921.066c.156-.063.214-.005.214.145a3.162,3.162,0,0,0,.321,1.322.212.212,0,0,1-.063.279c-.613.542-1.223,1.087-1.835,1.629A1.046,1.046,0,0,1-349.455,757.241Z" transform="translate(-93.923 -148.058)"/>
    <path id="Path_17451" data-name="Path 17451" d="M-337.917,843.284c-.326,0-.652,0-.978,0-.175,0-.237-.072-.207-.244.267-1.524.534-3.048.792-4.574.046-.274.231-.234.413-.236s.317-.018.358.23c.251,1.518.516,3.034.784,4.548.038.215-.023.287-.238.278-.308-.012-.616,0-.925,0Z" transform="translate(-105.362 -226.647)" fill="#f60"/>
    <path id="Path_17452" data-name="Path 17452" d="M-390.171,767.972c.119-.013.234.136.36.254q1.185,1.11,2.363,2.227c.376.356.375.359-.054.636-.333.214-.671.421-1,.64-.14.093-.225.072-.328-.06q-1.295-1.652-2.6-3.294c-.135-.17-.1-.223.1-.269A8.808,8.808,0,0,1-390.171,767.972Z" transform="translate(-56.651 -161.34)" fill="#f60"/>
    <path id="Path_17453" data-name="Path 17453" d="M-313.028,768.265c-.036.052-.068.1-.106.151q-1.316,1.667-2.63,3.335a.194.194,0,0,1-.309.046q-.618-.4-1.247-.793c-.139-.086-.165-.159-.031-.277q1.462-1.294,2.918-2.594a.317.317,0,0,1,.243-.084,7.159,7.159,0,0,1,.995.1C-313.133,768.168-313.055,768.175-313.028,768.265Z" transform="translate(-125.504 -161.412)" fill="#f60"/>
    <path id="Path_17454" data-name="Path 17454" d="M-334.079,814.944c-.33.108-.466-.184-.634-.433-.266-.394-.249-.368.123-.657a.711.711,0,0,1,1-.007c.562.407.573.371.148.924C-333.613,814.984-333.817,814.928-334.079,814.944Z" transform="translate(-109.279 -203.797)" fill="#f60"/>
  </g>
</svg>
