<svg xmlns="http://www.w3.org/2000/svg" width="55" height="56" viewBox="0 0 55 56">
  <g id="Group_10564" data-name="Group 10564" transform="translate(-1538 -265)">
    <rect id="Rectangle_909" data-name="Rectangle 909" width="55" height="56" rx="6" transform="translate(1538 265)" fill="#28304e"/>
    <g id="Group_12135" data-name="Group 12135" transform="translate(1824.235 -600.346)">
      <path id="Path_20034" data-name="Path 20034" d="M-258.261,893.677c-.5-.205-.579-.314-.579-.479s.112-.318.428-.318a1.136,1.136,0,0,1,.6.163l.148.088.242-.633-.109-.063a1.6,1.6,0,0,0-.627-.2v-.529h-.625v.563a1.023,1.023,0,0,0-.818.992c0,.6.472.867.981,1.067.459.186.522.353.522.506,0,.222-.208.384-.495.384a1.288,1.288,0,0,1-.7-.209l-.154-.1-.231.646.1.062a1.714,1.714,0,0,0,.756.252v.55h.629v-.581a1.08,1.08,0,0,0,.852-1.045A1.22,1.22,0,0,0-258.261,893.677Z" fill="#fff"/>
      <path id="Path_20035" data-name="Path 20035" d="M-257.51,888.321a1.125,1.125,0,0,0-.979-.566,1.126,1.126,0,0,0-.98.566l-4.864,8.424a1.128,1.128,0,0,0,0,1.132,1.125,1.125,0,0,0,.98.565h9.728a1.124,1.124,0,0,0,.979-.565,1.128,1.128,0,0,0,0-1.132Zm4.1,9.112h0a.237.237,0,0,1-.21.122h-9.728a.24.24,0,0,1-.211-.122.238.238,0,0,1,0-.242l4.864-8.424a.237.237,0,0,1,.211-.122.237.237,0,0,1,.21.122l4.864,8.424A.238.238,0,0,1-253.415,897.433Z" fill="#fff"/>
      <path id="Path_20036" data-name="Path 20036" d="M-247.28,886.13a13.682,13.682,0,0,0-8.92-5.59,13.693,13.693,0,0,0-10.27,2.36,13.6,13.6,0,0,0-4,4.44,13.813,13.813,0,0,0,.01,13.53l-.86.86a.216.216,0,0,0,.1.37l1.68.45,1.69.46a.228.228,0,0,0,.27-.28l-.45-1.68-.45-1.69a.232.232,0,0,0-.38-.1l-.64.65a12.5,12.5,0,0,1,.16-11.93,12.255,12.255,0,0,1,3.63-4.02,12.382,12.382,0,0,1,9.29-2.14,12.41,12.41,0,0,1,8.08,5.06,12.467,12.467,0,0,1-2.93,17.37c-.19.14-.39.27-.58.4a.65.65,0,0,0-.21.9.676.676,0,0,0,.55.3.643.643,0,0,0,.35-.1c.22-.14.43-.28.65-.44A13.764,13.764,0,0,0-247.28,886.13Z" fill="#f60"/>
    </g>
  </g>
</svg>
