<svg xmlns="http://www.w3.org/2000/svg" width="55" height="56" viewBox="0 0 55 56">
  <g id="Group_10563" data-name="Group 10563" transform="translate(-1606 -265)">
    <rect id="Rectangle_909" data-name="Rectangle 909" width="55" height="56" rx="6" transform="translate(1606 265)" fill="#4eae4b"/>
    <g id="Group_4528" data-name="Group 4528" transform="translate(1622.764 279.786)">
      <g id="Group_4527" data-name="Group 4527">
        <path id="Path_16856" data-name="Path 16856" d="M-156.653,160.271h-15.3a.543.543,0,0,0-.072-.025,2.762,2.762,0,0,1-2.256-2.63c0-.334-.021-.669-.018-1,0-.2-.073-.294-.283-.29a1.047,1.047,0,0,1-.774-.333,1.283,1.283,0,0,1-.34-.97q0-2.322,0-4.645c0-.586-.008-1.172,0-1.758a1.134,1.134,0,0,1,1.071-1.213c.271-.009.327-.12.325-.354-.009-.829,0-1.657,0-2.486,0-2.327.026-4.654-.007-6.98a2.929,2.929,0,0,1,3.129-3.068c3.307.068,6.616.023,9.924.016a.731.731,0,0,1,.561.227q3.081,3.03,6.175,6.047a.709.709,0,0,1,.232.553q-.007,8.022,0,16.044a2.922,2.922,0,0,1-.138.94A2.815,2.815,0,0,1-156.653,160.271Zm.594-10.522h-.048q0-3.817,0-7.634c0-.37-.007-.376-.39-.376q-1.458,0-2.916.008a2.821,2.821,0,0,1-.709-.076,1.941,1.941,0,0,1-1.5-1.969c-.009-.962,0-1.925,0-2.888,0-.572.061-.55-.547-.55l-8.953.008c-.128,0-.256,0-.384,0a1,1,0,0,0-.99.956c-.007.109-.007.218-.007.326q0,4.7,0,9.392c0,.442,0,.442.449.442h12.816a1.114,1.114,0,0,1,1.221,1.084q.019,3.377,0,6.755a1.1,1.1,0,0,1-.884,1.064,2.589,2.589,0,0,1-.509.027H-172c-.085,0-.171,0-.256,0-.168-.007-.255.061-.252.235.006.36-.007.72.012,1.079a.982.982,0,0,0,.8.893,2.162,2.162,0,0,0,.382.02h14.044c.085,0,.171,0,.256-.007a1.017,1.017,0,0,0,.9-.743,2.091,2.091,0,0,0,.055-.523Q-156.061,153.515-156.059,149.749Zm-12.548,2.242c0,.67,0,1.339,0,2.009,0,.15.028.263.214.276a7.026,7.026,0,0,0,2.185-.1,2.075,2.075,0,0,0,1.643-1.609,3.15,3.15,0,0,0,.069-.823,1.99,1.99,0,0,0-1.761-2,8.454,8.454,0,0,0-2.089-.019c-.216.019-.266.115-.264.307C-168.6,150.685-168.607,151.338-168.607,151.99Zm-4.061,0c0,.543,0,1.087,0,1.63,0,.75-.088.641.694.656.215,0,.287-.087.284-.285-.005-.376,0-.752,0-1.129,0-.178.073-.255.263-.245a2.884,2.884,0,0,0,.936-.092,1.419,1.419,0,0,0,1.132-1.522,1.32,1.32,0,0,0-1.214-1.275,7.334,7.334,0,0,0-1.807-.013c-.235.016-.294.132-.291.344C-172.662,150.7-172.668,151.348-172.668,151.992Zm8.959-.01c0,.536,0,1.071,0,1.607.008.8-.112.673.735.69.2,0,.271-.076.267-.268-.008-.443,0-.887,0-1.331,0-.191.063-.274.266-.266.3.011.6,0,.9,0,.544,0,.535,0,.537-.532,0-.225-.09-.291-.305-.285-.383.011-.767,0-1.151,0-.177,0-.246-.069-.24-.238a6,6,0,0,0,0-.6c-.014-.211.083-.283.284-.28.392,0,.784,0,1.176,0,.311,0,.34-.032.345-.327,0-.05,0-.1,0-.151.027-.242-.082-.321-.326-.317-.716.012-1.432,0-2.148,0-.311,0-.329.018-.33.332C-163.71,150.676-163.709,151.328-163.709,151.981Z" transform="translate(175.699 -134.515)" fill="#fff"/>
        <path id="Path_16857" data-name="Path 16857" d="M-56.5,374.486c0-.4,0-.8,0-1.2,0-.321.039-.355.373-.359a2.667,2.667,0,0,1,.484.021,1.346,1.346,0,0,1,1.175,1.537,2.148,2.148,0,0,1-.087.594,1.553,1.553,0,0,1-1.774.983c-.161-.037-.168-.149-.168-.267,0-.435,0-.87,0-1.305Z" transform="translate(64.592 -357.026)" fill="#fff"/>
        <path id="Path_16858" data-name="Path 16858" d="M-116.682,373.6c0-.176,0-.351,0-.527a.193.193,0,0,1,.221-.215c.145,0,.29-.009.434,0a.681.681,0,0,1,.668.552.737.737,0,0,1-.435.825,1.05,1.05,0,0,1-.169.056c-.6.146-.727.047-.727-.543v-.15Z" transform="translate(120.697 -356.966)" fill="#fff"/>
      </g>
    </g>
  </g>
</svg>
