<svg xmlns="http://www.w3.org/2000/svg" width="22.295" height="22.258" viewBox="0 0 22.295 22.258">
  <g id="Group_11909" data-name="Group 11909" transform="translate(-2785.304 -5727.434)">
    <g id="Group_11906" data-name="Group 11906" transform="translate(2785.304 5727.434)">
      <path id="Path_19817" data-name="Path 19817" d="M13345.445,4884.394c0-1.029,0-2.059,0-3.087a1.762,1.762,0,0,1,1.817-1.8q3.092,0,6.184,0a1.761,1.761,0,0,1,1.806,1.813q0,3.087,0,6.174a1.761,1.761,0,0,1-1.816,1.8q-3.092,0-6.184,0a1.763,1.763,0,0,1-1.806-1.813Q13345.443,4885.937,13345.445,4884.394Z" transform="translate(-13345.443 -4879.502)" fill="#28304e"/>
      <path id="Path_19818" data-name="Path 19818" d="M13513.4,4884.394c0-1.029,0-2.059,0-3.087a1.763,1.763,0,0,1,1.816-1.8q3.094,0,6.186,0a1.76,1.76,0,0,1,1.8,1.813q0,3.087,0,6.174a1.761,1.761,0,0,1-1.816,1.8q-3.091,0-6.184,0a1.764,1.764,0,0,1-1.807-1.813C13513.4,4886.451,13513.4,4885.422,13513.4,4884.394Z" transform="translate(-13500.912 -4879.502)" fill="#28304e"/>
      <path id="Path_19819" data-name="Path 19819" d="M13350.357,5047.178c1.031,0,2.062,0,3.093,0a1.76,1.76,0,0,1,1.8,1.793q0,3.1,0,6.2a1.761,1.761,0,0,1-1.8,1.795q-3.105,0-6.212,0a1.761,1.761,0,0,1-1.8-1.794q0-3.1,0-6.2a1.762,1.762,0,0,1,1.8-1.794C13348.278,5047.176,13349.317,5047.178,13350.357,5047.178Z" transform="translate(-13345.439 -5034.712)" fill="#28304e"/>
      <path id="Path_19820" data-name="Path 19820" d="M13518.31,5056.979a4.9,4.9,0,1,1,4.907-4.885A4.888,4.888,0,0,1,13518.31,5056.979Z" transform="translate(-13500.924 -5034.723)" fill="#f60"/>
    </g>
  </g>
</svg>
