<svg xmlns="http://www.w3.org/2000/svg" xmlns:xlink="http://www.w3.org/1999/xlink" width="21.725" height="21.736" viewBox="0 0 21.725 21.736">
  <defs>
    <clipPath id="clip-path">
      <rect id="Rectangle_3059" data-name="Rectangle 3059" width="21.725" height="21.736" fill="#28304e"/>
    </clipPath>
  </defs>
  <g id="Group_11989" data-name="Group 11989" transform="translate(0 0)">
    <g id="Group_11988" data-name="Group 11988" transform="translate(0 0)" clip-path="url(#clip-path)">
      <path id="Path_19813" data-name="Path 19813" d="M0,11.1a.7.7,0,0,1,.72-.393q7.433.012,14.868.006c.532,0,.706.175.706.713q0,6.046,0,12.093c0,.174-.024.235-.221.234-1.308-.011-2.616-.009-3.924,0-.17,0-.2-.048-.2-.208q.007-3.341,0-6.683c0-.535-.178-.715-.707-.715H5.029c-.5,0-.687.188-.687.694q0,3.352,0,6.7c0,.16-.032.211-.2.21-1.131-.009-2.262-.014-3.393,0A.728.728,0,0,1,0,23.37Z" transform="translate(0 -2.022)" fill="#28304e"/>
      <path id="Path_19814" data-name="Path 19814" d="M10.661,0a.621.621,0,0,1,.4.812,1.227,1.227,0,0,1-.792.921c-.192.085-.394.15-.594.221a.292.292,0,0,0-.227.264.53.53,0,0,1-.576.5.545.545,0,0,1-.5-.6A1.214,1.214,0,0,1,9.189.983C9.389.9,9.6.834,9.8.754,9.891.718,9.994.688,10,.56a.61.61,0,0,1,.41-.56Z" transform="translate(-1.581 0)" fill="#f60"/>
      <path id="Path_19815" data-name="Path 19815" d="M4.961,0a.62.62,0,0,1,.41.807,1.24,1.24,0,0,1-.791.924c-.2.088-.409.152-.613.228a.274.274,0,0,0-.209.253.535.535,0,0,1-.594.5.558.558,0,0,1-.484-.635A1.228,1.228,0,0,1,3.489.986C3.7.9,3.912.83,4.122.749c.092-.036.187-.078.188-.2A.568.568,0,0,1,4.748,0Z" transform="translate(-0.506 0)" fill="#f60"/>
      <path id="Path_19816" data-name="Path 19816" d="M16.361,0a.667.667,0,0,1,.365.923,1.191,1.191,0,0,1-.681.767,7.037,7.037,0,0,1-.669.259.313.313,0,0,0-.245.3.519.519,0,0,1-.558.466.537.537,0,0,1-.506-.528,1.177,1.177,0,0,1,.655-1.125,4.918,4.918,0,0,1,.745-.3A.286.286,0,0,0,15.7.482C15.71.229,15.9.1,16.106,0Z" transform="translate(-2.656 0)" fill="#f60"/>
      <path id="Path_19817" data-name="Path 19817" d="M21.427,19.628c0-1.562,0-3.125,0-4.687,0-.166.041-.21.208-.208,1.159.007,2.318,0,3.478,0,.465,0,.66.2.661.653v8.463c0,.458-.2.659-.656.659-1.159,0-2.318,0-3.478.006-.185,0-.213-.054-.213-.223.006-1.555,0-3.111,0-4.666m2.184-.548c-.184,0-.368,0-.552,0a.547.547,0,0,0-.548.511.523.523,0,0,0,.489.561,10.711,10.711,0,0,0,1.186,0,.51.51,0,0,0,.491-.556.534.534,0,0,0-.536-.518c-.177-.006-.354,0-.53,0m0-2.168c-.191,0-.382-.006-.573,0a.54.54,0,0,0-.524.532.531.531,0,0,0,.516.539c.381.012.763.012,1.144,0a.514.514,0,0,0,.509-.539.527.527,0,0,0-.521-.531c-.183-.007-.367,0-.551,0" transform="translate(-4.045 -2.781)" fill="#28304e"/>
      <path id="Path_19818" data-name="Path 19818" d="M6.694,22.007c0-1.025,0-2.05,0-3.074,0-.146.034-.189.184-.188q2.533.009,5.067,0c.148,0,.187.037.187.186q-.007,3.086,0,6.17c0,.14-.037.173-.174.173q-2.544-.007-5.088,0c-.16,0-.177-.056-.176-.192.006-1.025,0-2.05,0-3.074" transform="translate(-1.263 -3.539)" fill="#f60"/>
      <path id="Path_19819" data-name="Path 19819" d="M16.779,6.391c0,.594,0,1.188,0,1.781,0,.14-.022.195-.18.193q-1.186-.013-2.374,0c-.149,0-.168-.052-.167-.18q.007-1.24,0-2.481a.6.6,0,0,1,.3-.546q.753-.493,1.5-1a.56.56,0,0,1,.926.493c0,.579,0,1.159,0,1.738" transform="translate(-2.655 -0.758)" fill="#28304e"/>
      <path id="Path_19820" data-name="Path 19820" d="M11.084,6.4c0,.594,0,1.188,0,1.781,0,.123-.01.185-.164.183-.8-.01-1.6-.008-2.4,0-.134,0-.161-.037-.161-.165q.009-1.251,0-2.5a.591.591,0,0,1,.287-.531q.76-.5,1.515-1.011a.556.556,0,0,1,.917.485c-.006.586,0,1.174,0,1.76" transform="translate(-1.58 -0.759)" fill="#28304e"/>
      <path id="Path_19821" data-name="Path 19821" d="M5.389,6.388c0,.6,0,1.2,0,1.8,0,.138-.034.176-.174.174q-1.186-.01-2.374,0c-.14,0-.176-.038-.174-.176.006-.827,0-1.653,0-2.481a.606.606,0,0,1,.3-.547q.762-.5,1.513-1.011A.562.562,0,0,1,5.1,4.083a.552.552,0,0,1,.29.546c-.006.586,0,1.173,0,1.759" transform="translate(-0.504 -0.758)" fill="#28304e"/>
    </g>
  </g>
</svg>
