<svg id="Group_11907" data-name="Group 11907" xmlns="http://www.w3.org/2000/svg" width="28.55" height="24.061" viewBox="0 0 28.55 24.061">
  <path id="Path_19821" data-name="Path 19821" d="M13849.314,4138.161c.712-.351,1.39-.687,2.067-1.02q4.14-2.035,8.279-4.07a.45.45,0,0,1,.438-.01q5.058,2.4,10.12,4.78c.058.027.114.057.2.1-.1.06-.17.11-.248.153q-5.033,2.756-10.063,5.515a.459.459,0,0,1-.5,0q-5-2.645-10-5.277C13849.516,4138.286,13849.432,4138.231,13849.314,4138.161Z" transform="translate(-13845.604 -4133.009)" fill="#28304e"/>
  <path id="Path_19822" data-name="Path 19822" d="M13846.213,4317.277c-.376-.2-.727-.378-1.076-.562q-4.7-2.476-9.395-4.946a.428.428,0,0,1-.262-.449c.008-1.641,0-3.281,0-4.921v-.316c.124.064.212.106.3.155l6.875,3.932c.685.391.988.33,1.473-.28q.979-1.23,1.961-2.456c.028-.035.061-.065.121-.13Z" transform="translate(-13832.799 -4293.217)" fill="#28304e"/>
  <path id="Path_19823" data-name="Path 19823" d="M14002.641,4317.454v-9.963c.109.131.183.215.253.3q.936,1.174,1.873,2.349a.888.888,0,0,0,1.369.266q3.466-1.979,6.93-3.958c.086-.048.175-.09.29-.148.008.114.019.194.019.274,0,1.585,0,3.171,0,4.757a.363.363,0,0,1-.217.37q-5.147,2.813-10.289,5.635C14002.81,4317.372,14002.744,4317.4,14002.641,4317.454Z" transform="translate(-13987.532 -4293.419)" fill="#28304e"/>
  <path id="Path_19824" data-name="Path 19824" d="M14011.009,4222.82l-2.692-3.372,10.854-5.942,2.166,3.411Z" transform="translate(-13992.786 -4207.522)" fill="#f60"/>
  <path id="Path_19825" data-name="Path 19825" d="M13799.405,4219.8c.72-1.074,1.423-2.125,2.136-3.189l10.854,5.722-2.681,3.36Z" transform="translate(-13799.405 -4210.395)" fill="#f60"/>
</svg>
