<svg xmlns="http://www.w3.org/2000/svg" width="29.54" height="23.715" viewBox="0 0 29.54 23.715">
  <g id="Group_11915" data-name="Group 11915" transform="translate(3174.728 -9600.7) rotate(90)">
    <path id="Path_19829" data-name="Path 19829" d="M9601.391,3174.9a1.175,1.175,0,0,1-.69-1.228q.015-13.549.008-27.1a2.308,2.308,0,0,1,.03-.458.89.89,0,0,1,.9-.739q4.617-.005,9.234,0a.9.9,0,0,1,.918.849c.01.1.012.211.012.316q0,13.593.006,27.185a1.089,1.089,0,0,1-.721,1.174Zm1.2-6.451h4.572v1.848h-4.573v2.742h7.335v-25.8h-7.334V3150h4.576v1.838h-4.571v2.776h2.729v1.829h-2.733v2.777h4.573v1.848H9602.6v2.774h2.725v1.831h-2.732Z" transform="translate(0 -0.173)" fill="#28304e"/>
    <path id="Path_19830" data-name="Path 19830" d="M9788.612,3174.728a8.882,8.882,0,0,1-.705-.574c-1.366-1.353-2.724-2.716-4.086-4.073a1.617,1.617,0,0,0-.238-.168l1.355-1.351,2.967,2.971v-23.1l-2.917,2.952-1.358-1.35,3.275-3.27c.421-.421.839-.847,1.267-1.262a.9.9,0,0,1,1.359-.008q2.273,2.254,4.531,4.525c.013.013.021.032.009.014l-1.295,1.3-2.968-2.984v23.128l2.922-2.944,1.358,1.355c-.029.032-.09.1-.155.167q-2.019,2.019-4.041,4.035c-.234.232-.506.427-.761.639Z" transform="translate(-169.673)" fill="#28304e"/>
    <path id="Path_19831" data-name="Path 19831" d="M9626.822,3192.411v-2.778h2.732V3187.8h-2.725v-2.774h4.567v-1.848h-4.574V3180.4h2.733v-1.829h-2.729V3175.8h4.571v-1.838h-4.577V3171.2h7.334V3197h-7.335v-2.743h4.574v-1.848Z" transform="translate(-24.234 -24.135)" fill="#f60"/>
  </g>
</svg>
