<svg xmlns="http://www.w3.org/2000/svg" width="26.181" height="26.141" viewBox="0 0 26.181 26.141">
  <g id="Group_11911" data-name="Group 11911" transform="translate(-2648.273 -5656.612)">
    <g id="Group_11905" data-name="Group 11905" transform="translate(2648.273 5656.612)">
      <path id="Path_19810" data-name="Path 19810" d="M11515.2,3926.8c2.377,0,4.756-.009,7.133,0a5.943,5.943,0,0,1,5.583,3.91,6.042,6.042,0,0,1,.366,2.1q0,7.066,0,14.132a5.944,5.944,0,0,1-5.1,5.931,6.337,6.337,0,0,1-.972.064q-7.006.007-14.014,0a5.953,5.953,0,0,1-6.019-5.066,5.514,5.514,0,0,1-.068-.941q-.006-7.066,0-14.132a5.947,5.947,0,0,1,5.1-5.931,6.7,6.7,0,0,1,1-.064Q11511.7,3926.8,11515.2,3926.8Zm.785,16.7a4.326,4.326,0,0,0,3.123-1.261q2.566-2.532,5.1-5.094a4.44,4.44,0,0,0-1.5-7.238,4.133,4.133,0,0,0-4.441.666,40.393,40.393,0,0,0-2.936,2.885.86.86,0,0,0,.473,1.419.91.91,0,0,0,.9-.306c.86-.858,1.7-1.738,2.594-2.562a2.648,2.648,0,0,1,3.729.213,2.681,2.681,0,0,1-.193,3.8c-1.592,1.6-3.213,3.166-4.779,4.786a2.753,2.753,0,0,1-3.954.146.87.87,0,0,0-1.27.022.888.888,0,0,0,.071,1.269A4.377,4.377,0,0,0,11515.98,3943.5Zm-1.6-7.152a4.81,4.81,0,0,0-3.418,1.457c-1.541,1.53-3.09,3.054-4.6,4.61a5.691,5.691,0,0,0-.994,1.394,4.38,4.38,0,0,0,1.1,5.411,4.586,4.586,0,0,0,5.448.081,4.677,4.677,0,0,0,.625-.509q1.192-1.169,2.367-2.356a.886.886,0,1,0-1.256-1.245c-.732.724-1.459,1.454-2.187,2.183a3.167,3.167,0,0,1-2.5,1.007,2.5,2.5,0,0,1-2.306-2.3,3.167,3.167,0,0,1,1.013-2.491q1.992-1.983,3.98-3.972c.25-.249.494-.5.76-.736a2.823,2.823,0,0,1,3.8-.039.879.879,0,0,0,1.272-.013.9.9,0,0,0-.08-1.291A4.283,4.283,0,0,0,11514.381,3936.351Z" transform="translate(-11502.101 -3926.798)" fill="#28304e"/>
      <g id="Group_11917" data-name="Group 11917">
        <path id="Path_19811" data-name="Path 19811" d="M11646.691,3977.741a4.375,4.375,0,0,1-3.078-1.259.888.888,0,0,1-.071-1.269.87.87,0,0,1,1.27-.022,2.753,2.753,0,0,0,3.954-.146c1.566-1.621,3.188-3.19,4.779-4.786a2.682,2.682,0,0,0,.193-3.8,2.648,2.648,0,0,0-3.729-.213c-.893.824-1.733,1.7-2.594,2.563a.913.913,0,0,1-.9.306.861.861,0,0,1-.473-1.419,40.406,40.406,0,0,1,2.937-2.885,4.133,4.133,0,0,1,4.44-.666,4.44,4.44,0,0,1,1.5,7.238q-2.528,2.568-5.1,5.094A4.324,4.324,0,0,1,11646.691,3977.741Z" transform="translate(-11632.813 -3961.036)" fill="#f60"/>
        <path id="Path_19812" data-name="Path 19812" d="M11548.915,4055.307a4.286,4.286,0,0,1,3.026,1.186.9.9,0,0,1,.08,1.291.879.879,0,0,1-1.272.013,2.825,2.825,0,0,0-3.8.039c-.266.231-.51.487-.759.736q-1.991,1.985-3.979,3.972a3.158,3.158,0,0,0-1.014,2.491,2.5,2.5,0,0,0,2.3,2.3,3.167,3.167,0,0,0,2.5-1.007q1.091-1.094,2.187-2.183a.886.886,0,1,1,1.258,1.245q-1.175,1.187-2.368,2.356a4.668,4.668,0,0,1-.624.509,4.587,4.587,0,0,1-5.449-.081,4.38,4.38,0,0,1-1.1-5.411,5.665,5.665,0,0,1,.994-1.394c1.514-1.556,3.061-3.08,4.6-4.61A4.817,4.817,0,0,1,11548.915,4055.307Z" transform="translate(-11536.635 -4045.753)" fill="#f60"/>
      </g>
    </g>
  </g>
</svg>
