<svg xmlns="http://www.w3.org/2000/svg" width="23.905" height="23.903" viewBox="0 0 23.905 23.903">
  <g id="Group_8216" data-name="Group 8216" transform="translate(250.115 -199.89)">
    <path id="Path_19213" data-name="Path 19213" d="M-226.213,222.386c0,.428,0,.856,0,1.283,0,.1-.019.138-.12.118a.485.485,0,0,0-.093,0q-11.738,0-23.477,0c-.175,0-.222-.039-.215-.215.015-.4,0-.793,0-1.19.132-.006.263-.016.395-.017.383,0,.383,0,.383-.386q0-7.229,0-14.457c0-.054,0-.109,0-.163.01-.158-.06-.226-.22-.224-.186,0-.372-.01-.558-.015v-1.4a1.338,1.338,0,0,1,.161-.019c1.657,0,3.313,0,4.97,0,.2,0,.253.082.252.265-.005.754-.009,1.509,0,2.263,0,.236-.08.314-.311.309-.544-.012-1.089,0-1.633-.006-.192,0-.266.072-.259.262.009.264.012.529,0,.793-.011.218.081.284.289.28.536-.01,1.073.006,1.61-.007.239-.006.317.084.305.314-.015.279,0,.56,0,.84,0,.3-.018.315-.32.316-.529,0-1.058.009-1.587,0-.227,0-.305.082-.294.3a6.611,6.611,0,0,1,0,.746c-.014.231.083.295.3.29.536-.012,1.073,0,1.61-.008.228-.005.3.082.292.3-.013.272,0,.544,0,.816,0,.33-.012.344-.338.346-.529,0-1.058.006-1.587,0-.2,0-.282.075-.274.276.01.256.012.514,0,.77-.011.219.062.305.292.3.544-.013,1.089,0,1.633-.007.2,0,.286.055.278.264-.012.3-.012.607,0,.91.008.2-.07.272-.272.268-.56-.01-1.12,0-1.68-.006-.18,0-.254.064-.249.245.008.288.009.576,0,.863-.007.194.074.26.263.257.513-.008,1.027,0,1.54,0,.4,0,.4,0,.4.4q0,1.7,0,3.407c0,.3.01.307.3.308h.56c.427,0,.427,0,.427-.438q0-9.252-.005-18.5a.547.547,0,0,1,.3-.54q1.773-1.057,3.529-2.144c.456-.281.931-.532,1.362-.854h.187c.069.05.135.1.208.148,1.54.94,3.076,1.885,4.625,2.81a.653.653,0,0,1,.362.648q-.014,9.193-.007,18.385c0,.093,0,.187,0,.28,0,.149.069.209.215.207.249,0,.5,0,.747,0,.32,0,.323,0,.323-.33,0-1.167,0-2.333,0-3.5,0-.208.064-.289.281-.285.552.012,1.1,0,1.656.006.2,0,.286-.067.279-.27-.009-.272-.01-.545,0-.816.008-.215-.084-.284-.293-.28-.552.01-1.1,0-1.656.007-.207,0-.275-.074-.268-.273.011-.3.011-.591,0-.886-.008-.21.066-.288.282-.284.56.012,1.12,0,1.68.006.179,0,.257-.067.254-.246,0-.241,0-.482,0-.723,0-.352-.019-.371-.368-.372-.529,0-1.058,0-1.587,0-.185,0-.267-.071-.26-.264.01-.287,0-.575,0-.863,0-.323.008-.331.323-.331.521,0,1.042,0,1.563,0,.308,0,.324-.017.326-.335,0-.226,0-.451,0-.677,0-.292-.028-.318-.323-.319-.537,0-1.073-.006-1.61,0-.211,0-.292-.078-.283-.29.013-.295.013-.591,0-.886-.01-.225.078-.3.3-.3.544.011,1.089,0,1.633.006.215,0,.294-.08.286-.288-.01-.249-.011-.5,0-.746.01-.219-.073-.306-.3-.3-.544.011-1.089,0-1.633.006-.209,0-.289-.071-.287-.285.009-.746,0-1.493,0-2.24,0-.3.009-.308.32-.308q2.4,0,4.806,0c.085,0,.17.013.255.02v1.4c-.139.006-.279.015-.418.016-.356,0-.356,0-.356.366q0,7.248,0,14.5a.85.85,0,0,1,0,.093c-.022.2.055.287.263.275C-226.555,222.362-226.384,222.381-226.213,222.386Zm-11.268-1.237c0-.327,0-.653,0-.98,0-.163-.049-.247-.227-.242-.3.007-.607.006-.91,0-.156,0-.228.056-.227.218q.005,1,0,2.006c0,.162.07.221.226.218.3-.006.591-.01.886,0,.2.008.257-.081.252-.266C-237.488,221.787-237.481,221.468-237.481,221.15Zm-.693-14.27c.163,0,.326,0,.489,0,.132,0,.2-.053.2-.192,0-.318,0-.636,0-.954,0-.126-.066-.182-.189-.181-.326,0-.652,0-.978,0-.14,0-.193.07-.193.2q0,.466,0,.931c0,.138.068.2.2.194C-238.485,206.877-238.33,206.879-238.174,206.879Zm.008,2.937c.163,0,.326,0,.489,0,.137,0,.2-.064.2-.2q0-.466,0-.931c0-.136-.062-.2-.2-.2-.171,0-.341,0-.512,0-.651,0-.651,0-.651.654C-238.842,209.818-238.842,209.818-238.167,209.817Zm-.006,2.938c.163,0,.326,0,.489,0,.134,0,.2-.054.2-.193q0-.466,0-.932c0-.132-.053-.207-.191-.206h-.978c-.139,0-.191.076-.191.207q0,.466,0,.932c0,.139.069.195.2.192C-238.484,212.752-238.328,212.755-238.173,212.755Zm0,2.94c.155,0,.311,0,.466,0s.232-.051.229-.215c-.005-.3,0-.606,0-.91a.185.185,0,0,0-.211-.215h-.933c-.141,0-.218.06-.217.209q0,.466,0,.933c0,.137.063.2.2.2C-238.487,215.691-238.331,215.694-238.176,215.694Zm.034,1.576c-.163,0-.327,0-.49,0-.148,0-.213.061-.211.209q.005.455,0,.91c0,.162.078.222.23.221q.455,0,.91,0c.156,0,.225-.071.223-.228,0-.3,0-.591,0-.886,0-.156-.056-.232-.219-.225C-237.846,217.275-237.994,217.27-238.142,217.271Zm-2.706-11.719c-.148,0-.3,0-.443,0s-.232.06-.231.219c0,.3,0,.606,0,.909a.176.176,0,0,0,.2.2q.466,0,.933,0c.134,0,.2-.057.2-.2q0-.466,0-.933c0-.135-.058-.2-.2-.2C-240.537,205.554-240.692,205.552-240.848,205.552Zm5.333,1.328c.148,0,.3,0,.443,0s.224-.074.223-.227c0-.3,0-.591,0-.886,0-.142-.06-.217-.21-.215-.311,0-.622,0-.933,0-.139,0-.2.068-.193.2,0,.155,0,.311,0,.466C-236.184,206.88-236.184,206.88-235.514,206.879Zm-5.32,1.609c-.783.012-.686-.112-.686.672,0,.764-.088.65.654.656.681.006.681,0,.681-.67S-240.186,208.488-240.834,208.488Zm4.651.585c0,.222,0,.385,0,.548,0,.138.064.2.2.2.3,0,.606,0,.909,0,.157,0,.228-.067.227-.223q0-.443,0-.886c0-.158-.074-.225-.229-.221s-.311,0-.466,0C-236.293,208.5-236.172,208.391-236.183,209.073Zm-4,3.037c0-.148-.005-.3,0-.443.008-.164-.053-.248-.227-.245-.3,0-.591,0-.887,0-.158,0-.224.077-.223.23q0,.443,0,.887c0,.16.078.222.232.217s.311,0,.467,0C-240.186,212.755-240.186,212.755-240.186,212.11Zm4.65.645c.689,0,.691,0,.688-.694,0-.728.079-.639-.655-.638-.8,0-.672-.1-.68.675C-236.189,212.755-236.184,212.755-235.536,212.755Zm-4.651,2.279c0-.155,0-.31,0-.465s-.068-.213-.211-.213h-.907a.189.189,0,0,0-.216.213c0,.31,0,.62,0,.93,0,.135.07.195.2.194q.465,0,.93,0c.135,0,.2-.057.2-.195C-240.189,215.345-240.187,215.19-240.187,215.035Zm4.656.659c.155,0,.31,0,.465,0s.217-.06.217-.206q0-.453,0-.907c0-.139-.059-.223-.206-.223h-.93a.175.175,0,0,0-.2.2c0,.163,0,.326,0,.488C-236.184,215.695-236.184,215.695-235.531,215.694Zm-4.656,2.25c0-.155,0-.31,0-.465s-.062-.211-.209-.209q-.453.006-.907,0c-.143,0-.219.056-.219.2,0,.3,0,.6,0,.907a.2.2,0,0,0,.227.228c.295,0,.589,0,.884,0,.153,0,.231-.063.225-.223S-240.187,218.091-240.186,217.944Zm4-.016c0,.147.005.295,0,.442-.008.168.066.242.233.24.287,0,.574,0,.86,0,.162,0,.245-.067.244-.236q0-.442,0-.884c0-.156-.07-.224-.227-.221-.294.005-.589.007-.884,0-.176,0-.235.077-.226.24C-236.178,217.648-236.184,217.788-236.184,217.927Z" transform="translate(0)" fill="#28304e"/>
  </g>
</svg>
