<svg xmlns="http://www.w3.org/2000/svg" width="29.629" height="29.652" viewBox="0 0 29.629 29.652">
  <g id="Group_5955" data-name="Group 5955" transform="translate(1509.45 66)">
    <path id="Path_17333" data-name="Path 17333" d="M-1479.821-19.5V6.562h-3.539v-5.2h-8.691v5.18h-5.206V1.369h-8.691V6.542h-3.5V-9.083h13.94V-19.5Zm-10.5,19.1V-16h-1.7V-.4Zm1.776-15.612v15.6h1.7v-15.6Zm3.479-.006V-.407h1.694V-16.019Zm-20.86,12.137h8.653v-1.7h-8.653Zm0,3.474h8.653v-1.7h-8.653Z" transform="translate(0 -42.909)" fill="#28304e"/>
    <path id="Path_17334" data-name="Path 17334" d="M-1294.338-66v1.834H-1306.5V-66Z" transform="translate(-187.278)" fill="#f60"/>
    <path id="Path_17335" data-name="Path 17335" d="M-1436,273.283v3.436h-5.174v-3.436Z" transform="translate(-63 -313.084)" fill="#f60"/>
    <path id="Path_17336" data-name="Path 17336" d="M-1256.012,273.276v3.437h-5.174v-3.437Z" transform="translate(-229.093 -313.077)" fill="#f60"/>
    <path id="Path_17337" data-name="Path 17337" d="M-1455.038,70.756v1.693h-8.655V70.756Z" transform="translate(-42.224 -126.196)" fill="#f60"/>
  </g>
</svg>
