<svg xmlns="http://www.w3.org/2000/svg" width="22.452" height="26.581" viewBox="0 0 22.452 26.581">
  <g id="Group_7166" data-name="Group 7166" transform="translate(6147 -7762)">
    <g id="Group_7166-2" data-name="Group 7166" transform="translate(-6147 7762)">
      <path id="Path_18021" data-name="Path 18021" d="M709.613,872.6h-.519a1.116,1.116,0,0,1-.561-.514c-.667-1.121-1.344-2.237-2.009-3.36a.462.462,0,0,0-.454-.261c-1.15.01-2.3,0-3.449.005a4.349,4.349,0,0,1-.67-.05A4.58,4.58,0,0,1,698.13,864q0-6.729,0-13.458a4.55,4.55,0,0,1,4.508-4.513q6.716,0,13.432,0a4.532,4.532,0,0,1,.7.052,4.578,4.578,0,0,1,3.812,4.437q0,6.729,0,13.458a4.49,4.49,0,0,1-4.468,4.5c-1.158,0-2.317.006-3.475,0a.462.462,0,0,0-.454.262c-.664,1.123-1.341,2.239-2.009,3.36A1.109,1.109,0,0,1,709.613,872.6Zm-7.469-18.911a6.323,6.323,0,0,0,.8,3,16.234,16.234,0,0,0,5.22,5.868,8.2,8.2,0,0,0,4.226,1.691,2.754,2.754,0,0,0,2.209-.752q.84-.828,1.668-1.669a.807.807,0,0,0-.011-1.257q-1.536-1.544-3.08-3.08a.814.814,0,0,0-1.275,0c-.442.438-.885.875-1.319,1.321a.284.284,0,0,1-.405.066,7.894,7.894,0,0,1-2.637-2.626.3.3,0,0,1,.059-.429c.436-.419.86-.851,1.285-1.281a.822.822,0,0,0,.011-1.328q-1.518-1.526-3.043-3.043a.817.817,0,0,0-1.309,0c-.509.505-1.006,1.023-1.524,1.519A2.6,2.6,0,0,0,702.144,853.694Z" transform="translate(-698.128 -846.024)" fill="#28304e"/>
      <path id="Path_18022" data-name="Path 18022" d="M787.985,940.966a4.859,4.859,0,0,1-2.026-.574,14.249,14.249,0,0,1-4.988-4.248,9.025,9.025,0,0,1-1.643-3.123,4.442,4.442,0,0,1-.13-.66,1.375,1.375,0,0,1,.427-1.27c.3-.27.581-.568.863-.86a.192.192,0,0,1,.324,0q.884.894,1.779,1.778c.131.129.12.221-.006.343-.3.294-.589.61-.9.894a1.27,1.27,0,0,0-.349,1.462,4.981,4.981,0,0,0,.925,1.579,9.082,9.082,0,0,0,2.617,2.291,2.308,2.308,0,0,0,1.1.336,1.105,1.105,0,0,0,.839-.337c.322-.326.652-.644.97-.974.133-.138.234-.166.383-.014q.862.88,1.741,1.742c.133.131.145.227,0,.362-.331.316-.651.644-.974.969A1.176,1.176,0,0,1,787.985,940.966Z" transform="translate(-773.576 -924.324)" fill="#28304e"/>
    </g>
  </g>
</svg>
