<svg xmlns="http://www.w3.org/2000/svg" width="22.905" height="17.487" viewBox="0 0 22.905 17.487">
  <g id="Group_4575" data-name="Group 4575" transform="translate(921 -111.599)">
    <g id="Group_4574" data-name="Group 4574" transform="translate(-921 111.598)">
      <path id="Path_16944" data-name="Path 16944" d="M-898.095,202.579v9.529a.8.8,0,0,1-.812.469q-10.641-.009-21.282,0a.8.8,0,0,1-.812-.469V199c.13.008.21.106.3.175q5.31,3.873,10.617,7.749a.724.724,0,0,0,1.066,0c.9-.644,1.791-1.287,2.681-1.939a.342.342,0,0,1,.437-.027,5.952,5.952,0,0,0,5.875.18,2,2,0,0,0,1.22-2.006.183.183,0,0,1,.093-.186C-898.5,202.826-898.3,202.7-898.095,202.579Z" transform="translate(921 -195.09)" fill="#28304e"/>
      <path id="Path_16945" data-name="Path 16945" d="M-610.289,116.716a2.263,2.263,0,0,1-1.7,1.774,2.156,2.156,0,0,1-1.7-.268.529.529,0,0,0-.539-.027,2.014,2.014,0,0,1-2.209-.448,2.027,2.027,0,0,1-.443-2.193,2.016,2.016,0,0,1,1.861-1.271A2.016,2.016,0,0,1-613,116.746c-.045.212.025.3.209.361a.859.859,0,0,0,1.139-.855,3.338,3.338,0,0,0-2.8-3.219,3.334,3.334,0,0,0-3.836,2.88,3.369,3.369,0,0,0,2.692,3.67,3.366,3.366,0,0,0,2.149-.317,1.149,1.149,0,0,1,.372-.148.686.686,0,0,1,.76.453.687.687,0,0,1-.31.831,4.342,4.342,0,0,1-1.59.57,4.718,4.718,0,0,1-5.469-4.21,4.725,4.725,0,0,1,4.008-5.12,4.723,4.723,0,0,1,5.361,3.936c.009.051.021.1.031.153Zm-4.049-.407a.682.682,0,0,0-.652-.645.682.682,0,0,0-.644.652.682.682,0,0,0,.652.645A.683.683,0,0,0-614.338,116.309Z" transform="translate(633.194 -111.598)" fill="#f60"/>
      <path id="Path_16946" data-name="Path 16946" d="M-905.785,171.6a.422.422,0,0,1,.255-.036l11.273,0c.318,0,.314,0,.228.308a6.018,6.018,0,0,0,1.142,5.554,1.977,1.977,0,0,0,.159.188c.1.1.1.183-.026.27q-1.064.761-2.121,1.532c-.142.1-.231.025-.335-.05l-4.985-3.641q-2.673-1.952-5.346-3.9A.727.727,0,0,1-905.785,171.6Z" transform="translate(906.466 -168.877)" fill="#28304e"/>
    </g>
  </g>
</svg>
