<svg xmlns="http://www.w3.org/2000/svg" width="24.047" height="24.047" viewBox="0 0 24.047 24.047">
  <g id="Group_8214" data-name="Group 8214" transform="translate(-93.6 -216.808)">
    <path id="Path_19199" data-name="Path 19199" d="M93.6,358.425a6.877,6.877,0,0,1,.51-1.748,5.963,5.963,0,0,1,1.174-1.657q2.485-2.492,4.974-4.979a5.556,5.556,0,0,1,3.969-1.7,5.46,5.46,0,0,1,3.763,1.388,1.938,1.938,0,0,1,.691.95,1.578,1.578,0,0,1-.633,1.772,1.631,1.631,0,0,1-1.909-.068,3.175,3.175,0,0,0-1.221-.715,2.256,2.256,0,0,0-2.218.559q-2.641,2.6-5.244,5.24a2.314,2.314,0,0,0-.413,2.576,2.268,2.268,0,0,0,2.183,1.384,2.291,2.291,0,0,0,1.7-.723c.948-.954,1.905-1.9,2.848-2.859a.625.625,0,0,1,.76-.166,7.065,7.065,0,0,0,2.454.449c.21.008.393.042.484.255a.465.465,0,0,1-.159.545c-1.383,1.382-2.76,2.769-4.15,4.144a5.558,5.558,0,0,1-3.113,1.561c-.053.008-.105.025-.158.038H98.528c-.045-.012-.089-.027-.134-.035a5.586,5.586,0,0,1-4.305-3.238,6.446,6.446,0,0,1-.488-1.7Z" transform="translate(0 -123.812)" fill="#28304e"/>
    <path id="Path_19200" data-name="Path 19200" d="M253.771,216.808c3.339,0,5.733,2.109,6.072,4.908a5.5,5.5,0,0,1-1.628,4.725q-2.511,2.548-5.058,5.061a5.528,5.528,0,0,1-3.71,1.631,5.416,5.416,0,0,1-4.212-1.579,1.541,1.541,0,0,1-.455-1.628,1.517,1.517,0,0,1,1.213-1.114,1.67,1.67,0,0,1,1.515.441,2.375,2.375,0,0,0,3.391-.1q2.51-2.5,5.011-5.008a2.371,2.371,0,1,0-3.335-3.372c-.947.933-1.89,1.871-2.819,2.821a.719.719,0,0,1-.895.205,6.842,6.842,0,0,0-2.433-.432.428.428,0,0,1-.31-.755c1.49-1.474,2.927-3,4.467-4.423A5.07,5.07,0,0,1,253.771,216.808Z" transform="translate(-142.244)" fill="#f60"/>
  </g>
</svg>
