<svg xmlns="http://www.w3.org/2000/svg" width="23.905" height="30.708" viewBox="0 0 23.905 30.708">
  <g id="Group_5965" data-name="Group 5965" transform="translate(1049.764 -468.426)">
    <g id="Group_5964" data-name="Group 5964" transform="translate(-1049.764 468.426)">
      <path id="Path_17339" data-name="Path 17339" d="M-1037.865,468.432A11.969,11.969,0,0,1-1026,478.45a11.222,11.222,0,0,1-.73,6.07,29.736,29.736,0,0,1-3.622,6.376,62.1,62.1,0,0,1-6.746,7.849c-.52.515-.89.52-1.4.012a59.262,59.262,0,0,1-7.88-9.5,25.019,25.019,0,0,1-2.692-5.261,10.988,10.988,0,0,1,.745-9.27,11.683,11.683,0,0,1,7.6-5.941A9.764,9.764,0,0,1-1037.865,468.432Zm-8.429,11.929a8.464,8.464,0,0,0,8.473,8.478,8.4,8.4,0,0,0,8.485-8.478,8.4,8.4,0,0,0-8.47-8.463A8.464,8.464,0,0,0-1046.294,480.361Z" transform="translate(1049.764 -468.426)" fill="#28304e"/>
      <path id="Path_17340" data-name="Path 17340" d="M-976.131,549.168c0-.719-.008-1.439,0-2.158,0-.234-.062-.344-.309-.316a2.9,2.9,0,0,1-.364,0,.719.719,0,0,1-.743-.466.76.76,0,0,1,.2-.862q1.11-1.016,2.223-2.028,1.507-1.369,3.017-2.735a.791.791,0,0,1,1.21-.012q2.533,2.3,5.065,4.594a.967.967,0,0,1,.438.819.729.729,0,0,1-.651.686c-.04,0-.081,0-.121,0-.687.015-.687.015-.687.692q0,1.9,0,3.8c0,.593-.261.857-.845.859-.527,0-1.054,0-1.581,0a.714.714,0,0,1-.775-.775c0-.8,0-1.6,0-2.4,0-.694-.262-.952-.958-.956-.334,0-.669,0-1,0-.64.007-.91.272-.914.907-.005.8,0,1.6,0,2.4a.727.727,0,0,1-.819.824c-.537,0-1.074,0-1.611,0a.713.713,0,0,1-.771-.78C-976.134,550.567-976.13,549.868-976.131,549.168Z" transform="translate(983.448 -534.489)" fill="#f60"/>
    </g>
  </g>
</svg>
