<svg xmlns="http://www.w3.org/2000/svg" width="23.681" height="23.682" viewBox="0 0 23.681 23.682">
  <g id="Group_8218" data-name="Group 8218" transform="translate(-125.6 -424.751)">
    <path id="Path_19216" data-name="Path 19216" d="M125.6,425.233a.759.759,0,0,1,1.216-.293q2.76,1.642,5.521,3.281a.462.462,0,0,1,.262.456q-.01,7.487-.006,14.973c0,.082.039.2-.034.24-.088.053-.168-.048-.244-.093q-3.107-1.848-6.214-3.7a1.208,1.208,0,0,1-.5-.493Z" transform="translate(0)" fill="#28304e"/>
    <path id="Path_19217" data-name="Path 19217" d="M371.452,629.951a1.375,1.375,0,0,1-.472-.431c-1.066-1.443-2.139-2.881-3.2-4.324a4.874,4.874,0,1,1,8.73-3.6,4.791,4.791,0,0,1-.935,3.612q-1.6,2.15-3.186,4.309a1.377,1.377,0,0,1-.471.432Zm.2-5.621a2.039,2.039,0,0,0,2.077-2.006,2.044,2.044,0,1,0-2.077,2.006Z" transform="translate(-227.273 -181.518)" fill="#f60"/>
    <path id="Path_19218" data-name="Path 19218" d="M270.038,441.71c0-2.488,0-4.976,0-7.463a.461.461,0,0,1,.26-.457c1.7-1.005,3.4-2.02,5.106-3.03.069-.041.144-.133.224-.085s.038.156.038.237q0,5.661,0,11.322a.707.707,0,0,1-.148.446,5.992,5.992,0,0,0-1.214,3.357,5.581,5.581,0,0,0,.017.713.332.332,0,0,1-.184.356c-1.288.758-2.57,1.523-3.856,2.284-.233.138-.241.132-.241-.147Q270.038,445.476,270.038,441.71Z" transform="translate(-136.089 -5.568)" fill="#28304e"/>
    <path id="Path_19219" data-name="Path 19219" d="M390.8,435.858q0-2.483,0-4.966c0-.075-.033-.177.032-.219.082-.052.155.039.224.081q3.121,1.869,6.24,3.739a.875.875,0,0,1,.472.828c-.011,1.848,0,3.7-.006,5.544,0,.081.04.189-.039.237s-.155-.041-.224-.083a6.228,6.228,0,0,0-6.449.009c-.063.039-.129.116-.205.077s-.043-.139-.043-.211Q390.794,438.376,390.8,435.858Z" transform="translate(-249.869 -5.565)" fill="#28304e"/>
  </g>
</svg>
