<svg xmlns="http://www.w3.org/2000/svg" width="19.961" height="18.888" viewBox="0 0 19.961 18.888">
  <g id="Group_6061" data-name="Group 6061" transform="translate(1604.357 -1631.135)">
    <path id="Path_17460" data-name="Path 17460" d="M-1427.833,1649.735a.6.6,0,0,1-.574.288c-1.525-.006-3.051,0-4.576,0-.418,0-.588-.171-.588-.592q0-8.85,0-17.7c0-.421.17-.59.59-.59,1.525,0,3.05,0,4.576,0a.6.6,0,0,1,.573.289Zm-1.376-12.878c0-1.369,0-2.739,0-4.108,0-.167-.042-.226-.218-.225q-1.256.012-2.512,0c-.171,0-.224.053-.224.223q.006,4.108,0,8.216c0,.2.074.239.252.237.818-.007,1.635-.009,2.453,0,.2,0,.25-.063.249-.256C-1429.212,1639.583-1429.209,1638.22-1429.209,1636.857Z" transform="translate(-156.563 0)" fill="#1c1c1c"/>
    <path id="Path_17461" data-name="Path 17461" d="M-1519.632,1695.3q0-3.175,0-6.35c0-.078,0-.156,0-.234a.478.478,0,0,1,.5-.465q2.386,0,4.772,0a.454.454,0,0,1,.476.4,1.178,1.178,0,0,1,.022.232q0,6.428,0,12.855a1.227,1.227,0,0,1-.024.251.45.45,0,0,1-.465.388q-2.4,0-4.792,0a.475.475,0,0,1-.491-.455,2.156,2.156,0,0,1-.005-.234Q-1519.632,1698.5-1519.632,1695.3Zm4.361-2.168c0-1.09,0-2.181,0-3.271,0-.166-.042-.227-.218-.225q-1.256.012-2.511,0c-.174,0-.22.058-.219.225q.007,3.271,0,6.541c0,.193.068.242.249.24.8-.008,1.609,0,2.414,0,.282,0,.283,0,.283-.276Q-1515.27,1694.751-1515.27,1693.135Z" transform="translate(-77.669 -52.362)" fill="#1c1c1c"/>
    <path id="Path_17462" data-name="Path 17462" d="M-1604.356,1726.454q0-2.571,0-5.141c0-.392.132-.537.524-.574.077-.007.156-.008.233-.008h4.323c.52.009.67.161.67.679q0,5.044,0,10.088c0,.052,0,.1,0,.156a.472.472,0,0,1-.5.5q-2.376,0-4.752,0a.456.456,0,0,1-.495-.517Q-1604.357,1729.045-1604.356,1726.454Zm1.389-2.6c0,.506,0,1.012,0,1.518,0,.154.038.22.206.219q1.265-.01,2.53,0c.16,0,.216-.053.215-.214q-.008-1.518,0-3.036c0-.148-.043-.207-.2-.206q-1.275.009-2.55,0c-.152,0-.2.048-.2.2C-1602.962,1722.845-1602.967,1723.351-1602.967,1723.857Z" transform="translate(0 -82.134)" fill="#1c1c1c"/>
  </g>
</svg>
