<svg xmlns="http://www.w3.org/2000/svg" width="15.084" height="19.764" viewBox="0 0 15.084 19.764">
  <g id="Group_6074" data-name="Group 6074" transform="translate(795.676 -127.519)">
    <path id="Path_17443" data-name="Path 17443" d="M-788.326,402.225q-1.547-1.032-3.093-2.064-1.921-1.287-3.84-2.579c-.043-.029-.086-.056-.127-.087a.6.6,0,0,1,0-1.021c.521-.364,1.058-.706,1.583-1.064.122-.083.2-.02.293.041q2.164,1.444,4.329,2.887a1.766,1.766,0,0,0,1.7.222,2.4,2.4,0,0,0,.468-.265q2.125-1.416,4.248-2.836a.3.3,0,0,1,.392,0c.464.322.939.629,1.409.944a.625.625,0,0,1,.009,1.144q-3.35,2.254-6.7,4.505c-.09.061-.186.113-.28.17Z" transform="translate(-0.001 -254.942)" fill="#f60"/>
    <path id="Path_17444" data-name="Path 17444" d="M-780.428,132.777a.658.658,0,0,1-.354.576q-1.645,1.094-3.288,2.19l-3.4,2.266a.694.694,0,0,1-.983,0q-3.327-2.217-6.655-4.435a.7.7,0,0,1-.385-.561.661.661,0,0,1,.356-.6q1.785-1.2,3.568-2.4l3.118-2.1a.691.691,0,0,1,.983,0q3.335,2.241,6.669,4.482A.661.661,0,0,1-780.428,132.777Z" transform="translate(-0.175 0)" fill="#1c1c1c"/>
    <path id="Path_17445" data-name="Path 17445" d="M-780.6,300.978a.545.545,0,0,1-.2.438,1.883,1.883,0,0,1-.2.148l-6.62,4.414a.706.706,0,0,1-1.015,0l-6.62-4.414c-.048-.032-.1-.063-.143-.1a.6.6,0,0,1,0-1c.525-.37,1.067-.715,1.6-1.076.123-.083.2-.015.293.045l3.222,2.148c.374.249.747.5,1.122.748a1.738,1.738,0,0,0,2.071,0q2.157-1.436,4.31-2.878a.319.319,0,0,1,.425,0c.474.331.959.646,1.44.966A.629.629,0,0,1-780.6,300.978Z" transform="translate(0 -163.553)" fill="#1c1c1c"/>
  </g>
</svg>
