<svg xmlns="http://www.w3.org/2000/svg" width="21.228" height="21.219" viewBox="0 0 21.228 21.219">
  <g id="Group_6587" data-name="Group 6587" transform="translate(-1256.08 1678.577)">
    <path id="Path_17463" data-name="Path 17463" d="M1266.714-1534.629h10.228c.385,0,.386,0,.386.382,0,2.683,0,5.366,0,8.049a3.208,3.208,0,0,1-2.6,3.2,3.389,3.389,0,0,1-.687.071q-7.318.006-14.636,0a3.214,3.214,0,0,1-3.225-2.609,3.637,3.637,0,0,1-.072-.737q0-3.987,0-7.974c0-.387,0-.388.38-.388Z" transform="translate(-0.023 -134.439)" fill="#1c1c1c"/>
    <path id="Path_17464" data-name="Path 17464" d="M1266.667-1671.123h-10.226c-.356,0-.355,0-.358-.356a4.945,4.945,0,0,1,.2-1.808,3.233,3.233,0,0,1,3.029-2.122c.256,0,.512-.01.767,0,.193.009.261-.059.258-.255-.01-.6-.006-1.205,0-1.808a1.076,1.076,0,0,1,1.065-1.106,1.1,1.1,0,0,1,1.094,1.087c.009.61.007,1.221,0,1.832,0,.178.052.25.239.25q3.962-.006,7.924,0c.191,0,.237-.08.235-.253-.006-.619-.011-1.238,0-1.857a1.088,1.088,0,0,1,1-1.054,1.1,1.1,0,0,1,1.128.785,1.091,1.091,0,0,1,.033.318c0,.594.009,1.189,0,1.783-.005.223.075.284.286.279a5.638,5.638,0,0,1,1.55.106,3.234,3.234,0,0,1,2.418,3.081c.006.272-.009.545,0,.817.011.22-.077.283-.29.281-1.247-.008-2.493,0-3.739,0Z" transform="translate(0 0)" fill="#f60"/>
  </g>
</svg>
