<svg xmlns="http://www.w3.org/2000/svg" width="24.029" height="28.756" viewBox="0 0 24.029 28.756">
  <g id="Group_8210" data-name="Group 8210" transform="translate(110.144 -532.784)">
    <path id="Path_18076" data-name="Path 18076" d="M-105.841,745.377a6,6,0,0,1-1.886-.6,4.4,4.4,0,0,1-2.331-3.408,14.091,14.091,0,0,1,.127-3.91,12.41,12.41,0,0,1,.783-3.032,6.216,6.216,0,0,1,2.6-3.237,5.566,5.566,0,0,1,2.712-.7,1.409,1.409,0,0,1,.669.185c.5.258.955.588,1.429.887a6.6,6.6,0,0,0,3.9,1.112,6.685,6.685,0,0,0,3.219-1.043c.413-.256.832-.506,1.227-.788a2.414,2.414,0,0,1,1.939-.269,5.334,5.334,0,0,1,3.894,2.876A12.409,12.409,0,0,1-86.235,738a18.565,18.565,0,0,1,.113,2.741,4.627,4.627,0,0,1-4.123,4.6,1.56,1.56,0,0,0-.162.039Z" transform="translate(0 -183.837)" fill="#bababa"/>
    <path id="Path_18077" data-name="Path 18077" d="M-33.559,532.786a6.952,6.952,0,0,1,6.952,6.953,6.973,6.973,0,0,1-6.978,6.944,7.017,7.017,0,0,1-6.94-6.984A6.985,6.985,0,0,1-33.559,532.786Z" transform="translate(-64.736 0)" fill="#bababa"/>
  </g>
</svg>
