<svg xmlns="http://www.w3.org/2000/svg" width="19.228" height="24" viewBox="0 0 19.228 24">
  <g id="Group_12078" data-name="Group 12078" transform="translate(-1610.282 -553.015)">
    <path id="Path_16940" data-name="Path 16940" d="M463.616-211.758q-4.092,0-8.183,0a1.273,1.273,0,0,1-1.372-.994.126.126,0,0,1-.007-.027c.017-1.644-.26-3.32.435-4.9a5.893,5.893,0,0,1,5.038-3.7,10.823,10.823,0,0,1,1.2-.041c2.158,0,4.316-.01,6.474,0a6.031,6.031,0,0,1,5.77,4.254,5.939,5.939,0,0,1,.269,1.764c0,.738,0,1.476,0,2.214a1.281,1.281,0,0,1-1.441,1.428q-2.55,0-5.1,0Z" transform="translate(1156.27 788.773)" fill="#cacaca"/>
    <path id="Path_16941" data-name="Path 16941" d="M508.315-401.159a5.986,5.986,0,0,1-6-6.029,5.977,5.977,0,0,1,6.006-5.983,5.969,5.969,0,0,1,6.018,6.053A5.981,5.981,0,0,1,508.315-401.159Z" transform="translate(1111.582 966.185)" fill="#cacaca"/>
  </g>
</svg>
