<svg xmlns="http://www.w3.org/2000/svg" width="23.736" height="18.989" viewBox="0 0 23.736 18.989">
  <path id="Icon_awesome-funnel-dollar" data-name="Icon awesome-funnel-dollar" d="M16.076,6.154l3.753-4.149A1.175,1.175,0,0,0,19,0H1.177A1.175,1.175,0,0,0,.346,2.005L7.121,9.495v5.783a1.484,1.484,0,0,0,.593,1.187l2.967,2.225a1.477,1.477,0,0,0,2.2-.5,7.1,7.1,0,0,1,3.2-12.032Zm1.726.967a5.934,5.934,0,1,0,5.934,5.934A5.934,5.934,0,0,0,17.8,7.121Zm.593,8.9v.6a.3.3,0,0,1-.3.3h-.593a.3.3,0,0,1-.3-.3v-.6a2.124,2.124,0,0,1-1.163-.421.3.3,0,0,1-.021-.45l.436-.416a.3.3,0,0,1,.376-.027.893.893,0,0,0,.475.138h1.043a.466.466,0,0,0,.438-.489.484.484,0,0,0-.325-.472l-1.669-.5a1.678,1.678,0,0,1-1.171-1.609,1.652,1.652,0,0,1,1.583-1.672v-.6a.3.3,0,0,1,.3-.3H18.1a.3.3,0,0,1,.3.3v.6a2.121,2.121,0,0,1,1.163.421.3.3,0,0,1,.021.45l-.436.416a.3.3,0,0,1-.376.027.89.89,0,0,0-.475-.138H17.25a.466.466,0,0,0-.438.489.484.484,0,0,0,.325.472l1.669.5a1.678,1.678,0,0,1,1.171,1.609A1.651,1.651,0,0,1,18.4,16.018Z" transform="translate(0)" fill="#cacaca"/>
</svg>
