<svg xmlns="http://www.w3.org/2000/svg" width="25.051" height="20.354" viewBox="0 0 25.051 20.354">
  <path id="Icon_awesome-list-ul" data-name="Icon awesome-list-ul" d="M2.349,3.375A2.349,2.349,0,1,0,4.7,5.724,2.349,2.349,0,0,0,2.349,3.375Zm0,7.828A2.349,2.349,0,1,0,4.7,13.552,2.349,2.349,0,0,0,2.349,11.2Zm0,7.828A2.349,2.349,0,1,0,4.7,21.38a2.349,2.349,0,0,0-2.349-2.349Zm21.919.783H8.611a.783.783,0,0,0-.783.783v1.566a.783.783,0,0,0,.783.783H24.268a.783.783,0,0,0,.783-.783V20.6A.783.783,0,0,0,24.268,19.815Zm0-15.657H8.611a.783.783,0,0,0-.783.783V6.506a.783.783,0,0,0,.783.783H24.268a.783.783,0,0,0,.783-.783V4.941A.783.783,0,0,0,24.268,4.158Zm0,7.828H8.611a.783.783,0,0,0-.783.783v1.566a.783.783,0,0,0,.783.783H24.268a.783.783,0,0,0,.783-.783V12.769A.783.783,0,0,0,24.268,11.986Z" transform="translate(0 -3.375)" fill="#cacaca"/>
</svg>
