<svg xmlns="http://www.w3.org/2000/svg" width="30.551" height="22.913" viewBox="0 0 30.551 22.913">
  <path id="Icon_awesome-barcode" data-name="Icon awesome-barcode" d="M0,27.413V4.5H1.074V27.413ZM1.6,27.4V4.5h.546V27.4Zm1.62,0V4.5h.528V27.4Zm2.677,0V4.5h.528V27.4Zm2.148,0V4.5H9.1V27.4Zm2.677,0V4.5h.528V27.4Zm1.074,0V4.5h.528V27.4Zm1.074,0V4.5H13.4V27.4ZM15,27.4V4.5h1.074V27.4Zm2.677,0V4.5h1.074V27.4Zm2.148,0V4.5H20.9V27.4Zm2.148,0V4.5H23.05V27.4Zm1.6,0V4.5h1.074V27.4Zm2.694,0V4.5h1.6V27.4Zm2.131,0V4.5h.546V27.4Zm1.074.016V4.5h1.074V27.413Z" transform="translate(0 -4.5)" fill="#cacaca"/>
</svg>
